<?xml version="1.1" encoding="UTF-8" standalone="no"?>
<svg width="764px" height="453px" xmlns="http://www.w3.org/2000/svg" version="1.1">
    <title>autumn2_org</title>
    <description>Created with Sketch (http://www.bohemiancoding.com/sketch)</description>
    <defs>
        <linearGradient id="gradient-1" x1="46%" y1="6%" x2="46%" y2="150%">
            <stop offset="0%" style="stop-color:rgb(254,208,32); stop-opacity:100"></stop>
            <stop offset="100%" style="stop-color:rgb(238,50,36); stop-opacity:100"></stop>
        </linearGradient>
    </defs>
    <g fill="none">
        <path id="Shape" d="M10,189 C11,193 9,197 11,201 C9,207 11,214 12,221 C14,222 11,226 14,227 C13,230 15,233 14,236 C16,241 14,246 15,251 C14,255 12,260 15,264 C14,271 17,276 16,282 C18,285 16,288 18,292 C18,295 18,298 17,300 C16,309 16,318 15,327 C15,328 15,330 15,331 C15,333 15,334 15,336 C16,346 13,358 15,368 C16,373 15,378 17,382 C16,390 19,396 21,403 C24,408 24,415 29,419 C34,424 40,427 46,425 C48,423 50,423 52,422 C54,422 55,421 56,421 C57,421 57,420 58,420 C59,419 60,418 60,417 C62,416 63,415 64,414 C65,413 66,412 66,411 C66,409 69,410 69,407 C71,408 71,409 71,411 C70,412 70,413 70,414 C73,414 75,416 79,414 C80,414 83,415 85,415 C89,412 91,418 94,416 C97,418 101,414 104,417 C105,417 107,417 107,418 C109,416 111,418 113,418 C121,418 129,421 137,419 L139,420 C140,417 144,421 147,419 C148,421 150,418 151,420 C151,418 153,420 154,419 C155,420 158,418 159,420 C159,421 158,423 159,423 C160,423 160,423 161,422 C160,422 159,421 160,420 C168,418 176,421 183,419 C184,421 181,421 182,423 L186,421 C188,421 190,420 191,419 C192,419 192,421 193,421 C200,418 209,418 216,418 C234,419 252,415 268,414 C270,413 273,411 275,412 C279,412 280,407 283,409 C287,411 287,406 291,407 C291,406 293,405 293,405 C296,405 295,404 295,403 C295,402 296,403 297,404 C297,402 301,404 302,402 C303,400 306,403 307,401 C309,402 311,399 313,400 C314,401 315,399 316,399 C317,399 319,400 321,398 C321,399 323,400 322,401 C323,401 324,402 325,403 C325,404 324,404 325,405 C326,403 325,402 327,400 C330,402 332,399 335,401 C334,402 333,403 335,405 C335,406 336,406 336,407 C339,406 341,408 342,407 C341,407 341,408 342,409 C341,411 341,408 341,411 L341,413 L340,411 C341,411 342,410 342,410 C344,408 343,411 345,410 C346,412 349,412 348,415 C348,416 347,417 348,418 C351,419 349,421 349,422 C350,421 353,422 354,421 C355,420 353,419 353,417 C357,418 354,412 358,412 C360,411 360,414 361,414 L361,416 C362,416 363,415 363,417 C363,418 363,418 363,419 L360,419 C360,420 362,420 362,420 C363,421 364,423 365,423 C364,422 364,419 364,417 C365,416 367,418 368,416 L367,414 C366,415 365,413 365,413 C366,412 367,414 368,412 C369,413 374,410 372,415 L369,414 L369,416 C370,416 370,417 371,418 C369,420 367,420 367,421 C373,423 365,425 370,427 C370,425 370,424 370,423 L372,424 C372,422 371,421 371,420 C372,422 375,424 374,425 L376,426 C376,424 377,425 378,425 C378,423 378,422 378,422 C379,421 379,421 379,420 C380,423 380,423 380,423 C380,424 381,425 381,425 C381,423 382,422 382,422 C381,422 383,420 383,420 L380,416 C382,417 382,417 382,418 C382,417 383,416 383,415 C384,415 383,414 384,413 C384,414 387,418 388,415 C387,413 384,412 387,410 C389,408 391,410 393,409 C391,409 390,408 390,407 C389,406 388,406 388,405 C387,405 384,404 384,406 C384,405 384,403 383,402 C380,402 384,399 381,398 C381,397 379,399 379,399 C378,398 377,403 375,400 C374,401 373,401 372,399 C372,398 374,398 374,398 C375,396 373,395 375,394 C377,396 378,392 379,395 C381,393 383,395 384,394 C384,392 387,391 387,391 C384,391 384,390 384,390 C383,390 382,390 382,389 C383,388 384,389 384,387 C384,386 384,388 387,389 C387,388 384,387 387,387 C387,386 384,386 384,386 L384,388 C383,388 383,389 381,388 C382,390 381,391 380,391 C379,390 380,389 380,389 C377,389 380,385 379,384 L376,385 C375,384 375,386 374,386 C373,387 373,389 375,389 C374,391 372,391 371,392 C371,393 368,392 368,393 C366,393 365,395 367,396 C368,395 369,396 370,395 C370,395 370,397 369,397 C371,399 368,397 368,399 C368,400 370,402 368,403 C366,401 365,404 364,404 C364,405 365,404 366,405 C364,406 365,408 363,408 C362,408 361,411 359,410 C358,410 357,411 356,411 C355,411 355,410 354,410 L354,408 C353,407 350,409 351,406 C349,405 350,402 347,402 C346,402 345,403 343,402 C343,401 339,402 339,402 C337,402 338,400 338,399 C339,398 341,398 342,399 C342,398 343,397 342,397 C343,396 343,396 344,396 C345,398 346,394 347,396 C350,395 353,397 355,397 C356,398 358,397 358,399 L359,397 C360,398 359,398 360,399 C360,395 364,399 365,397 C363,396 366,395 365,393 C365,393 363,394 363,392 C362,394 362,390 360,392 C359,391 359,392 358,391 C356,392 354,391 352,392 C350,392 350,391 348,391 C347,389 347,386 349,387 C351,387 350,386 351,385 C352,386 353,385 354,385 C355,385 354,387 354,387 L356,388 C355,387 357,386 355,385 C356,386 358,382 360,384 C360,385 360,386 361,387 C361,385 361,384 362,383 C363,386 364,382 365,384 C365,386 367,384 367,386 C367,383 369,384 370,383 C369,382 368,382 367,381 C366,381 366,379 364,379 L364,381 C363,382 363,379 362,380 C361,377 358,382 357,378 C356,379 356,379 355,379 C356,377 357,377 359,376 C360,377 360,375 362,376 L362,374 C364,374 366,373 366,371 C363,370 361,372 360,372 C359,373 358,371 357,372 C355,371 353,373 351,372 C349,372 348,372 346,373 C344,373 341,371 339,373 C338,370 335,373 333,372 C333,373 333,374 332,374 C331,374 330,375 330,373 C331,372 329,369 331,368 L333,370 C333,369 335,369 335,368 C337,368 339,371 341,369 C341,369 342,368 343,368 C345,369 346,366 347,365 C349,364 353,365 354,362 C356,362 357,367 359,363 C361,363 362,364 364,364 C366,365 367,365 367,368 C367,368 368,367 367,365 C370,366 372,366 372,368 C372,370 370,371 372,373 C373,372 374,372 375,373 C377,377 381,377 381,379 L383,381 C382,382 381,381 379,381 C379,380 377,382 377,380 C377,381 376,381 375,382 C374,381 374,379 373,379 L373,381 C371,379 372,377 370,376 C368,376 369,377 369,378 C372,379 370,382 373,381 C373,382 373,383 374,384 L373,382 C374,381 376,383 377,382 C378,384 379,381 379,383 C380,381 381,383 381,382 C383,381 384,384 384,381 C384,380 384,379 384,378 C384,377 384,376 387,376 L387,374 L384,373 C384,373 384,374 384,375 C383,374 384,373 384,370 C384,368 388,368 387,365 C389,365 388,364 389,362 L387,361 L390,361 C390,362 390,363 390,363 L391,361 C391,359 393,360 394,360 C394,362 394,362 393,362 C396,362 395,361 396,360 C395,358 393,358 394,356 L396,357 L396,355 C394,354 391,353 393,352 C394,353 394,351 395,351 C397,353 400,349 402,351 C402,349 401,351 400,350 C398,351 398,349 398,349 C398,348 401,347 402,348 C405,347 405,345 407,346 C408,345 405,339 409,342 C412,342 414,344 417,344 C419,345 421,345 423,345 C424,345 426,344 426,347 C426,347 426,348 426,349 C426,348 426,347 428,347 C432,349 436,345 440,347 C442,346 443,348 444,346 L447,348 L447,350 C447,349 449,347 450,347 C451,347 453,347 453,348 C454,346 454,351 456,349 C458,349 458,350 459,349 C459,350 460,348 461,348 C463,348 463,346 465,346 C466,347 468,348 468,346 C471,343 474,347 475,344 C475,344 477,342 475,342 C473,341 474,341 474,340 C475,341 475,341 478,341 C478,339 480,338 482,338 L479,338 C479,338 478,337 477,339 C475,337 478,336 479,335 C480,338 481,334 483,334 C485,331 488,333 491,331 C494,332 494,328 496,331 C498,330 499,331 501,331 C501,330 501,329 502,329 C504,329 504,329 505,330 C505,329 504,327 506,327 C503,327 500,331 498,327 C497,328 495,327 493,327 C492,326 491,327 490,327 C487,326 485,327 486,326 C484,326 483,326 481,327 C480,327 479,329 479,326 C477,326 475,323 474,324 C472,322 468,324 468,321 L464,321 C464,321 463,322 461,322 C461,320 460,320 460,320 C459,319 459,322 457,322 L456,320 C452,322 449,318 445,322 C444,321 445,321 444,320 C443,322 440,322 440,322 C439,322 436,321 436,321 C435,322 433,322 433,323 C431,325 428,323 425,324 C423,324 419,324 417,325 C416,324 414,325 412,324 C411,324 409,325 408,325 C405,324 404,327 402,325 C400,325 398,324 396,326 C396,324 393,325 391,323 C390,322 388,322 389,320 L384,318 C384,318 384,317 384,316 C384,316 387,317 387,318 C388,317 391,316 391,317 C391,315 391,316 393,315 C395,317 396,314 397,316 C400,314 402,317 404,315 C405,316 407,316 408,315 C412,313 419,316 425,314 C428,314 431,314 433,314 C435,312 438,313 439,313 C443,314 446,313 447,312 C449,313 453,313 454,312 C461,310 468,315 475,312 C475,310 478,313 479,312 C481,313 482,310 484,312 C489,313 493,312 497,312 C500,312 502,312 505,312 C506,311 508,313 509,312 C512,312 517,313 519,312 C520,314 522,312 524,313 C527,313 530,312 533,313 C534,313 535,313 537,313 C538,313 540,312 540,312 C540,312 543,314 545,314 C553,313 559,314 567,312 C568,312 570,313 570,312 C574,313 578,312 582,313 C583,313 585,311 586,312 C587,312 589,311 591,312 C592,312 593,311 595,312 C596,310 598,314 599,311 C601,311 603,312 605,310 C605,311 607,312 608,310 C610,310 612,310 614,311 C615,310 617,309 618,310 C620,310 621,308 622,309 C624,309 625,309 626,309 L627,311 C631,310 631,303 635,307 C637,309 638,304 639,305 C641,305 641,303 643,303 C644,303 643,304 643,305 C644,303 646,304 647,303 C647,304 647,305 647,306 C647,304 650,305 648,304 C649,303 648,302 649,302 C649,301 649,299 650,300 C652,299 656,301 658,299 C659,299 661,298 663,299 C664,297 665,298 666,298 C669,297 672,299 674,297 C677,295 678,299 680,297 C682,297 683,296 685,295 C687,296 689,295 690,297 L690,295 L694,295 C694,293 691,293 690,293 L691,291 C692,292 693,291 694,292 C694,291 695,291 696,291 C696,292 699,290 698,293 C697,294 697,294 697,295 C699,293 699,292 701,291 C702,290 704,289 704,288 L706,290 L707,287 C708,287 708,288 709,288 C710,286 710,287 711,287 C711,286 710,286 711,285 C713,286 714,282 716,283 C717,282 719,283 718,281 C718,279 719,277 719,277 C722,277 724,277 726,279 C727,278 727,278 729,277 C730,277 729,279 730,281 C731,282 731,285 730,287 L729,289 C731,289 733,286 733,288 C733,288 736,288 734,286 C736,287 738,285 739,286 C739,286 739,285 739,284 C737,285 736,285 734,285 C734,283 732,282 733,279 L735,277 L737,280 C738,276 743,277 742,272 C742,270 743,267 741,266 C742,262 739,257 743,255 C745,251 749,255 752,253 C753,252 755,251 756,251 C755,246 755,241 754,235 C755,227 756,219 753,212 C751,203 751,195 749,187 C747,182 746,177 743,173 C743,167 737,164 737,159 C736,156 736,152 736,149 C734,146 734,142 733,140 C733,136 730,134 732,131 L730,129 C732,124 729,118 730,113 C728,105 727,97 726,89 C727,87 725,85 724,83 C724,82 725,81 725,81 C725,77 724,74 724,70 C722,69 720,67 718,68 C717,69 717,67 716,67 C716,68 715,70 714,70 C712,72 713,74 712,75 L711,73 C711,73 710,75 712,76 C710,77 712,78 710,79 C710,81 710,81 709,82 C710,83 708,85 710,85 C710,87 712,85 712,86 C712,89 707,88 710,91 C711,91 712,90 712,89 L714,90 C715,90 715,88 716,88 C717,90 715,92 714,94 C713,94 712,93 711,94 L711,96 C712,96 714,94 714,96 C714,97 714,97 714,98 C713,99 712,98 712,100 C713,101 715,99 715,101 C716,101 716,101 717,102 C717,103 713,103 715,105 C715,104 716,103 717,103 C718,103 720,103 720,105 C720,108 719,111 721,113 C722,118 720,122 722,126 C722,128 722,129 723,130 C724,135 720,136 719,140 C717,141 715,143 715,146 C713,145 710,147 709,144 C704,145 700,141 695,145 C693,148 691,143 689,147 C687,146 684,145 683,147 C681,144 679,149 677,147 C674,149 673,147 672,147 C670,148 668,146 666,146 C662,144 658,147 655,145 C654,146 652,146 650,145 C647,142 644,146 641,144 C639,144 636,143 634,144 C632,143 630,144 628,143 C628,142 627,142 626,142 L615,141 C614,138 611,141 608,140 C607,141 605,139 603,140 C602,139 601,140 599,139 C596,138 595,143 593,139 C589,139 586,139 582,139 C580,140 577,139 575,140 C574,138 572,140 570,138 C569,139 568,139 567,138 C564,139 561,137 558,138 C553,136 548,138 544,135 C543,135 542,134 541,134 C539,134 535,136 533,133 C532,133 531,132 529,133 C525,131 521,129 516,130 C514,128 512,129 509,128 C506,129 502,129 498,128 C496,128 495,127 493,127 C489,126 487,127 484,127 C483,129 481,127 480,128 C477,126 473,127 470,126 C468,127 467,126 465,126 C465,125 463,125 463,123 C464,121 466,120 468,119 C470,116 472,118 473,116 C475,118 477,112 480,115 C481,114 483,115 484,114 C486,112 488,111 491,110 C492,109 493,107 495,108 C495,106 494,104 497,103 C500,101 496,95 502,94 C503,93 505,95 506,93 C507,91 510,90 513,89 C517,90 517,82 520,85 C522,85 524,86 526,84 C529,86 531,84 535,84 C532,84 529,82 526,84 C523,83 521,83 519,82 C516,82 516,80 515,79 C516,79 516,78 516,77 C513,76 513,71 510,73 C510,72 509,70 508,71 C507,71 507,70 507,69 C506,68 504,69 504,67 C503,67 501,67 501,66 C501,66 499,66 499,67 C496,66 495,65 496,64 C494,65 494,65 494,65 C493,63 491,66 490,64 C490,62 488,63 488,62 C488,63 488,64 487,64 C487,63 487,62 486,61 C485,62 485,57 484,60 C483,60 481,61 481,60 C479,60 477,58 474,58 C470,56 468,58 465,56 C464,54 463,55 461,55 C461,54 458,55 457,55 C456,56 453,52 453,55 C451,56 451,52 449,54 C447,53 446,54 444,53 C444,52 443,52 443,51 C442,49 440,51 440,49 L443,48 L439,47 C438,49 440,50 438,52 C437,52 437,51 436,51 C436,51 435,51 433,51 C433,52 432,51 431,52 C430,50 429,54 429,51 C428,51 426,51 426,51 C424,51 423,52 422,51 C422,50 422,50 421,49 C419,49 419,49 417,48 C416,48 415,49 415,49 C412,47 411,48 410,47 C410,48 410,49 409,49 C408,47 405,48 404,47 C402,46 400,47 398,47 C398,48 397,47 396,48 C394,47 394,47 394,46 C391,48 391,46 391,47 C388,46 384,48 384,45 C383,45 381,47 381,45 C378,45 376,45 373,45 L371,44 C370,46 368,43 368,45 C367,47 366,44 366,46 C365,46 365,44 365,44 C364,46 362,44 361,45 C361,43 360,43 359,43 C359,45 357,42 357,44 C355,44 355,44 355,45 C355,42 354,45 353,43 L351,42 L351,44 C350,44 350,42 349,42 C348,41 347,42 346,41 C345,43 343,42 342,44 C342,41 338,44 339,42 C338,42 337,43 336,43 C334,41 330,41 328,41 C327,41 326,41 325,42 C324,41 322,42 322,40 C322,41 320,42 319,41 C316,39 314,43 313,40 C311,40 310,40 310,41 C309,40 307,42 306,40 C303,39 302,40 301,40 C300,39 298,41 296,41 C295,41 296,39 295,39 C294,40 291,38 290,40 C290,39 287,41 288,38 C286,40 285,38 285,38 C283,37 282,37 282,37 C282,38 282,39 281,39 C280,38 280,37 280,36 C280,38 279,39 278,38 C277,37 275,37 275,38 L273,36 C272,34 270,39 268,37 C267,36 266,37 265,37 C264,37 265,35 263,36 C262,37 260,35 258,37 C256,36 253,37 252,35 C249,34 248,34 248,34 C247,35 245,35 243,34 C242,34 241,33 240,34 L238,33 C237,33 236,34 235,33 C233,32 231,34 229,33 C228,33 227,30 225,33 C224,31 223,33 221,33 C220,33 220,31 219,32 C216,32 216,31 215,31 C214,29 212,32 211,30 C209,30 209,32 208,31 C205,32 202,32 199,31 C195,32 194,30 194,32 C193,29 191,33 190,31 C188,33 188,28 186,31 C184,30 184,33 183,30 C181,31 179,28 176,30 C175,30 173,29 172,30 C170,28 167,29 165,28 C163,30 161,28 159,29 C158,28 156,29 155,29 C149,29 143,29 137,30 C131,32 122,31 116,33 C113,32 111,34 109,34 C104,34 100,34 96,36 C86,35 79,37 71,37 C67,37 64,37 60,37 C59,40 60,43 59,46 C61,49 58,53 60,55 C62,60 58,66 60,71 C61,74 64,76 63,79 C62,79 61,80 60,79 L52,81 C48,81 49,79 47,80 C46,79 46,81 45,79 C45,80 44,81 44,81 C41,82 41,78 38,78 C39,79 40,81 41,81 C41,83 39,84 38,84 C37,84 32,86 32,86 C30,91 25,90 24,95 C22,95 20,96 19,96 C15,97 11,100 8,102 C6,106 10,110 8,113 C6,115 9,117 7,119 C7,121 9,122 8,123 C9,123 9,125 9,125 C10,127 9,128 9,129 C7,129 9,130 7,130 L10,129 C10,130 10,131 10,132 C11,132 11,132 12,133 C12,134 10,134 10,134 C10,135 11,135 12,135 C12,137 12,137 12,138 C12,139 10,140 12,141 C10,141 11,143 10,144 C10,145 12,145 11,146 C11,147 10,149 12,149 C11,150 11,150 10,150 C10,151 11,151 11,152 C9,152 12,154 10,154 C11,155 10,156 10,157 C7,159 12,161 10,163 C11,164 9,164 9,165 L9,168 C10,169 9,171 9,173 C6,179 10,183 10,189 M9,169" style="fill:url(#gradient-1)" fill="none"></path>
    </g>
</svg>