<?xml version="1.1" encoding="UTF-8" standalone="no"?>
<svg width="827px" height="605px" xmlns="http://www.w3.org/2000/svg" version="1.1">
    <title>autumn</title>
    <defs>
        <linearGradient id="gradient-1" x1="50%" y1="63%" x2="49%" y2="-11%">
            <stop offset="0%" style="stop-color:rgb(238,125,34); stop-opacity:100"></stop>
            <stop offset="0%" style="stop-color:rgb(237,28,36); stop-opacity:100"></stop>
            <stop offset="100%" style="stop-color:rgb(158,28,32); stop-opacity:100"></stop>
        </linearGradient>
	</defs>
	    <g fill="none">
	        <path id="Shape" d="M109,424 C110,426 110,427 109,429 C109,436 111,443 110,450 C110,453 109,457 111,460 C113,461 112,465 114,467 C113,469 114,471 112,473 C111,475 113,476 113,478 C115,482 119,480 121,483 L123,483 C124,483 123,485 125,486 C126,485 127,487 127,488 L127,494 C129,495 128,497 128,498 L127,498 L126,496 C128,495 126,494 127,492 C125,492 125,491 125,490 L125,489 L124,491 C124,491 125,491 125,492 C124,493 126,495 124,494 C124,495 123,496 124,497 C124,497 124,498 125,498 L125,497 C126,497 126,498 126,498 C126,499 127,499 127,499 L127,498 C131,497 135,496 138,494 C143,493 149,491 155,491 C155,490 157,490 157,490 C158,490 159,490 160,490 C160,488 162,489 163,489 C163,491 165,489 166,490 C167,490 168,489 169,489 C169,489 170,489 170,488 C172,489 174,489 176,488 C177,489 178,488 179,488 C179,488 179,488 179,487 C180,488 180,488 180,488 L181,488 L180,487 C180,486 181,488 182,487 C183,487 185,485 186,487 C187,487 188,486 189,487 C189,486 191,486 191,486 L192,486 C192,484 193,487 193,486 L194,487 C195,487 194,486 194,486 L194,486 C196,486 196,485 197,486 C198,485 200,486 201,486 C200,486 201,485 201,485 C202,485 202,485 203,486 L203,484 L204,485 C205,483 207,484 210,485 C210,484 210,484 210,483 C210,485 213,483 213,485 C213,484 213,484 213,483 C214,483 214,484 215,483 C216,481 217,482 219,482 C219,482 219,483 220,482 C220,483 220,484 222,484 C220,483 221,482 221,481 L221,481 L222,482 L223,481 C223,482 224,481 225,481 L225,481 C226,481 227,482 228,481 L228,481 C230,481 232,481 233,479 C234,480 235,481 236,480 C237,480 238,480 239,480 C240,478 242,480 242,478 C244,480 247,478 248,479 C248,479 249,480 250,479 C250,480 250,480 251,480 L251,480 C252,479 250,479 251,478 C252,479 253,478 254,479 L254,478 C255,478 256,478 257,477 L258,478 C259,477 261,478 262,477 L263,478 C264,475 267,479 269,478 C269,479 270,477 270,478 L271,478 L270,477 C272,477 273,477 274,477 C275,475 277,477 279,476 C281,476 284,475 286,476 C287,476 287,474 288,475 C289,478 291,471 292,475 C293,474 294,475 295,475 C294,474 295,474 295,474 L302,475 L303,473 C303,474 305,475 306,474 C306,473 307,474 307,473 C307,472 308,472 308,472 C309,472 310,473 311,472 C312,473 313,473 314,472 L321,472 C322,471 323,472 324,472 C324,472 324,471 325,471 C325,471 325,471 325,472 C326,471 326,470 327,471 C327,472 328,472 329,473 C329,472 329,472 329,472 L330,472 C329,470 332,471 332,470 C334,472 334,468 335,470 C337,469 338,470 338,468 C341,470 343,467 345,469 C346,468 345,466 347,468 L347,468 C348,465 349,468 350,466 C351,466 351,467 352,468 C352,467 352,468 353,468 C353,467 353,467 353,466 C355,466 357,467 358,466 L359,465 C360,467 361,466 363,465 C364,465 365,467 366,464 C366,465 367,465 368,464 L369,466 C369,464 370,464 370,463 C371,464 373,463 374,463 C375,463 377,463 378,463 C379,463 381,462 383,463 C383,462 382,461 383,461 C384,461 384,461 384,462 L384,462 L385,462 C384,462 385,461 386,461 C386,462 386,461 387,461 L390,462 C392,461 393,462 395,461 L396,461 C396,462 397,461 398,461 C398,461 397,460 398,460 C399,461 401,459 401,461 C402,461 403,461 405,460 L405,461 C405,461 405,461 405,462 L406,462 C406,461 406,460 407,460 C409,460 409,460 410,460 C410,459 412,458 412,459 L412,459 C413,457 411,459 410,457 C411,457 411,455 412,456 C412,454 413,456 413,455 C414,455 413,453 415,452 L415,454 C417,454 418,457 419,458 L418,458 L415,461 C416,461 418,460 420,460 C421,458 417,457 419,455 C421,456 422,459 424,457 L425,458 L425,457 C424,458 424,456 423,457 L425,455 C424,454 426,453 424,453 L424,452 C422,454 420,450 418,451 L418,450 L418,451 C416,451 415,453 414,452 C416,451 412,451 414,449 C415,452 417,448 419,449 L420,449 L421,450 L422,448 C421,450 423,450 423,452 C423,451 423,450 423,450 C423,449 424,449 424,449 C424,448 424,448 424,447 L424,447 C425,447 424,448 425,448 L426,446 C425,446 425,446 425,446 C424,446 424,445 425,445 C424,444 424,445 424,445 C423,446 423,443 422,445 L422,446 C422,447 420,446 421,445 C421,445 421,445 420,445 L420,445 C421,445 422,441 423,443 L424,443 L421,442 C421,443 421,443 421,443 L419,443 C419,443 419,443 418,444 L418,443 L417,441 L418,441 L418,440 C420,440 419,442 420,442 C422,442 421,439 423,440 C426,442 429,439 433,440 C435,437 437,442 439,439 C439,440 440,437 441,439 C442,439 443,438 443,439 L444,440 C444,439 444,439 445,439 C446,439 448,438 450,439 C449,438 450,438 451,437 C451,438 452,437 453,438 L453,437 C454,436 456,436 456,437 C458,436 460,436 462,436 C463,435 464,437 465,437 C466,437 468,437 470,436 C470,435 469,434 469,434 C469,434 469,434 470,434 L470,433 C469,432 470,430 468,430 L469,429 C469,430 469,431 470,431 C471,429 470,428 472,426 C471,425 471,427 470,426 C472,425 470,425 470,424 C471,424 472,422 472,422 L471,421 C472,422 473,420 474,421 C474,420 475,420 475,419 C476,419 477,421 478,419 C476,418 481,416 480,415 C478,417 477,415 477,416 C475,416 478,413 475,412 C476,412 476,413 477,413 L477,412 C478,412 480,412 481,413 L482,412 L481,411 L482,411 L484,411 C484,412 484,413 484,413 C482,415 487,414 486,416 L485,416 L485,418 C483,418 485,417 484,417 C483,417 483,418 483,419 C481,419 480,421 477,420 C475,422 480,423 478,425 C477,426 475,424 476,427 L475,426 C474,427 476,430 474,432 C474,431 475,430 474,429 C474,429 474,430 473,430 C473,429 474,428 474,427 C474,426 474,426 474,426 C473,429 472,428 472,431 C472,433 474,434 473,435 L474,435 C472,435 472,436 473,436 C474,436 475,437 476,437 C477,437 477,436 477,436 C477,437 477,437 477,438 C480,439 481,436 482,437 C491,437 500,438 509,438 C511,437 513,438 515,438 C517,438 519,438 522,438 C522,437 524,439 525,438 C527,437 530,438 533,438 C535,439 537,437 538,438 L537,437 C538,437 538,437 538,437 C540,438 544,440 546,439 L546,439 C550,439 554,439 558,440 C561,438 565,440 568,439 C569,439 567,438 569,438 L569,439 C570,437 571,439 572,439 C573,440 574,439 574,439 C578,440 582,439 586,439 L586,440 C589,438 591,441 593,440 C594,440 595,440 596,439 C597,439 599,438 600,439 C601,439 603,439 605,439 C606,438 608,440 609,438 C612,440 615,439 619,440 C620,438 623,440 625,440 L625,439 C629,440 632,439 636,440 C637,439 638,441 640,439 C641,439 643,440 644,440 C645,439 646,442 647,441 C649,441 651,440 652,441 C655,440 657,442 660,441 L660,442 C661,441 663,442 664,440 C668,439 671,442 676,441 C677,439 679,441 680,441 C682,441 682,441 683,442 C682,444 679,443 676,444 C676,445 675,445 675,445 C674,445 674,444 674,444 C672,445 670,445 669,446 L666,446 C667,446 666,447 666,447 C665,447 665,446 664,447 L665,448 L666,447 C667,448 669,446 670,447 C671,448 673,446 674,447 C675,446 676,448 678,448 C678,450 681,447 681,449 C682,449 683,449 684,449 C684,450 683,450 683,451 C682,449 681,451 680,451 C677,451 674,452 671,453 C671,453 671,452 671,451 C669,450 668,453 667,452 C669,453 670,453 672,454 C673,452 675,454 676,453 C676,455 678,454 679,455 C680,455 681,454 682,455 L683,453 C683,454 685,455 686,457 C684,459 682,456 680,458 C680,457 680,457 679,457 L679,457 C679,458 680,458 680,459 L679,459 C679,458 678,459 678,458 C678,457 677,457 676,457 L676,458 C677,458 678,458 678,459 C678,460 677,460 677,461 L676,460 C676,463 674,460 673,461 C672,461 669,462 666,461 C666,460 665,461 665,461 C664,460 662,459 664,458 C664,457 666,459 666,457 L661,456 C660,456 658,455 657,456 C656,455 654,457 654,455 C652,456 651,456 650,456 C649,456 649,455 649,455 C648,455 648,456 647,455 L647,456 L646,455 C644,456 641,456 639,456 L638,457 C637,456 638,454 637,455 C637,457 635,455 634,455 C634,455 634,454 635,454 C635,454 636,454 635,454 L636,454 C636,453 636,453 635,453 L634,453 L633,451 C632,454 631,450 631,452 L632,454 L631,454 C632,455 632,454 633,455 L631,457 C631,456 630,456 630,456 L631,455 C629,457 627,454 626,455 C625,456 625,455 624,456 C625,458 622,457 622,459 C622,457 622,456 622,455 C620,456 619,455 618,454 C617,455 617,459 616,456 C615,454 613,456 612,454 C611,455 609,455 608,455 L608,455 C608,455 607,455 607,456 C607,455 607,455 607,454 C605,454 605,457 603,455 C602,455 600,455 599,455 L599,455 C598,456 597,453 596,455 C596,454 595,454 594,454 C593,454 592,456 591,454 L591,453 L591,454 L590,453 C587,457 583,453 579,454 C577,453 575,454 573,453 C569,454 566,452 561,453 C559,453 557,451 556,453 C554,453 552,453 551,453 C548,454 545,453 542,454 C539,454 536,455 534,454 L534,453 C534,454 533,454 533,454 C533,457 530,453 528,455 C528,452 525,454 523,453 C520,453 517,455 515,454 C514,454 514,454 514,454 C511,454 508,453 505,454 C505,453 504,454 503,453 L502,454 L501,453 C498,453 495,454 492,454 C491,455 489,453 488,454 C487,454 487,454 487,455 C487,456 489,455 490,456 C490,455 491,456 492,455 C495,455 497,457 499,458 L501,457 L501,458 C502,458 502,457 503,457 C503,459 504,457 504,458 C505,459 506,458 507,458 C507,457 506,457 506,457 L506,457 C507,455 507,458 508,458 C508,458 508,456 509,457 C510,458 511,458 512,459 C513,459 513,456 514,458 L515,456 C517,456 519,456 521,457 C522,457 522,456 523,455 L523,455 C523,456 525,456 524,457 C526,455 529,458 531,458 C528,459 524,459 522,460 L522,460 C518,460 514,460 510,460 C508,461 506,461 505,462 C504,461 503,462 502,462 C497,461 491,464 485,463 C484,465 483,462 482,464 C482,467 484,465 485,466 C487,468 489,466 491,466 L491,466 L492,466 L492,467 C495,466 497,469 499,468 C501,469 505,468 507,470 C509,470 511,470 513,470 C516,473 518,469 521,471 C523,471 523,468 525,471 C525,472 527,471 528,471 C530,470 533,471 535,473 L535,472 L536,472 C536,474 538,474 538,475 L540,475 L538,473 C538,473 539,472 540,473 L540,473 L538,472 C538,471 540,471 540,470 C542,469 543,472 544,470 C546,469 549,470 551,470 C552,470 551,472 552,471 C553,470 553,470 554,469 C555,470 557,470 558,471 L558,470 C559,470 560,471 561,470 L562,470 C562,469 563,470 564,470 C568,470 574,471 578,471 C580,472 583,472 585,473 C586,472 588,473 589,472 C591,473 594,471 596,472 C597,472 597,471 598,472 C598,473 597,474 597,475 C595,475 593,474 592,477 C594,478 595,475 597,476 C598,475 600,475 601,476 C601,477 603,477 603,478 C603,477 604,476 604,476 C606,477 607,476 609,477 C609,475 610,476 612,475 C613,474 615,476 617,475 C618,476 620,476 622,476 L622,476 C624,476 625,475 627,476 C630,478 633,479 635,478 L635,478 C636,477 637,478 637,478 L638,477 C639,478 639,479 638,480 C638,480 637,479 637,480 C637,482 638,479 639,480 C639,478 639,477 640,476 C641,477 640,477 641,478 C644,478 640,474 644,476 C644,474 647,475 647,473 L648,474 C648,473 649,474 649,474 C650,474 649,476 651,475 C651,475 649,474 651,473 C652,474 653,475 652,476 C652,477 653,476 653,477 L654,477 C652,477 653,475 652,474 C652,473 653,473 654,472 C654,473 655,473 655,474 L653,475 C655,476 655,472 657,473 C659,473 661,473 662,474 C662,474 663,473 663,474 C666,474 669,474 672,476 C676,474 677,479 681,478 C682,480 685,477 686,480 C688,479 690,478 693,478 C695,478 697,479 699,478 C701,478 704,476 706,479 C707,479 708,479 707,477 C708,477 709,478 711,478 C712,477 714,479 716,477 C717,478 718,479 719,478 L721,481 C723,479 726,480 728,480 C730,481 730,483 732,484 L733,485 C733,484 734,483 734,483 C737,485 740,486 743,484 C745,483 746,480 748,482 C748,482 750,482 750,481 C751,482 752,482 753,481 C754,480 755,481 756,481 C758,480 761,479 763,480 C764,479 765,480 766,480 C768,480 770,484 772,480 C773,481 775,481 775,483 C777,485 775,488 778,488 C779,489 780,491 782,491 C782,488 786,489 785,485 C788,484 785,479 787,477 C787,475 789,474 788,472 C786,471 786,469 787,468 C788,465 787,461 787,458 C786,458 787,456 787,455 C786,455 785,456 785,456 C782,453 787,452 785,449 C782,449 779,451 776,453 C774,452 776,454 775,455 C774,455 772,456 771,456 C770,457 769,456 768,456 C769,454 770,453 769,451 C768,450 768,448 768,447 C770,446 772,447 774,447 C776,447 780,448 782,446 C784,446 785,446 785,444 C790,444 789,439 791,436 C793,431 793,426 793,420 L792,420 L793,419 L793,418 C794,416 795,414 794,413 L793,412 C795,409 795,406 795,403 C795,399 794,395 794,391 C793,387 797,384 795,380 C796,378 797,375 796,373 C797,362 794,353 796,343 C796,340 796,338 796,336 C796,329 799,322 796,315 C797,313 797,311 795,309 C796,300 794,291 795,281 C796,280 795,278 795,277 C796,271 795,266 795,261 C794,261 792,262 791,263 C788,265 784,261 782,265 C778,266 781,272 780,276 C782,277 781,280 781,282 C782,287 777,286 776,290 L774,287 L772,289 C771,292 773,293 773,295 C775,295 776,295 778,294 C778,295 778,296 778,296 C777,295 775,297 774,296 L773,296 C775,298 772,298 772,299 C773,300 773,301 774,300 C773,301 773,301 773,301 L772,299 L772,298 C772,296 770,299 769,298 C768,298 768,299 769,299 L768,299 L767,297 L769,297 C770,295 770,292 769,291 C768,289 769,287 768,287 C766,288 766,288 765,289 C763,287 761,287 758,287 C758,287 757,289 758,290 L757,290 C757,290 757,290 757,291 C758,293 756,292 755,293 C753,292 752,296 750,295 C749,296 750,296 750,297 C749,297 749,296 748,297 L748,298 C747,298 747,297 746,297 L745,300 L743,298 C743,299 741,300 742,301 C741,301 741,302 740,301 C738,302 738,303 738,305 C738,305 737,304 736,305 C736,304 736,304 736,303 C736,304 737,304 737,303 C738,300 735,302 735,301 C734,301 733,301 733,302 C732,301 731,302 730,301 L729,302 L729,303 C730,303 733,303 733,305 L729,305 L729,307 C728,305 726,306 724,305 C722,306 721,307 719,307 C717,309 716,305 713,307 C711,309 708,307 705,308 C704,308 703,307 702,309 C700,308 698,309 698,310 L697,309 C695,311 691,309 690,311 L690,310 L689,310 C688,309 688,311 688,312 C687,312 688,313 687,314 C689,315 686,314 686,316 C686,315 686,314 686,313 C685,314 683,313 682,315 C682,314 683,313 682,313 C680,313 680,315 679,316 L678,315 C677,314 676,319 675,316 L674,317 C670,313 670,320 667,320 C666,320 667,321 666,321 L665,319 C664,319 663,318 661,319 C660,318 659,320 657,320 C656,319 654,320 653,321 C651,320 649,320 647,320 C646,322 644,321 644,320 C642,322 640,321 638,321 C637,324 635,320 634,322 C632,321 631,322 630,322 C628,321 626,322 625,322 C624,321 622,323 621,323 C617,322 613,323 609,322 C609,323 607,322 606,322 C598,324 592,323 584,324 C582,324 579,322 578,322 L579,322 L578,322 L577,322 C577,323 577,323 576,322 L576,323 C574,323 573,323 572,323 C569,322 566,323 563,323 C561,322 559,324 558,322 C556,323 551,322 548,322 C547,323 545,321 544,322 C541,322 539,322 537,321 L536,322 C532,322 528,323 523,322 C521,320 520,323 518,322 C517,323 515,320 515,322 C508,325 501,320 494,322 C492,323 488,323 487,322 C485,323 482,324 480,323 C480,322 478,325 477,323 C476,323 474,322 473,324 C470,324 467,324 464,324 C458,326 452,323 447,325 C446,326 445,326 443,325 C441,327 439,324 436,326 C435,324 434,327 432,325 C431,326 430,325 429,326 C430,326 430,326 431,327 C430,326 427,327 426,328 C426,327 425,326 424,326 C424,327 424,328 424,329 C425,329 425,329 425,328 L425,328 L428,330 L428,329 L428,330 C427,332 429,332 429,332 C429,332 429,332 429,333 L431,333 C432,335 435,334 435,336 C437,333 439,335 441,335 C443,337 445,334 447,335 C448,335 450,334 451,335 C452,335 452,335 452,334 C453,335 455,334 456,335 C459,334 462,334 464,334 C467,333 470,335 471,332 C472,333 472,332 473,333 C473,332 474,332 474,331 L475,332 L476,332 L477,332 C477,332 477,332 478,332 C480,332 482,332 483,330 C484,331 483,331 484,331 C488,328 491,332 495,330 L496,332 C498,332 498,329 499,330 L499,330 C500,332 500,330 501,331 L501,331 C501,331 501,331 501,332 C502,332 503,331 503,331 L508,331 C508,334 511,332 511,334 C512,335 513,334 513,334 C515,333 516,336 518,336 C518,338 519,337 520,337 C522,336 523,336 525,336 C524,337 526,336 527,337 L527,337 L528,337 C528,337 528,338 529,338 L529,337 C530,337 531,336 532,338 C532,337 532,337 532,337 C534,337 536,338 537,337 C539,341 542,337 545,337 C543,337 544,339 544,340 L544,339 C543,339 543,339 542,340 L541,339 C540,339 540,340 540,341 C538,341 537,340 535,340 C533,338 533,342 530,341 C527,343 524,341 522,344 C520,344 519,348 518,345 C517,346 515,347 516,348 C517,347 518,348 518,348 L518,348 L521,348 C519,348 517,349 517,351 C515,351 515,351 513,350 C513,351 512,351 513,352 C513,354 514,352 515,352 C516,352 515,353 515,354 L514,354 C513,357 510,353 508,356 C507,358 505,357 504,356 C502,356 502,358 500,357 C500,357 500,357 500,358 C499,358 498,360 498,359 C497,360 497,359 496,358 L496,359 L495,359 C494,361 494,356 492,358 C492,357 490,357 490,357 C488,357 487,359 487,360 L487,359 L487,358 L483,356 C482,358 481,356 478,357 C474,355 471,358 468,356 C467,356 467,357 467,357 C466,357 466,358 466,359 C465,358 466,357 466,356 C465,354 463,355 462,355 C460,355 458,355 456,354 C453,354 451,352 448,352 C444,349 447,355 446,356 C444,355 444,357 442,357 L442,359 C442,359 442,359 441,358 C440,357 438,358 437,359 C438,359 438,361 439,360 C440,360 441,359 441,361 C439,359 436,363 434,360 L434,360 C434,360 433,361 434,361 C433,361 433,363 432,362 C430,363 433,364 433,365 C434,366 434,365 435,365 L435,367 L433,366 C432,368 434,368 435,369 L435,369 C435,370 435,370 436,370 L436,371 L435,370 C434,371 435,372 435,372 C434,372 434,372 434,372 C434,373 433,373 433,373 C433,373 433,372 432,372 C433,372 433,372 434,371 L433,370 C432,370 431,369 430,370 L431,372 L429,373 L428,371 C429,371 429,372 429,371 L427,370 C426,370 426,371 426,371 L428,372 C427,374 428,375 426,375 C427,378 424,378 423,380 C424,383 422,384 424,386 C424,386 424,386 424,385 C423,384 424,383 425,383 L426,384 C426,385 426,386 426,386 C425,386 424,387 425,388 C425,388 425,388 425,389 L426,389 L425,389 L424,388 C423,389 425,390 424,391 C424,394 422,391 420,392 C420,393 419,391 418,393 C418,391 417,394 416,392 C415,393 413,391 412,392 L413,394 C412,393 412,392 412,391 C409,392 411,389 409,388 L408,388 C408,388 408,388 408,389 L408,389 L408,388 C408,387 407,386 408,385 C408,386 408,386 409,387 L409,386 C411,387 410,389 412,391 L412,389 C413,389 413,391 414,392 C415,391 416,391 416,390 C416,392 418,390 418,391 C420,391 421,392 422,391 L420,389 C420,387 416,387 417,384 C417,383 416,383 416,383 C415,383 414,383 414,383 L414,383 C413,382 412,382 411,382 L411,383 C409,381 411,380 411,378 C411,376 409,376 408,375 C408,375 407,376 406,375 C407,377 406,378 407,379 C407,379 408,379 408,380 C407,380 407,379 407,379 C407,379 406,379 406,378 C406,375 405,375 403,374 C401,374 400,373 398,373 C396,377 395,372 393,372 C392,375 388,374 386,375 C385,376 384,379 383,377 C382,377 382,378 382,378 C381,378 380,379 380,379 C378,381 376,378 374,377 C374,379 372,379 373,380 L371,381 L371,380 C372,380 372,380 372,380 L370,378 C368,379 370,382 368,383 C368,383 368,383 368,384 C368,383 369,383 369,383 C369,385 370,384 371,384 C372,384 372,383 372,382 C374,383 377,380 378,383 C378,383 378,383 378,382 C380,381 383,383 385,383 C387,382 388,382 390,382 C392,383 394,381 396,382 C397,381 398,383 399,382 C400,382 402,380 403,381 C403,381 404,381 404,380 L405,381 C405,383 403,384 402,384 C402,384 402,384 401,384 L401,386 C399,385 399,387 398,386 C396,387 395,387 394,389 L394,389 C395,389 395,389 396,388 C397,392 400,387 401,390 C402,389 402,392 403,391 L403,389 C405,389 405,391 406,391 C407,392 408,392 409,393 C408,394 406,393 406,395 L408,396 C407,396 407,397 406,396 L406,396 C406,394 404,396 404,395 L404,394 C403,392 402,396 401,393 C400,394 400,395 401,396 C401,397 400,396 400,397 C399,396 399,395 399,394 C397,392 395,396 394,395 C396,396 394,397 395,398 L393,397 L394,396 C394,396 394,395 393,395 C392,395 391,396 390,395 C389,396 390,397 389,398 C389,397 390,396 388,396 L388,397 C386,396 386,399 386,400 C386,401 386,402 387,402 C387,401 387,401 387,401 C389,401 389,402 391,402 C393,401 395,402 397,401 C398,402 398,401 399,402 C401,400 401,404 402,402 C402,404 404,403 404,403 C405,405 402,406 404,407 C403,409 399,405 399,409 C398,408 399,408 398,407 L397,409 C397,407 395,408 394,407 C392,407 389,405 386,406 C385,404 384,408 383,407 C382,407 383,407 383,406 C382,406 382,406 382,406 C382,406 381,406 381,407 C382,407 381,408 381,409 C380,408 378,408 377,409 C377,410 376,412 377,412 L378,412 L382,412 C382,411 382,411 382,411 L383,411 C383,411 383,411 382,411 L382,412 C384,413 385,412 386,412 C389,412 388,415 390,416 C389,419 392,417 393,418 L393,420 C394,420 394,421 395,421 C396,421 397,420 398,420 C400,421 401,418 402,418 C404,418 403,416 403,415 C404,415 405,416 405,415 C404,414 403,415 403,414 C404,414 405,411 407,413 C409,412 407,410 407,409 C407,407 410,409 410,407 L408,407 C409,407 409,405 409,405 C408,406 407,405 406,405 L406,406 C404,405 405,403 406,402 L407,403 C407,402 410,403 410,401 C409,401 410,402 410,402 C411,401 413,401 414,399 C412,399 412,396 413,396 C414,396 414,394 414,394 C415,393 415,395 415,395 L417,394 L418,394 C419,395 416,399 419,399 C419,399 418,400 419,401 C420,401 421,400 420,398 C422,399 422,398 422,397 C422,397 422,397 423,398 L423,396 C424,396 426,396 426,397 L426,397 C425,397 426,398 426,399 C425,398 425,396 424,397 L425,398 L424,397 C423,399 422,398 421,399 C421,400 422,400 422,400 C423,401 423,400 424,400 L425,401 C425,402 425,401 426,401 L425,403 C425,404 424,402 424,404 C422,405 420,403 418,404 L418,405 C417,402 416,406 414,404 C412,405 414,406 413,408 L412,408 C411,408 411,408 411,409 C412,411 413,411 414,410 C416,413 417,408 418,409 L419,407 C419,409 420,407 421,407 L422,408 L421,407 L420,408 C424,409 419,412 421,413 L421,412 L422,412 C423,413 423,415 424,416 C425,414 426,415 427,415 C427,416 428,416 428,417 L429,417 C429,418 431,419 432,419 C430,420 428,418 426,420 C425,422 426,423 427,425 C426,428 425,424 423,423 C422,424 423,425 422,425 C422,426 421,427 422,428 L421,428 C421,427 421,427 421,426 C420,426 420,426 419,426 L422,430 L420,432 C420,432 420,432 421,432 L421,433 C421,433 420,433 420,434 C420,434 421,434 421,435 C420,435 420,435 420,435 L418,434 C419,434 419,434 419,433 C419,433 419,433 418,432 L419,431 C420,431 420,430 419,430 C418,430 418,430 418,430 L418,431 L417,432 C417,432 417,433 418,433 C417,433 417,434 417,434 L417,435 C416,435 415,434 414,436 C414,436 414,436 415,436 L413,436 L413,435 C414,434 411,432 412,430 C412,430 411,429 410,430 L410,429 C410,429 410,429 409,429 C410,430 410,430 410,430 C410,431 411,432 411,434 L410,434 L409,433 C409,434 409,435 409,437 C404,435 412,433 407,430 C407,431 406,432 406,431 C406,430 408,430 408,428 C408,428 409,429 409,428 L409,428 L410,428 C409,427 409,426 408,426 L408,424 L411,425 C413,420 408,423 407,422 C406,424 405,422 404,422 C404,422 403,423 404,423 C404,423 405,425 406,424 L407,426 C406,428 404,426 403,427 C403,429 403,432 404,433 C403,433 402,431 401,430 C401,430 399,430 399,429 L402,429 C402,428 402,428 402,427 C402,425 401,426 400,426 L400,424 C399,424 399,421 397,422 C393,422 396,428 392,427 C392,429 394,430 393,431 C392,432 389,431 388,432 C388,431 390,429 388,428 C388,428 388,428 387,429 C387,428 384,430 385,428 C386,427 386,428 387,428 C386,427 387,426 387,425 C388,422 385,422 384,420 C382,421 383,417 382,419 L382,420 L381,420 L381,421 C381,420 380,421 379,421 L380,423 L379,422 L380,420 C380,418 380,421 381,420 C381,420 382,419 381,419 C380,418 380,417 381,417 C380,418 378,416 377,417 C377,417 375,418 375,417 C375,416 374,416 375,416 L374,415 C372,413 373,412 374,411 C371,409 369,412 366,410 C364,412 365,413 364,415 C363,414 364,414 364,413 C363,412 362,411 361,411 C362,410 360,409 360,408 C358,410 356,409 355,409 C354,409 353,411 353,410 L352,410 C350,408 348,412 346,410 L346,411 C345,413 342,410 342,413 L341,412 C340,414 336,411 336,414 C335,413 334,412 334,413 C334,414 335,414 334,415 L334,415 C333,415 333,416 333,416 L332,415 C332,415 330,416 330,417 C326,416 326,421 322,419 C319,417 318,422 314,422 C312,421 309,423 307,423 L307,424 C291,425 273,429 256,427 L256,428 C248,428 239,428 232,431 C231,431 231,429 230,429 C229,430 227,431 225,431 L225,431 L222,432 L222,433 L221,433 C220,431 223,431 223,430 L222,429 C216,431 207,428 201,430 C200,430 199,429 199,430 C198,431 199,432 200,432 C199,433 199,433 198,433 C197,433 198,431 198,430 C197,428 194,430 193,429 C192,430 190,428 190,430 L190,430 C189,428 187,431 186,429 C183,431 179,427 178,430 L176,429 C168,431 160,428 152,428 C150,428 148,426 146,428 C146,427 144,427 143,427 C140,424 136,428 133,426 C130,428 128,422 124,425 C122,424 119,424 118,424 C114,426 112,424 109,424 C109,424 112,424 109,424 L109,424 M414,408 L414,408 M422,410 L422,410 L422,409 L422,410 M398,413 L398,413 M391,397 L390,397 L391,397 M392,399 L392,399 C392,398 392,398 392,398 L392,399 M399,388 L399,388 L399,387 L399,388 M407,390 C407,389 405,388 405,388 C406,388 407,389 407,390 C407,390 407,389 407,390 L407,390 M423,396 C422,396 422,397 422,396 C422,396 422,396 422,395 L422,394 L423,396 M439,331 L438,331 L439,331 M469,327 C468,327 467,327 467,326 C467,326 469,325 469,327 C469,327 469,325 469,327 L469,327 M474,326 L474,329 C474,327 474,330 472,329 C472,328 473,328 473,328 C472,328 472,327 472,328 C471,325 473,328 473,326 L474,328 L474,327 C474,327 474,327 474,326 L474,326 M482,328 L481,329 L480,329 C481,328 481,328 482,328 C482,328 481,328 482,328 L482,328 M508,330 C507,329 507,330 506,329 C507,329 507,328 508,328 L508,330 M522,329 L520,328 L522,328 L522,329 M528,333 C529,332 530,332 531,332 C532,334 529,334 528,333 C528,333 529,334 528,333 L528,333 M533,333 L532,333 C532,333 532,333 533,333 L533,333 M774,399 C773,400 772,400 771,400 C772,400 772,398 773,397 L774,399 M775,302 L775,301 L775,300 L775,302 M782,417 C782,416 783,416 784,416 C784,417 785,418 783,417 C784,417 783,417 783,417 L783,418 C782,417 782,418 782,417 L782,417 M772,416 C773,415 774,417 774,418 C775,418 774,417 775,416 C775,417 775,418 775,418 L774,418 C773,418 773,416 772,416 C772,416 773,416 772,416 L772,416 M771,409 C770,408 771,408 772,407 C774,408 775,406 777,407 C779,406 782,406 784,405 C786,407 787,406 788,406 L788,406 C786,408 786,410 782,411 C782,412 783,413 783,413 C783,414 782,415 782,414 C780,414 779,414 778,412 C778,413 779,413 779,414 C778,414 778,414 778,414 C778,414 778,413 777,412 L778,412 C778,411 778,411 778,410 C777,411 777,411 777,412 C776,411 776,413 776,413 L775,413 C775,413 775,413 775,414 L775,414 C773,414 772,411 771,409 C771,409 772,411 771,409 L771,409 M770,418 C770,418 771,418 771,417 L771,418 L770,418 M770,350 C770,350 771,349 772,350 L770,350 M765,298 C764,297 763,298 762,297 C763,296 766,296 765,298 C765,298 766,296 765,298 L765,298 M765,400 L765,401 L764,401 L765,400 M766,360 C766,360 766,360 765,360 L765,361 C765,360 765,360 765,360 L766,359 L766,360 M766,362 L765,362 C765,362 766,361 766,362 C766,362 766,361 766,362 L766,362 M766,367 L764,365 C765,365 765,363 765,363 C766,364 765,365 765,366 L765,366 C766,366 766,366 766,366 C766,366 766,368 766,367 C766,367 766,368 766,367 L766,367 M768,413 L766,413 L768,413 M764,448 L764,448 L764,449 L764,448 M762,417 C762,415 765,417 765,416 L766,417 C766,417 767,417 767,416 L769,418 L767,418 C766,417 764,416 762,417 C762,417 764,416 762,417 L762,417 M761,401 L763,401 L761,401 M607,474 C605,474 604,473 604,472 C605,473 606,473 607,474 C607,474 606,473 607,474 L607,474 M624,466 C623,465 624,466 625,465 C626,466 624,466 624,466 L624,466 M631,459 L629,459 C630,457 628,458 628,458 L628,457 C629,458 630,458 630,458 C630,458 631,458 630,457 L631,459 M643,459 L640,459 C639,460 639,460 638,459 L637,460 L636,459 C636,460 635,459 634,459 C633,459 632,459 632,458 L631,458 C632,456 635,458 637,457 C637,458 639,457 639,459 C640,460 640,457 640,458 C641,458 643,458 643,459 C643,459 643,458 643,459 L643,459 M647,458 L647,457 L648,457 C649,458 647,458 647,458 L647,458 M651,462 C651,463 652,463 652,463 C650,464 648,464 646,464 C645,463 644,465 643,464 C641,466 639,464 638,463 C637,464 638,464 638,465 L636,466 C633,466 629,466 626,467 L627,467 C627,466 626,467 626,466 C627,466 628,464 629,463 L627,464 L628,463 L629,463 L630,461 L631,462 C633,462 635,463 637,463 C638,461 640,464 642,462 C644,464 648,462 651,462 C651,462 648,462 651,462 L651,462 M651,459 L653,459 C652,460 652,461 651,460 C651,460 650,458 652,458 C652,458 652,458 651,459 C651,459 652,458 651,459 L651,459 M656,458 L654,459 L654,458 C654,456 657,458 656,458 C656,458 657,458 656,458 L656,458 M663,459 L662,459 C660,458 658,460 657,458 C659,457 662,457 663,459 C663,459 662,457 663,459 L663,459 M676,472 L676,473 C675,473 675,473 675,473 C675,472 675,472 676,472 C676,472 675,472 676,472 L676,472 M681,459 L680,459 C680,458 681,458 681,458 L681,459 M477,434 L477,433 L477,434 M477,429 L476,430 C477,429 477,428 477,428 L477,429 M481,434 L481,434 M483,435 L483,434 L484,435 L483,435 M484,432 L484,432 L483,431 L484,432 M426,428 L425,428 C425,427 426,428 426,427 L426,428 M427,431 L426,431 L427,430 L427,431 M433,405 L433,408 C433,409 433,408 432,408 L432,409 C431,409 430,408 429,408 C428,409 426,408 425,410 C424,409 424,409 424,408 C424,408 425,408 426,408 C429,409 430,404 433,405 C433,405 430,404 433,405 L433,405 M433,420 L433,419 L438,418 L438,420 C438,421 436,419 437,421 C436,420 434,421 433,420 C433,420 434,421 433,420 L433,420 M438,431 L438,432 L437,432 L438,431 M439,414 L440,413 L440,415 C440,414 440,414 439,414 C439,414 440,414 439,414 L439,414 M439,408 L438,408 L439,408 L440,407 C440,408 439,408 439,408 L439,408 M437,414 L437,414 C438,414 438,414 438,414 L438,414 L437,414 M435,408 C436,407 436,407 437,407 L437,408 C436,408 436,408 435,408 C435,408 436,408 435,408 L435,408 M435,388 C434,388 434,389 433,389 C432,388 431,391 430,389 L430,390 C428,389 428,388 427,386 L428,386 C427,385 429,385 428,384 L430,386 L430,385 L431,385 C431,384 433,385 434,386 C435,387 435,387 435,388 C435,388 435,387 435,388 L435,388 M435,374 L434,374 L434,373 C435,373 435,373 435,374 C435,374 435,373 435,374 L435,374 M438,395 C437,396 439,397 439,397 C438,397 438,399 437,398 C437,397 437,395 438,395 C438,395 437,395 438,395 L438,395 M440,370 C441,370 441,368 442,370 C442,371 441,370 440,370 C439,370 439,370 439,369 C439,369 439,370 440,370 C440,370 439,370 440,370 L440,370 M441,388 L441,387 L441,388 M442,396 L443,396 L441,396 L442,396 M442,364 L441,363 L441,364 L440,364 C441,363 441,362 442,364 C442,364 441,362 442,364 L442,364 M443,361 C443,361 442,361 442,360 C442,361 443,359 443,361 C443,361 443,359 443,361 L443,361 M451,368 L450,368 L451,368 M450,391 C451,391 451,393 451,393 C450,393 449,392 449,391 L450,391 M460,361 C459,361 460,364 457,363 C458,362 459,363 459,362 L458,361 C459,360 458,359 458,359 L460,361 M462,368 L461,367 C460,368 461,369 462,369 C461,369 460,370 460,369 L460,369 C460,367 459,369 459,369 L458,367 L458,368 C457,368 457,368 457,368 C456,368 456,368 456,369 C455,367 453,369 452,368 C452,367 453,367 454,366 C456,367 459,366 461,365 C463,366 461,367 462,368 C462,368 461,367 462,368 L462,368 M453,389 L453,389 L452,388 L453,389 M455,384 C455,383 455,383 454,383 L457,381 C457,380 456,380 456,380 C456,381 456,381 456,381 L454,380 C455,379 456,381 457,380 C458,381 459,380 459,381 L459,381 C458,383 457,383 456,384 C457,384 457,385 457,385 L457,385 C457,386 457,387 456,386 C456,385 455,386 455,385 C455,384 455,384 455,384 L455,384 M463,393 L463,393 C462,393 462,393 462,393 L461,394 C461,394 459,395 460,393 C460,393 461,393 461,392 L461,393 L463,393 M464,393 L464,393 C463,393 463,393 463,393 C464,393 464,393 464,393 L464,393 M466,364 L466,365 L465,364 L466,364 M466,369 L466,369 L466,368 C466,368 466,368 466,369 C466,369 466,368 466,369 L466,369 M466,379 L465,379 L465,378 C465,377 466,379 466,379 L466,379 M467,381 C467,382 466,382 466,382 L466,381 L467,381 M469,384 C468,385 467,385 466,385 L466,385 C466,385 465,385 465,384 C465,385 464,385 464,385 L464,384 C465,384 465,384 465,384 C465,384 466,384 466,385 C466,384 466,384 466,384 L466,384 C467,383 468,384 469,384 C469,384 468,384 469,384 L469,384 M468,381 L468,381 C468,381 468,380 469,380 C468,381 468,382 468,381 L468,381 M481,361 C480,361 480,363 480,363 C480,363 480,363 478,362 C478,364 476,362 475,363 L476,364 C475,364 475,365 474,365 C474,364 474,363 474,362 C473,362 474,363 473,363 C470,362 474,365 473,366 L472,365 C470,366 469,365 467,364 L469,364 C470,363 472,363 472,361 C474,363 473,358 475,358 C475,359 475,359 475,359 C477,358 478,361 481,361 C481,361 478,361 481,361 L481,361 M473,379 L472,380 C471,380 470,381 469,380 C470,377 472,379 473,379 C473,379 472,379 473,379 L473,379 M470,372 L470,371 L470,372 M474,366 L474,366 L474,367 L474,366 M483,363 L483,365 L482,364 C482,364 483,364 483,363 C483,363 483,364 483,363 L483,363 M487,362 L485,362 C485,360 487,361 487,362 C487,362 487,361 487,362 L487,362 M487,365 L487,365 C487,365 487,365 487,364 L487,365 M494,362 C493,361 493,363 492,362 C492,361 493,361 493,361 L494,362 M513,357 C512,357 512,357 511,357 C512,357 513,356 513,357 C513,357 513,356 513,357 L513,357 M516,363 C515,361 513,364 512,363 C507,365 501,363 496,363 C496,362 497,363 497,362 C501,361 506,361 510,360 C512,361 512,358 513,360 C512,361 511,361 511,362 C512,363 512,360 513,361 C514,359 515,362 516,362 L516,363 M500,371 L501,371 L500,371 M515,373 L515,374 C515,374 515,374 515,373 L515,373 M517,361 L517,361 L517,360 L517,361 M518,359 C518,360 517,359 517,359 C518,359 518,359 518,359 L518,359 M522,372 C525,370 527,370 529,372 L529,374 L530,375 C531,374 532,372 531,371 C532,370 533,371 534,371 C535,371 538,372 538,370 C537,371 540,372 539,373 C537,372 537,375 537,376 L536,375 C536,373 534,373 533,373 C533,374 533,374 533,374 C533,375 532,375 532,376 L534,376 L534,377 L533,377 C533,377 533,377 533,376 C532,378 531,376 530,376 C528,376 529,378 528,379 C528,379 528,378 527,378 C526,378 527,379 526,380 C526,378 525,379 524,380 L524,380 C523,381 522,380 521,381 C517,380 511,380 506,378 C505,380 503,378 502,379 L502,381 C502,382 503,382 504,382 C504,383 503,383 503,383 L503,383 L502,382 C501,381 499,382 498,383 L497,383 C498,384 499,379 501,381 C502,381 501,380 501,380 L502,379 C501,376 499,380 498,379 C498,379 497,379 498,379 C496,379 494,378 493,378 L493,379 C491,380 490,379 489,378 L489,379 L489,380 C488,380 489,379 489,379 L489,379 C489,379 489,378 488,378 C487,378 488,379 488,379 C487,379 487,380 487,381 C487,380 486,380 486,380 C485,378 485,376 485,375 L490,374 L491,375 C492,373 490,375 490,372 C488,370 486,372 485,373 C484,372 486,371 484,370 C484,370 484,370 483,371 C482,370 481,369 481,369 L481,371 C481,371 480,372 480,371 C478,371 480,372 478,372 C477,372 477,372 476,372 C475,373 474,373 474,373 L474,373 C474,373 474,373 473,373 L473,371 C474,371 474,372 474,373 L474,373 C474,372 474,371 475,371 C474,370 474,370 474,369 C474,368 475,367 476,369 C478,368 478,369 480,368 L480,368 L481,366 C481,369 482,367 483,367 C486,370 487,367 490,368 C491,368 491,368 491,367 C493,368 495,369 498,368 L498,369 L499,369 C498,371 499,371 500,373 C501,372 502,374 503,372 C504,374 505,372 506,372 C508,373 510,372 511,373 C514,372 515,377 518,375 L517,373 L518,374 C518,372 520,374 520,372 C520,372 522,373 522,372 C522,372 522,373 522,372 L522,372 M484,378 L483,379 C483,378 482,378 482,377 C483,376 484,377 484,378 C484,378 484,377 484,378 L484,378 M483,372 L483,371 L484,373 L483,372 M501,383 L501,383 M533,366 L533,366 L533,365 L533,366 M524,368 L524,368 L525,368 L524,368 M521,356 L522,357 C521,358 521,357 521,356 C521,356 521,357 521,356 L521,356 M522,350 L521,350 C521,350 520,350 520,349 C521,349 521,350 522,350 C522,350 521,350 522,350 L522,350 M525,356 L522,355 C522,354 522,354 522,353 C522,353 521,353 521,352 L521,352 C521,353 522,353 522,353 C523,354 526,353 525,356 C525,356 526,353 525,356 L525,356 M525,352 C525,351 524,351 525,351 C525,351 525,351 525,352 C525,352 525,351 525,352 L525,352 M527,349 C526,350 525,349 524,349 C524,347 526,350 527,349 C527,349 526,350 527,349 L527,349 M535,357 L535,358 C535,357 533,358 534,358 C532,359 532,360 531,358 L531,360 C531,360 531,359 530,359 C530,359 529,359 529,360 L528,359 C526,359 528,357 528,356 C528,356 526,355 526,354 C528,356 530,353 532,354 C532,355 532,355 532,355 C532,357 534,356 535,357 C535,357 534,356 535,357 L535,357 M541,359 C540,360 541,360 542,360 C541,361 539,360 539,362 C539,361 538,361 537,360 C537,362 535,362 534,362 L534,361 C536,360 539,360 541,359 C541,359 539,360 541,359 L541,359 M542,371 L543,372 C542,373 542,373 541,373 L541,372 L542,371 M536,348 L536,348 L536,347 L536,348 M539,348 C539,347 538,348 538,347 C538,346 540,347 539,348 C539,348 540,347 539,348 L539,348 M543,357 C540,356 538,359 536,357 C537,355 541,356 543,354 C543,355 544,356 543,357 C543,357 544,356 543,357 L543,357 M546,380 C545,381 543,382 541,382 C541,382 541,382 541,383 C540,382 538,383 537,381 C535,384 535,379 533,381 L532,378 C533,379 534,378 535,378 C535,377 535,376 536,375 C536,377 534,378 535,380 L536,379 L537,380 C537,377 538,379 539,378 C541,378 542,379 544,378 C543,380 546,379 546,380 C546,380 546,379 546,380 L546,380 M536,386 L535,388 L535,387 L536,386 M538,385 C537,385 536,385 536,385 C536,384 538,384 538,385 C538,385 538,384 538,385 L538,385 M548,354 L548,356 C548,356 548,356 547,356 C547,356 546,357 545,356 C546,354 547,355 548,354 C548,354 547,355 548,354 L548,354 M548,373 L547,372 L548,372 L548,373 M548,379 L548,380 L547,379 L548,379 M551,377 L552,378 C551,378 551,380 550,380 C550,379 549,379 549,378 C549,378 550,377 551,377 C551,377 550,377 551,377 L551,377 M558,337 C556,337 554,341 551,339 L551,337 C552,337 554,335 555,337 L555,336 C556,336 557,337 558,337 C558,337 557,337 558,337 L558,337 M554,363 L555,363 L554,364 L554,363 M561,341 L561,342 C560,340 558,342 558,341 C559,341 560,340 561,341 C561,341 560,340 561,341 L561,341 M563,354 L563,355 L562,355 C562,354 563,354 563,354 L563,354 M563,336 C563,334 565,336 565,335 C566,337 564,335 563,336 C563,336 564,335 563,336 L563,336 M568,346 L567,347 C567,347 567,347 566,347 C567,346 567,346 568,346 C568,346 567,346 568,346 L568,346 M568,336 L567,335 L568,336 M569,343 L568,343 C568,343 568,343 568,342 C568,342 568,343 569,343 C569,343 568,343 569,343 L569,343 M569,328 L568,329 L568,328 L569,328 M571,336 L570,336 L570,335 C570,335 571,335 571,336 C571,336 571,335 571,336 L571,336 M572,340 C571,340 571,341 570,340 C571,340 571,340 572,340 C572,340 571,340 572,340 L572,340 M579,335 L577,336 C576,334 575,337 574,335 L574,335 C575,335 578,335 579,335 C579,335 578,335 579,335 L579,335 M576,353 L575,352 L577,354 C578,353 580,353 581,354 C581,355 580,355 580,355 C578,353 576,354 574,354 L574,354 L576,353 M581,335 L580,335 L581,334 L581,335 M586,342 L585,342 C585,341 587,341 586,342 C586,342 587,341 586,342 L586,342 M587,351 L587,352 C586,352 585,351 585,352 C585,351 586,351 587,351 C587,351 586,351 587,351 L587,351 M586,334 L585,335 L585,334 L586,334 M587,344 C586,344 586,345 585,344 C585,343 587,343 587,344 C587,344 587,343 587,344 L587,344 M590,343 L590,344 L589,344 C589,343 590,343 590,343 L590,343 M591,351 L590,350 C590,349 591,350 591,349 L591,351 M593,355 L592,355 C589,354 587,356 585,354 L586,354 C586,353 589,353 590,353 L591,353 C592,353 593,353 593,355 C593,355 593,353 593,355 L593,355 M588,368 L588,368 L587,369 L588,368 M593,360 L591,360 C590,359 592,359 593,360 C593,360 592,359 593,360 L593,360 M595,365 C595,365 596,365 596,366 L594,366 C593,365 594,365 595,365 C595,365 594,365 595,365 L595,365 M597,353 C597,354 599,355 598,356 C597,356 596,356 595,355 C595,354 595,353 597,353 C597,353 595,353 597,353 L597,353 M597,358 L597,359 L596,359 L597,358 M598,354 L598,353 L598,354 M599,352 L596,352 C597,351 598,352 599,352 C599,352 598,352 599,352 L599,352 M599,327 C599,326 600,327 600,326 C601,328 599,326 599,327 C599,327 599,326 599,327 L599,327 M601,346 C600,347 599,349 598,348 L597,347 C598,346 600,346 601,346 C601,346 600,346 601,346 L601,346 M603,355 C602,355 600,356 599,355 C600,355 599,353 600,353 C600,355 602,354 603,354 L603,355 M606,363 L605,363 L606,362 L606,363 M607,365 L607,364 C608,365 607,366 609,367 C608,367 607,366 607,366 L606,366 L606,365 C606,365 606,365 607,366 L607,365 M607,353 C608,355 609,353 610,354 L610,355 C609,354 607,354 607,355 L607,355 C606,354 607,354 607,353 C607,353 607,354 607,353 L607,353 M611,356 L611,356 L610,357 C610,357 609,357 609,356 C610,356 610,356 611,356 L611,356 M611,364 L611,364 L610,364 L611,364 M616,342 C614,342 611,341 609,340 C609,340 608,341 608,340 L608,339 C610,338 612,337 614,337 C615,339 616,340 616,342 C616,342 616,340 616,342 L616,342 M614,347 C614,348 614,349 615,349 L614,350 C613,351 613,349 612,349 L614,347 M618,339 L620,338 C620,340 619,339 618,339 C618,339 619,339 618,339 L618,339 M624,339 L624,340 L623,339 L624,339 M633,348 C632,350 631,349 630,350 C626,349 622,350 618,349 C618,349 618,349 618,348 C619,349 619,348 620,348 C622,350 625,347 627,348 C629,349 631,347 633,348 C633,348 631,347 633,348 L633,348 M620,357 C620,357 621,357 621,358 L620,358 C620,358 620,358 620,357 C620,357 620,358 620,357 L620,357 M631,364 L631,363 C630,363 630,364 630,364 L629,363 C628,363 628,365 628,365 C628,364 628,364 628,363 L628,364 L628,363 C628,363 628,362 628,361 C627,358 631,359 632,361 C632,362 630,362 631,364 C631,364 630,362 631,364 L631,364 M627,352 L627,352 C627,351 628,351 628,351 C628,352 628,352 627,352 C627,352 628,352 627,352 L627,352 M627,370 L627,370 L627,369 C628,370 627,370 627,370 L627,370 M632,336 L632,338 L631,336 C632,335 632,336 632,336 L632,336 M637,328 L636,329 C637,329 636,330 636,329 C634,328 634,331 632,329 C633,328 635,329 637,328 C637,328 635,329 637,328 L637,328 M645,328 C644,328 644,329 643,328 C642,329 642,329 642,329 L641,328 C642,327 644,329 645,327 L645,328 M645,345 L645,345 L643,346 L645,345 M646,349 C646,349 645,351 645,350 C645,350 644,350 644,351 C644,350 644,350 644,350 C645,350 645,349 646,349 C646,349 645,349 646,349 L646,349 M647,345 C646,346 646,344 646,344 C647,344 647,345 647,345 L647,345 M651,353 C652,353 653,354 654,353 C656,354 657,353 658,354 C658,353 658,353 658,353 L663,353 C664,354 662,354 662,355 L662,354 C661,355 659,354 659,356 C659,353 656,356 656,354 C652,356 649,356 645,356 C644,356 645,358 644,357 C643,357 642,357 642,359 C644,363 646,357 648,361 C649,359 652,359 654,358 C654,359 654,359 653,360 C652,360 649,361 648,362 C646,363 645,362 644,363 C643,362 642,363 641,363 C640,361 640,363 640,363 L640,363 L639,362 C637,363 635,361 634,362 L634,362 C633,362 633,360 633,360 C634,356 637,362 639,359 C640,357 638,357 637,355 C635,356 635,356 633,358 C633,354 637,355 638,355 C639,353 641,356 642,354 C643,354 645,353 645,355 L645,355 C646,355 648,354 648,355 C650,355 650,353 651,353 C651,353 650,353 651,353 L651,353 M640,364 C640,365 640,366 640,367 L639,366 C639,365 640,365 640,364 C640,364 640,365 640,364 L640,364 M642,366 L642,366 C642,365 642,366 643,366 C645,363 649,364 652,363 L653,364 C652,365 652,364 651,365 L650,364 C649,363 649,364 649,365 C647,366 643,366 642,366 C642,366 643,366 642,366 L642,366 M643,369 L642,370 L643,369 M653,368 L654,369 L653,370 L653,369 L651,369 C652,369 652,368 653,368 C653,368 652,368 653,368 L653,368 M655,368 L655,369 L654,368 L655,368 M658,363 C657,361 656,360 656,359 L655,360 C655,359 658,357 659,359 C661,357 664,360 667,361 C668,362 666,364 667,365 C666,366 665,364 664,365 C662,366 663,363 661,364 C660,364 660,365 660,365 C659,364 658,364 656,365 L656,364 C657,363 657,363 658,363 C658,363 657,363 658,363 L658,363 M658,368 L659,368 C659,369 658,369 658,368 C658,369 657,369 657,368 L658,368 M658,346 C657,346 656,346 656,346 C656,346 656,346 655,345 L655,346 C655,346 655,347 654,346 C653,346 650,347 650,345 C651,343 654,343 655,345 C656,345 657,345 658,345 L658,346 M659,351 C660,350 660,350 662,350 C661,352 660,350 660,351 L657,351 C658,351 658,349 657,349 L658,349 C659,348 658,348 658,347 C660,348 657,350 659,351 C659,351 657,350 659,351 L659,351 M666,333 L665,333 C665,333 664,332 665,332 L666,333 M667,344 C664,344 662,346 659,345 L659,344 C661,342 663,344 666,342 C666,343 667,343 667,344 C667,344 667,343 667,344 L667,344 M666,348 L666,348 L665,348 L666,348 M667,333 C667,334 666,332 667,333 L667,333 M670,351 C670,351 669,351 669,352 C671,352 672,352 672,350 C672,352 674,351 674,353 C674,354 673,353 672,353 C670,352 670,355 668,356 C667,355 666,356 665,355 C662,353 667,352 666,349 L667,351 C668,351 669,351 670,351 C670,351 669,351 670,351 L670,351 M669,357 L669,358 L669,357 M670,365 C670,365 670,366 670,367 L668,366 L670,365 M671,362 C670,362 670,363 669,362 L669,361 C670,362 670,362 671,362 C671,362 670,362 671,362 L671,362 M670,369 C669,368 670,372 668,371 C668,370 669,370 669,369 L669,369 C670,369 670,369 670,369 L670,369 M673,356 L674,356 L674,357 L673,357 C673,356 674,356 673,356 L673,356 M676,373 L676,373 C676,374 674,375 673,374 C673,374 672,374 672,373 C673,373 675,373 676,373 C676,373 675,373 676,373 L676,373 M674,343 L673,343 L674,342 L674,343 M672,319 L672,319 L671,319 L672,319 M672,332 L674,332 C674,333 673,333 672,333 L672,333 C672,332 672,332 672,331 L669,331 C670,331 672,330 673,331 L672,332 M676,339 L675,339 C674,338 673,340 674,339 L673,338 L672,340 L673,341 L672,341 C671,341 671,339 671,338 C673,338 674,338 676,338 L676,339 M675,357 L676,356 C678,357 676,358 675,357 C675,357 676,358 675,357 L675,357 M683,351 L682,351 C682,354 685,353 686,354 C687,352 688,355 690,354 C691,356 691,353 692,354 L692,355 C693,355 692,357 694,356 C694,356 695,355 695,354 C696,353 696,355 697,354 C699,356 700,356 702,355 C702,353 700,354 700,352 C700,354 700,353 699,354 C696,352 700,354 699,351 C701,351 703,355 706,353 C706,352 707,353 708,352 C709,353 708,355 709,356 C711,354 710,359 712,358 C713,362 709,360 709,363 L708,362 L706,364 C706,362 707,360 707,358 L707,359 L708,358 C707,357 708,357 707,356 L705,357 C703,355 700,356 698,356 C698,357 697,357 698,357 L696,356 L696,357 C694,358 695,358 693,358 C691,360 689,357 687,357 C688,356 689,358 690,358 C691,354 686,356 686,354 C685,355 684,355 684,354 L683,355 C683,354 682,354 682,353 C682,354 682,354 682,355 L681,355 C683,351 678,354 677,353 C677,352 677,352 677,351 C679,351 681,350 683,351 C683,351 681,350 683,351 L683,351 M679,357 L679,359 L679,358 L679,357 M681,358 L682,359 C681,359 680,359 680,359 C680,358 680,357 680,357 C681,357 681,358 681,358 L681,358 M680,355 L681,354 L681,355 L680,355 M686,357 C685,359 684,359 683,359 C683,357 685,357 686,357 C686,357 685,357 686,357 L686,357 M692,360 C693,361 692,361 691,361 C691,360 692,360 692,360 L692,360 M694,359 L695,360 C694,360 694,362 693,362 L694,359 M699,361 C698,361 697,362 697,360 C697,360 698,360 699,361 C699,361 698,360 699,361 L699,361 M701,359 L701,360 C701,358 700,360 699,359 C700,359 701,358 701,359 C701,359 701,358 701,359 L701,359 M704,366 L703,366 L704,366 M718,363 C716,362 718,361 716,360 C715,358 714,359 713,360 C713,360 712,359 713,359 C714,359 714,358 715,357 C716,357 718,355 719,357 C719,358 720,358 719,359 L718,359 C716,360 718,362 718,363 C718,363 718,362 718,363 L718,363 M721,361 L722,362 C722,363 721,363 721,364 C720,364 720,364 719,364 L719,363 C720,364 721,362 721,361 C721,361 721,362 721,361 L721,361 M716,339 L714,339 C713,339 714,338 714,337 C714,338 715,339 716,338 L716,339 M715,327 C716,326 716,327 717,327 L717,327 C717,327 717,327 718,327 L718,328 C718,327 717,327 717,327 L717,327 C716,327 715,327 715,327 L715,327 M712,349 L711,349 C711,349 710,350 710,349 C709,348 710,348 710,347 C709,347 708,348 709,347 C709,346 709,347 709,347 L710,346 C711,348 712,347 714,348 L714,349 C713,349 712,349 712,349 L712,349 M709,338 L708,340 L707,339 C707,340 707,340 707,340 L706,340 C707,339 708,339 709,338 C709,338 708,339 709,338 L709,338 M705,328 L704,327 L704,326 L705,327 C706,326 707,328 709,328 C707,328 706,327 705,328 C705,328 706,327 705,328 L705,328 M696,351 C696,351 696,350 696,349 C697,350 696,351 696,351 L696,351 M694,350 L695,350 L694,350 M688,351 L690,351 C691,348 692,351 693,351 L693,351 C692,349 692,353 690,351 C690,352 690,352 690,352 C688,353 688,351 687,350 L686,350 L686,351 C686,350 686,350 687,350 L687,350 L688,350 L688,351 M683,339 L683,338 C682,339 681,337 681,338 C681,339 680,339 680,339 L680,338 C680,338 680,337 679,337 C680,337 682,337 683,338 C683,338 683,338 683,339 C683,339 683,338 683,339 L683,339 M690,341 L689,342 C686,342 684,342 682,343 C681,343 681,342 680,343 C680,340 683,342 684,340 C684,340 685,340 686,340 L686,341 C687,340 689,341 690,341 C690,341 689,341 690,341 L690,341 M689,318 L689,318 C688,318 688,317 688,317 L689,318 M691,330 L690,331 C688,331 688,330 688,329 C689,328 690,330 691,330 C691,330 690,330 691,330 L691,330 M691,336 L691,336 L691,337 L690,336 L691,336 M695,340 C695,342 694,342 693,342 C693,341 691,342 691,340 C692,340 694,339 695,340 C695,340 694,339 695,340 L695,340 M695,317 L695,317 L695,316 L695,317 M696,342 L696,342 L696,340 C696,341 697,341 696,342 C696,342 697,341 696,342 L696,342 M701,340 L701,340 C700,340 700,341 700,341 L700,341 C699,341 700,340 700,340 C700,341 701,339 701,340 C701,340 701,339 701,340 L701,340 M705,343 C706,345 707,346 707,347 L706,346 L705,347 C704,347 704,346 703,346 L703,347 L702,346 C700,348 699,347 697,346 C696,348 694,345 693,347 C693,346 693,345 692,345 C691,347 689,345 689,347 L687,348 L687,349 L686,347 C685,345 688,343 688,346 C689,344 691,346 692,345 C693,343 694,346 695,344 L695,345 C696,343 697,345 699,345 C701,344 702,344 705,343 C705,343 702,344 705,343 L705,343 M704,338 C703,339 704,341 702,340 C703,340 702,338 704,338 C704,338 702,338 704,338 L704,338 M733,314 L731,314 C732,314 732,314 733,314 C733,314 732,314 733,314 L733,314 M733,310 L732,310 C733,309 733,309 733,309 L733,310 M736,310 C736,310 735,310 735,309 C735,309 736,309 736,310 C736,310 736,309 736,310 L736,310 M746,318 C744,318 744,321 743,322 L741,321 C741,321 741,321 741,322 L740,321 C740,322 740,322 740,322 C739,322 739,322 738,322 C738,322 739,322 739,323 L738,323 C738,320 735,321 734,321 C732,321 730,321 729,321 L728,320 C727,321 726,321 727,322 L726,321 L725,321 C725,321 726,321 726,322 L724,322 C723,320 723,324 722,323 C722,324 721,326 723,327 L723,327 C723,327 723,326 724,326 L724,327 C723,327 723,327 723,327 C722,327 722,327 722,327 C722,326 721,325 721,324 C720,326 719,324 718,325 C717,320 715,327 713,324 L712,325 C712,324 712,324 712,324 C712,325 710,326 712,326 L711,326 L708,326 C707,324 710,325 711,324 C710,320 707,323 706,322 L705,322 C704,322 703,322 703,322 L704,321 C708,323 708,317 711,319 C710,318 711,317 710,317 C709,317 708,318 708,318 L708,317 C707,316 707,317 707,318 L706,317 L707,316 C708,316 710,315 711,316 C712,315 713,316 714,316 C716,314 718,315 720,314 C722,314 722,316 723,315 C724,317 725,314 726,316 C729,314 726,319 730,318 C732,316 734,319 736,316 C735,315 733,316 733,314 C735,314 736,313 737,315 L736,315 L736,316 C737,316 738,316 738,315 C739,316 741,316 742,316 L742,317 C742,318 742,318 743,318 C743,318 745,317 746,318 C746,318 745,317 746,318 L746,318 M719,340 C718,339 718,338 718,338 C719,338 720,339 719,340 C719,340 720,339 719,340 L719,340 M725,338 L725,339 L724,339 C724,338 724,338 725,338 C725,338 724,338 725,338 L725,338 M738,328 C736,329 737,331 736,332 C734,327 733,332 730,330 C733,329 735,329 738,327 L739,329 C738,330 739,331 739,331 C738,331 738,332 738,331 C739,331 738,329 738,328 C738,328 738,329 738,328 L738,328 M739,338 C737,337 737,338 736,339 C736,339 736,340 735,339 C732,340 729,336 726,339 C725,339 726,338 726,337 C727,336 728,337 729,337 L730,336 L731,338 C733,336 736,337 738,335 C738,337 740,336 739,338 C739,338 740,336 739,338 L739,338 M747,343 C748,344 748,346 749,346 C749,347 748,346 748,346 C748,345 747,345 746,344 L746,345 C746,344 746,343 747,343 C747,343 746,343 747,343 L747,343 M749,318 C749,319 748,319 747,318 L749,318 M751,344 L751,344 C750,344 750,344 750,344 L751,344 M752,299 L752,300 C751,300 751,300 751,299 L752,299 M753,351 L752,351 C752,350 752,350 753,350 L753,351 M755,351 L754,351 C754,350 755,349 755,349 L755,351 M760,297 C759,297 758,297 757,297 C757,297 757,297 756,297 C757,297 757,297 757,297 C758,296 759,296 760,297 C760,297 759,296 760,297 L760,297 M758,355 L758,357 C756,357 757,355 757,354 L758,355 M757,351 L757,350 L758,351 L757,351 M758,362 C757,362 757,360 758,359 C758,359 758,359 758,358 L758,359 C758,360 760,359 760,360 C760,360 760,360 759,360 C759,360 758,361 758,362 C758,362 758,361 758,362 L758,362 M757,401 C757,401 757,401 758,401 L758,403 C758,402 757,401 757,401 L757,401 M754,453 C754,452 754,452 755,452 L754,453 M754,414 C754,413 754,413 755,413 L755,414 L754,414 M749,417 L749,417 C749,418 750,419 751,418 C752,419 751,419 751,420 C750,419 749,419 749,417 C749,417 749,419 749,417 L749,417 M748,451 L748,450 L748,452 L748,451 M742,416 C742,416 744,415 744,417 C743,416 742,417 742,416 C742,416 742,417 742,416 L742,416 M737,416 C738,416 738,415 739,415 L739,416 C738,417 738,416 737,416 C737,416 738,416 737,416 L737,416 M733,462 C734,462 734,461 734,461 C735,462 734,463 734,463 C733,463 734,462 733,462 C733,462 734,462 733,462 L733,462 M732,414 C732,413 732,413 732,413 C732,413 733,413 733,414 C732,414 732,414 732,414 L732,414 M731,453 L732,455 C731,455 731,454 731,453 C731,453 731,454 731,453 L731,453 M730,373 C728,375 728,370 725,371 C724,372 726,372 726,373 C724,373 723,371 722,372 C720,373 719,372 718,371 C717,371 717,372 717,372 L716,371 C716,372 716,374 716,373 C715,373 715,373 715,374 L715,374 C714,374 714,375 713,376 C711,373 710,375 708,375 L709,375 C709,374 709,374 709,373 C710,372 712,374 713,373 C712,373 711,370 710,372 C708,372 705,371 706,370 C705,370 705,371 704,371 C704,370 704,370 704,369 C703,370 704,371 703,371 L702,370 C703,370 704,369 704,369 C706,370 704,367 705,366 C706,367 705,368 705,369 C706,369 708,369 709,370 L709,370 C710,371 711,369 712,369 C713,368 713,368 713,366 C712,366 711,365 710,365 L712,365 C713,363 714,366 715,364 C716,365 717,368 718,366 L720,368 C721,368 721,366 723,367 C723,365 725,365 724,363 L724,363 L726,361 C724,360 723,360 721,360 C722,359 719,359 720,357 L721,357 C721,358 722,358 722,359 C724,359 724,357 724,355 C725,355 726,356 726,355 C726,354 725,354 724,353 L725,353 C726,354 726,353 728,352 L728,355 L729,355 L729,354 L732,354 C732,352 731,351 732,350 C730,347 728,349 726,348 C724,348 723,350 721,348 C719,348 720,350 720,351 L719,351 L719,350 C718,348 717,350 717,350 C717,348 715,351 715,349 C717,350 717,346 718,349 C719,345 723,350 722,345 C722,346 723,345 724,346 C725,347 727,347 727,345 C730,346 732,343 734,341 C737,341 738,339 740,340 C744,340 742,342 743,344 C745,344 745,345 746,346 C746,348 748,348 748,350 C749,350 749,349 749,349 L750,350 C750,351 750,351 751,351 L750,352 C751,354 754,354 754,354 L754,354 L753,357 C754,357 755,358 755,357 C755,357 754,356 755,355 L756,356 C755,356 755,357 755,357 C755,358 756,359 756,358 C757,359 757,361 755,361 C755,363 754,361 753,363 C750,362 753,367 750,366 C749,365 751,364 749,364 C750,366 748,366 747,367 C746,367 743,368 742,370 C743,372 742,372 743,374 C744,375 745,373 746,373 L744,375 C743,373 742,377 742,377 L742,377 L741,377 L742,378 C740,379 742,381 740,382 C739,382 739,381 739,380 C739,379 738,380 737,379 C735,376 732,377 730,373 C730,373 732,377 730,373 L730,373 M725,352 L725,352 L724,351 L725,352 M716,416 L717,417 C716,417 716,417 716,416 L716,416 M719,380 C716,379 717,377 718,375 C718,377 719,376 720,376 C721,379 723,375 724,376 C724,377 724,379 724,380 C722,381 721,379 719,380 C719,380 721,379 719,380 L719,380 M721,415 C721,415 720,415 720,414 C720,414 721,414 721,415 C721,415 721,414 721,415 L721,415 M729,380 C728,381 726,381 725,379 C726,379 726,379 726,379 C728,380 728,378 728,377 C729,378 729,378 730,378 C731,378 730,380 729,380 C729,380 730,380 729,380 L729,380 M729,402 C729,401 729,401 729,401 C729,401 729,401 730,402 L729,402 M717,465 C714,466 716,462 714,461 L712,461 C713,461 714,461 714,461 L717,461 C719,461 717,464 719,464 C721,462 722,465 723,464 L723,464 C722,465 721,465 720,464 C719,464 718,464 717,465 C717,465 718,464 717,465 L717,465 M709,470 C709,469 710,468 711,468 C713,470 713,467 715,466 L715,468 C716,468 717,470 719,468 C719,469 719,470 719,470 L718,470 C717,470 716,469 715,470 C715,469 715,469 715,469 L713,471 C712,469 711,471 709,471 L709,470 M707,468 C707,467 707,466 708,466 C710,467 712,465 713,466 C712,466 712,468 711,467 C710,469 708,466 707,468 C707,468 708,466 707,468 L707,468 M708,454 C709,454 709,454 710,454 L710,455 C709,454 708,455 708,454 C708,454 708,455 708,454 L708,454 M707,469 L708,468 L708,469 L707,469 M706,457 C706,456 706,455 706,455 C707,456 706,456 707,457 C706,457 706,457 706,457 L706,457 M707,456 L707,455 L707,456 M706,467 L705,467 L705,466 C705,466 705,466 706,466 L706,467 M704,468 L705,468 C705,467 704,469 704,468 C704,468 704,469 704,468 L704,468 M702,469 C702,469 703,469 703,468 L703,469 L702,469 M698,449 C699,449 699,448 699,449 C699,448 700,449 700,449 L700,449 C699,450 699,449 698,449 C698,449 699,449 698,449 L698,449 M698,473 C698,473 698,472 697,472 L698,471 L698,473 M700,469 L700,471 L699,471 L699,470 L700,469 M700,461 C701,461 702,461 703,461 L703,462 C702,463 702,463 701,463 C700,462 700,461 700,461 L700,461 M703,452 L703,452 L703,453 C703,453 703,453 703,452 C703,452 703,453 703,452 L703,452 M697,475 C698,473 700,474 701,473 C701,474 698,476 698,476 C698,475 697,475 697,475 L697,475 M695,451 L696,450 L696,451 C696,451 696,451 695,451 C695,451 696,451 695,451 L695,451 M693,470 C694,470 693,469 694,468 L695,470 C695,471 694,471 693,470 C693,470 694,471 693,470 L693,470 M692,443 C694,445 695,440 697,443 C697,442 698,442 698,442 C700,439 703,442 705,443 C706,442 707,444 708,443 L707,445 C707,446 708,445 709,445 C709,444 711,444 710,443 C711,442 713,444 715,443 C716,446 720,443 722,444 L721,446 C723,448 725,449 726,451 L725,451 C726,452 728,453 729,452 L728,453 C728,453 728,453 727,453 C727,455 724,454 725,456 C723,459 720,459 718,459 C717,459 716,458 716,459 C714,458 712,458 709,458 C707,454 712,457 713,454 C713,452 711,454 711,454 C713,450 709,454 708,452 C708,451 708,450 709,450 L709,450 C709,447 707,449 705,448 L707,447 C705,447 704,447 703,447 C702,447 701,446 699,446 L700,445 C700,445 701,446 701,445 C701,443 699,443 698,443 C697,443 698,444 697,445 L696,445 L697,444 L697,443 C696,443 696,443 696,444 L695,443 L695,444 C694,445 694,444 693,443 C692,443 693,445 691,445 C691,444 692,443 692,443 L692,443 M710,399 C711,399 711,400 712,400 L712,400 C711,400 711,399 710,399 C710,399 711,399 710,399 L710,399 M711,416 C709,414 708,418 707,416 C708,416 711,415 711,416 C711,416 711,415 711,416 L711,416 M700,418 C698,417 696,418 695,418 C697,418 699,415 700,417 L700,418 M688,417 L690,417 L691,418 L688,417 M690,444 C689,444 689,445 688,444 L688,443 C689,443 690,444 690,444 L690,444 M687,471 L688,470 C688,471 690,471 690,471 L687,471 M687,379 C686,379 685,380 684,381 C684,380 682,379 683,378 C683,376 685,376 684,374 C684,373 684,371 683,371 C683,372 683,372 683,372 L681,371 C681,370 682,370 681,369 C679,368 678,366 676,367 C676,366 675,367 675,366 C675,366 676,366 676,365 C676,364 674,362 673,363 C674,362 675,363 676,362 L676,361 C676,362 676,362 676,362 C676,363 676,364 677,364 C678,363 679,364 680,362 C681,361 681,364 682,363 C683,364 684,363 685,363 C685,362 685,362 685,362 C687,361 689,364 690,363 L690,362 C691,364 691,365 692,365 C692,365 692,367 693,367 C694,366 694,366 695,365 L695,365 L693,365 L693,364 C694,365 694,365 695,365 L695,365 C695,365 695,365 695,366 C697,365 699,366 700,364 C699,365 701,366 700,367 C699,368 699,366 699,366 C696,366 696,370 693,367 C693,370 690,370 689,371 C689,369 687,372 686,372 C685,373 686,373 687,373 L686,374 L688,375 C689,375 689,375 690,374 L690,375 C691,375 691,374 691,374 C693,372 693,376 694,377 L695,376 C697,376 698,372 700,374 C699,374 698,375 698,376 L699,376 L699,377 C700,378 700,376 702,375 C703,377 706,377 707,376 C709,378 711,377 713,377 C713,379 715,377 716,377 L716,378 C713,379 710,378 707,378 C706,377 704,380 703,378 C702,378 701,378 700,379 C698,380 697,379 696,377 L695,378 C694,377 692,378 692,377 L692,377 C691,377 690,376 689,376 C689,378 687,378 687,379 C687,379 687,378 687,379 L687,379 M689,373 L690,373 C690,373 690,373 689,373 C689,373 690,373 689,373 L689,373 M686,468 L686,468 L686,469 L686,468 M684,442 C685,442 686,442 687,442 L687,442 C686,442 685,443 684,443 L684,442 M680,417 C681,417 681,417 681,417 C682,417 684,418 684,418 C683,419 682,418 681,417 C681,417 681,417 680,417 C680,417 681,417 680,417 L680,417 M671,376 L672,375 C673,377 674,375 675,377 C675,376 675,376 676,376 C676,377 676,377 676,378 C676,380 678,378 679,379 C680,378 679,377 679,376 L680,376 L680,378 C679,379 679,379 679,379 C678,379 679,381 679,382 L679,381 C678,381 677,381 676,382 C675,381 674,382 673,381 C674,380 673,380 674,379 C675,378 674,377 673,376 C673,377 672,376 671,376 C671,376 672,376 671,376 L671,376 M671,365 L671,366 L671,365 M666,373 L666,374 C668,374 670,372 670,371 C672,372 669,375 671,376 C671,376 671,377 670,377 L670,376 C669,377 669,377 669,377 C669,377 668,377 667,376 C669,374 666,375 666,373 C666,373 666,375 666,373 L666,373 M662,418 L662,418 C663,418 664,418 664,417 C665,420 663,418 662,418 C662,418 663,418 662,418 L662,418 M662,383 L662,383 C663,383 663,382 664,382 C664,381 663,380 663,379 C664,381 666,380 665,383 C664,383 663,384 662,383 C662,383 663,384 662,383 L662,383 M661,382 L661,380 L661,382 M653,385 C653,383 655,382 656,383 C656,386 654,384 653,385 C653,385 654,384 653,385 L653,385 M652,417 C653,416 654,418 655,417 C654,419 653,417 652,417 C652,417 653,417 652,417 L652,417 M649,385 L649,385 C650,386 651,384 651,385 C651,385 650,385 649,385 C649,385 650,385 649,385 L649,385 M650,398 C650,399 650,400 650,399 L649,399 L650,398 M644,417 C646,417 647,417 648,417 C648,419 650,417 651,417 C651,418 651,418 651,418 C650,418 649,419 648,419 L648,419 L647,418 L646,418 C645,418 644,417 644,417 L644,417 M642,384 C643,382 645,384 645,382 C646,383 648,382 649,382 C649,383 649,383 649,384 L649,384 C648,383 647,384 646,383 C645,386 643,383 642,384 C642,384 643,383 642,384 L642,384 M641,417 L643,417 L643,418 C643,417 642,418 641,417 C641,417 642,418 641,417 L641,417 M638,419 C639,419 639,419 640,419 L639,419 L638,419 M637,379 C636,377 634,379 634,377 L633,377 L633,376 C633,376 632,376 631,375 C629,377 626,377 624,375 C622,375 621,376 621,375 C619,375 620,377 618,376 C616,376 613,376 611,376 C610,374 610,378 608,376 L608,376 L606,377 C606,376 604,376 605,374 C602,372 606,371 604,370 L606,369 C606,369 606,370 605,370 C605,371 606,372 606,373 C607,371 607,370 607,369 C608,370 607,371 608,370 C608,372 607,370 607,371 C608,372 609,371 610,372 C610,371 612,373 612,372 C613,371 612,370 613,370 L613,372 L614,372 C614,372 614,373 615,373 L615,372 C617,374 619,372 620,374 C621,373 623,373 623,372 L625,374 C626,373 628,371 629,372 C631,372 633,373 634,372 L634,373 L635,372 C637,372 638,374 639,375 C640,375 641,374 642,373 C643,373 644,374 645,374 L645,373 C647,375 648,373 650,373 C654,372 657,372 660,372 C661,373 662,373 663,373 L663,374 L664,372 C664,373 665,373 664,374 L663,374 L662,376 C661,376 661,376 661,376 C660,377 659,374 659,376 C658,377 658,378 658,378 L658,378 C658,379 658,379 658,378 C655,379 654,378 651,378 C651,378 650,377 649,376 L647,376 C646,374 644,377 643,376 C643,377 643,377 643,378 C641,379 638,378 637,379 C637,379 638,378 637,379 L637,379 M605,378 C606,379 605,379 605,380 L605,379 C605,378 605,378 605,378 L605,378 M606,382 C607,383 608,383 609,383 L608,384 C608,383 606,384 606,382 C606,382 606,384 606,382 L606,382 M634,380 L633,380 C633,379 633,380 632,379 C633,379 634,379 634,380 C634,380 634,379 634,380 L634,380 M632,383 L633,383 C634,385 635,382 637,384 C636,384 636,385 635,385 C633,387 633,384 632,383 C632,383 633,384 632,383 L632,383 M629,406 C629,406 630,406 631,405 L631,404 C631,405 631,405 631,405 L630,407 C630,407 630,406 629,406 C629,406 630,406 629,406 L629,406 M627,383 L628,383 L628,384 C629,384 630,385 631,384 L631,384 C631,386 630,384 629,384 L628,386 C627,385 628,384 627,383 C627,383 628,384 627,383 L627,383 M626,402 L626,402 L626,403 L626,402 M620,407 C620,406 621,406 621,406 C623,405 623,406 623,407 L624,407 C623,407 623,407 623,407 C623,406 622,406 622,407 L623,408 C622,409 621,408 621,409 L620,407 M587,390 L588,388 C589,388 590,389 590,388 C592,385 594,388 596,388 C597,386 602,386 604,386 C605,385 606,386 607,385 L614,385 L616,384 C614,383 612,384 611,383 L613,383 C613,382 615,382 615,381 C615,381 615,381 615,380 L615,381 C616,381 616,381 617,381 L617,382 C617,382 617,382 618,382 L618,381 C619,380 621,380 622,380 C624,379 627,379 629,378 C631,380 628,380 628,381 L628,381 C628,381 628,380 629,380 L627,379 L626,382 L625,381 C624,381 623,381 623,382 C621,380 621,383 619,382 C617,383 619,384 618,385 L617,385 C618,386 620,387 621,385 L621,385 L624,386 C622,387 619,386 616,388 C617,384 613,387 611,386 L611,387 L608,387 C607,388 605,387 603,389 C603,387 601,388 599,387 C599,387 598,387 597,388 C595,388 593,390 590,389 C590,388 590,389 590,389 C589,390 588,391 587,390 C587,390 588,391 587,390 L587,390 M596,383 L596,383 C597,383 597,383 597,382 C599,383 600,381 601,383 C600,386 598,382 596,383 C596,383 598,382 596,383 L596,383 M594,383 L593,383 L590,383 C590,380 593,384 594,382 C594,382 595,383 594,383 C594,383 595,383 594,383 L594,383 M583,413 C584,413 585,413 584,411 L585,411 L585,413 C584,413 583,414 583,413 C583,413 583,414 583,413 L583,413 M583,387 L584,385 L584,386 L583,387 M578,384 L579,384 L579,385 L578,384 M577,385 C577,384 577,385 578,385 C577,385 577,385 577,385 L577,385 M572,382 C573,381 572,381 573,380 C573,380 574,380 574,381 L574,380 C576,382 578,381 580,381 C582,379 584,383 586,380 L587,382 L589,381 C588,383 587,384 585,385 C584,385 584,383 583,385 L582,385 C582,384 582,384 581,384 L582,384 C582,383 582,383 582,383 C581,382 579,383 578,382 C576,385 574,379 572,382 C572,382 574,379 572,382 L572,382 M580,375 C581,375 582,376 582,375 C581,378 581,375 580,375 C580,375 581,375 580,375 L580,375 M569,384 L570,385 L570,386 L569,384 M563,415 C563,414 564,415 564,415 C564,416 563,415 563,415 L563,415 M563,385 C563,386 563,387 562,386 L563,385 M561,368 L560,369 C560,367 560,367 561,365 L561,366 L562,366 C563,369 566,365 567,367 C569,367 571,369 574,367 C577,366 578,367 581,367 C582,367 583,366 582,365 C583,364 582,367 583,367 L584,365 L585,365 L584,365 C584,365 584,366 584,367 C584,369 586,369 587,370 C589,368 591,371 594,370 C597,370 600,369 603,370 C603,371 602,372 602,373 C599,372 595,372 592,373 C589,375 588,369 584,372 C583,373 583,373 581,372 C581,373 581,373 581,373 C580,374 578,371 578,373 C577,374 576,372 574,371 C574,372 574,373 573,372 C571,371 569,374 568,372 C567,372 567,372 567,372 L567,373 C567,373 568,373 568,374 L567,373 L567,372 C567,372 567,372 568,371 L568,372 C569,369 571,371 572,371 C573,369 570,371 569,369 C568,371 566,369 564,368 C563,368 562,369 561,368 C561,368 562,369 561,368 L561,368 M561,419 C561,419 561,419 562,419 L561,420 C561,419 561,419 561,419 L561,419 M560,391 C561,390 561,391 561,392 L561,392 C560,392 560,391 560,391 L560,391 M560,385 L560,385 L562,385 L562,386 C561,386 561,385 560,385 L560,385 M559,373 L558,373 C556,372 559,372 559,371 C559,372 561,371 562,372 C561,373 561,372 560,372 C559,373 560,374 559,374 C559,373 559,373 559,373 L559,373 M558,391 C559,391 559,393 559,394 L558,394 C559,393 558,392 558,391 C558,391 558,392 558,391 L558,391 M557,386 C557,385 558,386 559,385 C559,386 558,387 557,386 C557,386 558,387 557,386 L557,386 M557,420 C557,420 557,419 557,418 C557,419 558,419 557,420 L557,420 M552,419 C553,418 554,419 554,419 C553,421 553,419 552,419 C552,419 553,419 552,419 L552,419 M548,414 C548,413 546,413 548,413 L546,412 L548,412 C549,412 549,411 549,410 C549,411 550,411 551,411 L551,410 C552,412 551,410 551,412 L555,412 C555,414 554,414 553,414 L553,414 C552,413 551,414 550,415 L549,413 L548,414 C548,414 549,415 548,415 L548,414 M553,409 L553,409 L554,410 L553,409 M552,391 C552,391 552,392 552,393 L551,393 C552,393 551,392 552,391 C552,391 551,392 552,391 L552,391 M546,395 L546,394 L546,395 M545,419 L546,419 C547,419 547,417 547,417 L548,417 C547,418 547,418 548,419 C547,419 545,420 545,419 C545,419 545,420 545,419 L545,419 M545,424 C545,424 545,424 546,424 L545,425 L545,424 M540,418 C541,418 541,418 542,418 L542,418 L541,419 L542,419 L542,420 C541,419 540,420 540,418 C540,418 540,420 540,418 L540,418 M538,411 C539,410 539,411 539,411 L538,411 M535,419 C536,419 536,418 537,418 L537,418 C536,418 537,420 536,420 C536,420 536,420 535,419 C535,420 535,420 534,420 C534,419 535,419 535,419 L535,419 M535,412 L535,413 L535,412 M534,407 L534,406 L535,406 C535,406 535,406 534,407 C534,407 535,406 534,407 L534,407 M531,396 L530,396 C531,396 532,394 534,394 C533,394 533,396 533,396 C532,397 531,396 531,396 L531,396 M531,408 L528,407 L530,407 L531,408 M527,411 C528,409 529,411 530,410 L530,411 C529,411 528,411 527,411 C527,411 528,411 527,411 L527,411 M526,396 C525,395 528,395 527,397 L527,397 C526,397 526,397 526,396 C526,396 526,397 526,396 L526,396 M522,397 C521,397 523,396 523,395 L524,397 C524,396 523,397 522,397 C522,397 523,397 522,397 L522,397 M521,419 L522,419 L521,419 M519,397 C519,396 520,397 520,397 L519,397 M515,421 C515,421 516,421 515,420 L516,420 L515,421 M513,398 C514,396 517,398 517,396 C518,400 515,395 513,398 C513,398 515,395 513,398 L513,398 M508,398 L510,397 C510,398 511,397 511,398 C512,399 510,399 510,399 L510,398 C509,398 509,398 508,398 C508,398 509,398 508,398 L508,398 M507,419 L508,419 L508,420 L507,419 M503,420 C504,419 505,419 506,419 L505,420 C505,420 506,419 505,419 C505,419 505,420 504,420 L503,420 M496,422 L496,422 L496,424 L496,422 M490,417 C488,416 489,414 489,412 L489,412 L489,411 C489,412 489,412 489,412 C490,413 491,413 492,413 C493,412 493,411 494,411 C494,412 494,412 494,412 L496,414 L494,413 C494,414 494,414 494,415 L493,413 C492,413 492,415 491,415 C491,414 491,414 491,414 C490,415 489,417 490,417 C491,415 491,418 493,419 C493,418 494,418 495,418 C496,416 500,420 501,418 C501,419 501,419 501,420 L500,419 L498,420 C499,420 499,419 498,419 C497,418 496,419 496,420 L497,420 L495,420 L496,420 C495,418 494,420 494,420 C493,418 490,420 490,417 C490,417 490,420 490,417 L490,417 M495,410 L497,410 L495,410 M488,425 L490,424 C489,425 491,425 490,426 C490,425 489,425 488,425 C488,425 489,425 488,425 L488,425 M487,423 C487,422 489,423 489,421 C489,422 489,423 490,423 L490,423 C489,423 488,424 487,424 L488,423 C487,423 487,423 487,423 L487,423 M488,411 L489,410 C489,411 488,412 488,411 C488,411 488,412 488,411 L488,411 M474,397 L473,396 L474,396 C474,397 474,398 474,399 L474,399 C474,398 473,398 474,397 C474,397 473,398 474,397 L474,397 M473,412 C473,412 474,413 474,412 L474,412 L473,414 L473,412 M473,409 C473,410 474,411 473,411 C473,410 473,410 473,409 C473,409 473,410 473,409 L473,409 M471,397 C469,398 473,398 472,399 C471,399 470,399 469,399 C468,398 469,395 471,397 C471,397 469,395 471,397 L471,397 M468,389 C468,389 468,387 467,388 C468,388 468,387 468,386 L469,387 C469,387 469,388 470,388 C470,387 470,387 470,387 C472,385 474,386 476,386 C476,386 477,385 477,384 L474,383 C475,383 476,382 478,383 L477,385 L478,385 C478,385 478,385 478,384 C480,385 481,384 482,384 C482,385 482,385 482,385 C483,386 483,385 484,385 C485,385 487,384 487,386 C488,385 490,387 490,385 L491,386 C492,384 493,387 495,385 C496,387 498,386 499,387 C502,386 506,389 509,386 C509,386 509,388 510,388 C512,386 515,387 516,386 C518,387 519,384 521,387 C522,386 524,387 525,386 C528,384 527,389 529,390 C530,391 532,388 533,391 C533,390 534,391 535,390 C539,389 540,386 545,387 C545,387 546,388 546,387 C549,388 551,385 555,385 C555,385 557,386 556,387 C556,387 555,387 554,387 C552,388 550,387 550,390 C551,391 549,392 550,393 C550,393 547,392 546,393 L546,392 C545,390 543,392 541,391 C539,392 536,392 536,394 L534,394 C534,392 536,392 536,391 C534,391 533,391 531,392 C529,391 526,392 523,391 C522,391 520,390 520,392 C519,393 517,391 516,393 L516,392 C515,392 515,393 515,394 C513,392 511,394 509,394 C507,394 504,394 502,393 L501,394 C500,389 497,393 495,392 L495,393 C493,392 492,394 490,392 L490,394 L488,394 C487,395 488,396 488,397 C489,397 490,396 490,396 L490,397 C490,401 493,398 495,399 C492,401 490,399 489,402 C488,401 487,401 486,400 C486,399 487,399 488,398 C487,398 488,397 487,397 L487,398 C486,397 485,399 485,398 C485,397 485,398 486,397 C486,397 486,396 485,395 C483,395 482,396 480,396 C478,395 476,397 476,395 L474,397 L474,394 L475,395 C477,395 480,394 480,393 C480,393 480,392 478,392 L478,392 L478,391 L478,392 C480,392 480,392 480,392 L480,391 L481,391 L481,390 C481,390 481,390 480,390 L481,387 C478,386 478,388 477,387 L477,388 C475,387 473,391 472,387 L471,389 C470,388 469,390 468,389 C468,389 469,390 468,389 L468,389 M493,397 C492,396 492,396 491,395 C492,394 493,396 493,395 C494,396 493,396 493,397 C493,397 493,396 493,397 L493,397 M466,423 L466,424 L466,423 C467,423 468,422 468,423 L466,423 M466,433 L467,433 C467,434 466,433 466,434 L466,433 M466,429 L466,429 L467,430 L466,429 M465,429 L465,429 L465,431 L465,429 M465,419 C465,419 465,419 466,419 L465,420 C465,420 464,420 465,419 C465,419 464,420 465,419 L465,419 M460,429 C461,429 461,428 461,429 C462,429 461,430 460,430 L460,429 M459,415 L460,414 L460,415 L459,415 M458,419 L458,420 L458,419 M451,401 C450,401 449,399 448,401 C447,401 447,401 447,399 L448,399 C451,402 451,396 454,397 L456,396 C458,397 460,394 462,395 C464,394 465,396 467,396 C468,397 468,399 468,400 C467,400 467,399 466,400 L466,400 L465,400 C464,401 466,401 466,402 C465,403 463,401 463,403 C463,402 461,401 460,401 C459,404 456,399 456,402 C454,401 452,403 451,401 C451,401 452,403 451,401 L451,401 M450,433 L450,434 L449,434 C449,434 450,434 450,433 C450,433 450,434 450,433 L450,433 M451,418 C451,417 451,417 451,417 L451,418 M449,436 L450,435 L451,436 L450,436 C450,436 450,437 449,436 L449,436 M448,420 L448,418 L449,419 C448,419 448,420 448,420 L448,420 M446,436 C447,435 447,436 448,436 L448,436 C448,436 447,436 446,436 C446,436 447,436 446,436 L446,436 M447,391 C446,390 445,390 444,390 C445,390 446,388 447,390 C447,392 448,390 448,391 C447,391 447,392 446,393 L447,391 M446,402 C442,404 438,399 435,401 L435,402 C434,403 433,403 432,402 L432,403 L430,403 C431,402 431,401 430,401 C431,399 432,401 433,399 C435,402 437,400 439,400 C440,398 441,401 442,399 C443,400 445,398 445,400 C445,400 445,399 446,399 C446,400 446,401 446,402 C446,402 446,401 446,402 L446,402 M444,418 L444,419 C444,419 444,418 444,417 C444,417 445,417 445,418 L444,418 M442,438 C443,438 443,438 444,437 L444,439 C444,439 443,438 442,438 C442,438 443,438 442,438 L442,438 M442,433 L442,433 L442,434 L442,433 M435,437 L435,437 C434,435 437,434 436,434 C437,435 437,433 438,433 C438,435 439,433 441,434 C443,437 438,435 438,437 L438,437 C438,436 438,435 437,434 C437,436 436,438 435,437 C435,437 436,438 435,437 L435,437 M434,427 L435,428 L434,428 L434,427 M431,434 C432,435 434,434 433,436 L432,435 C432,436 431,436 431,437 C432,437 432,437 433,437 L433,438 L431,438 C431,437 430,435 431,434 C431,434 430,435 431,434 L431,434 M432,429 C431,428 430,428 430,428 C432,428 432,425 432,424 C432,425 432,427 432,428 L433,428 L432,432 C431,432 431,433 430,433 C431,432 430,431 430,430 C431,430 430,431 431,432 C432,431 432,430 432,429 C432,429 432,430 432,429 L432,429 M424,437 C425,436 426,435 426,434 C425,434 424,434 425,433 C426,432 424,432 424,431 C425,431 425,433 426,433 C426,434 428,433 429,434 L427,434 C428,436 428,436 429,437 C428,439 425,437 424,437 C424,437 425,437 424,437 L424,437 M421,436 L421,436 L421,437 L421,436 M420,445 L419,445 L420,444 L420,445 M418,446 C418,445 419,446 419,445 C420,446 420,447 420,448 C419,447 418,447 418,446 C418,446 418,447 418,446 L418,446 M414,440 C414,441 414,440 415,440 L415,441 C415,441 414,441 414,440 C414,440 414,441 414,440 L414,440 M424,455 L424,454 L424,453 C424,454 424,454 424,454 L424,455 M421,455 L421,454 L422,455 L421,455 M413,452 L413,451 L413,452 M403,434 L402,433 C402,434 404,434 405,435 L403,435 L403,434 M395,430 L395,431 L394,431 C394,430 394,430 395,430 C395,430 394,430 395,430 L395,430 M382,422 L381,423 C381,422 382,422 382,422 L382,422 M382,429 C383,429 384,429 384,430 L384,430 C385,431 387,431 387,432 L385,431 C384,432 383,430 382,429 C382,429 383,430 382,429 L382,429 M381,427 C381,427 381,425 383,425 L382,427 C383,427 383,427 384,427 L385,426 C385,426 385,425 385,426 C385,427 384,428 384,428 C382,426 381,429 381,427 C381,427 381,429 381,427 L381,427 M352,413 L352,414 L352,413 M341,417 L342,417 L342,418 L341,417 M337,419 C337,420 337,420 337,420 L337,419 M336,414 C337,414 337,415 337,415 C337,415 336,415 336,414 C336,414 336,415 336,414 L336,414 M194,432 C197,432 195,434 196,436 L195,436 C195,435 194,434 194,432 C194,432 194,434 194,432 L194,432 M177,435 L178,435 L177,436 L177,435 M126,496 C125,496 125,497 125,496 C124,495 125,495 125,495 C127,495 125,496 126,496 C126,496 125,496 126,496 L126,496 M132,434 C131,432 132,430 132,428 C134,428 136,430 137,428 L137,431 C137,431 136,431 136,430 C135,431 135,432 135,432 C133,433 133,436 132,437 C130,436 134,435 132,434 C132,434 134,435 132,434 L132,434" fill="rgb(215,223,35)"></path>
	        <path id="Shape2" d="M16,8 L17,7 L17,9 C18,11 19,13 19,16 L18,17 C19,16 19,15 20,16 C19,17 20,18 21,18 C20,19 20,19 19,19 C19,20 18,22 20,23 L20,25 C20,25 20,26 21,26 C22,27 21,29 22,31 C20,34 22,37 20,39 C22,43 19,45 20,50 C19,53 20,58 19,61 C19,66 18,72 18,76 C18,79 17,83 18,86 C21,87 17,90 20,92 C20,93 20,94 20,94 C21,94 20,97 21,98 C20,100 21,103 21,105 C21,110 24,116 21,122 C22,123 23,126 22,127 C23,130 23,134 25,137 C26,146 27,154 28,163 C26,170 30,177 30,184 C30,185 31,186 31,187 C30,188 30,192 30,194 C31,196 31,197 30,197 C31,204 29,211 31,217 C30,221 30,224 31,228 C30,230 32,232 31,233 C29,240 32,246 32,253 C29,260 30,267 31,274 C29,278 33,284 30,287 C32,294 29,302 30,309 C29,312 32,314 32,317 C32,321 35,323 34,327 C36,330 38,333 39,337 C42,340 45,345 49,344 C52,344 53,343 54,341 C54,340 54,338 54,337 C55,328 55,319 56,310 C57,308 57,305 57,302 C55,298 57,295 55,292 C56,286 53,281 54,274 C51,270 53,265 54,261 C53,256 55,251 53,246 C54,243 52,240 53,237 C50,236 53,232 51,231 C50,224 48,217 50,211 C48,206 50,203 49,199 C49,193 45,188 47,184 L47,184 C47,184 46,183 47,183 L47,184 C47,184 48,184 48,183 C48,180 49,179 47,178 L48,178 L48,175 C48,174 50,174 49,173 C51,171 46,169 48,167 L49,167 C49,166 50,165 49,164 C51,164 48,162 50,162 C50,161 49,161 49,160 C50,160 50,160 51,159 C49,159 50,157 49,156 L50,156 C51,155 49,155 49,154 C50,153 49,151 51,151 C49,150 51,149 50,148 C50,148 50,148 51,148 C51,147 51,147 50,147 L51,146 L50,146 L51,145 C50,145 49,145 49,144 L50,144 C50,144 51,144 51,143 C50,142 50,142 49,142 C49,141 49,140 49,139 L46,140 C48,140 46,139 47,138 L48,139 C48,138 49,137 48,136 L48,136 L50,135 C49,135 48,135 48,135 L48,134 C48,134 48,133 47,133 C48,132 46,131 47,130 C46,131 46,129 46,129 C48,127 45,125 47,123 C49,120 45,116 47,112 C50,110 54,107 58,106 C59,106 61,105 63,105 C64,100 69,101 71,96 L75,94 C76,94 76,94 77,94 C78,94 80,93 80,90 C79,90 78,89 77,88 L77,88 L76,88 C76,88 76,88 76,87 L77,88 C80,88 80,92 83,90 C83,90 84,90 84,89 C85,90 85,89 86,90 C88,89 87,90 89,90 C89,89 90,90 91,90 L99,89 C100,90 101,89 102,89 C103,86 100,84 99,81 C97,76 101,70 99,65 C97,63 100,59 98,56 C99,53 98,50 99,47 C103,47 106,47 110,47 C118,47 125,45 133,45 C134,45 134,45 135,45 C139,44 143,44 148,44 C150,44 152,42 155,43 C161,41 170,42 176,40 C182,39 188,39 194,39 C195,39 197,38 198,39 C200,38 202,40 204,38 C206,39 209,38 211,40 C212,39 214,40 214,40 C217,38 220,41 222,40 C223,43 223,40 225,41 C227,38 227,43 229,41 C230,43 231,39 233,42 C233,40 234,42 236,41 C236,40 237,40 237,40 C237,40 237,41 237,41 C241,42 244,42 247,41 C248,42 249,40 250,40 C251,42 253,39 254,41 C255,41 256,42 258,41 L258,42 C259,41 259,43 260,43 C262,43 263,41 264,43 C266,40 267,43 268,43 C270,44 272,42 274,44 L274,43 C275,44 276,43 277,43 L278,44 L279,44 C280,43 281,44 282,45 C282,44 282,44 282,44 C284,45 286,45 287,44 L287,45 C288,45 288,44 289,45 L290,44 C290,44 291,45 291,45 C292,47 295,45 297,47 C299,45 301,47 302,45 C304,45 303,47 304,47 C305,47 306,45 306,45 L306,45 C306,45 307,47 307,47 L307,47 C309,49 311,44 312,47 C312,47 312,47 312,45 L313,47 L314,47 C314,47 316,47 317,47 C318,49 319,47 319,45 L319,45 C319,47 319,47 320,47 L320,47 L320,49 C321,49 321,47 321,47 L321,47 C322,49 322,47 322,47 C323,47 323,47 324,49 C324,49 324,49 324,47 L324,47 L324,49 C325,49 325,50 326,49 L326,47 L327,47 C326,51 329,49 329,50 C330,47 333,50 334,50 L334,49 C335,49 334,51 335,51 L335,51 C337,51 339,49 340,50 C341,50 342,49 343,50 C343,52 344,50 344,50 C344,50 344,50 345,51 L345,50 C346,52 348,50 349,51 C349,50 350,50 351,49 L351,51 L352,50 C353,53 355,49 356,51 L357,50 C358,50 357,51 358,51 C359,52 361,51 361,50 C361,52 363,51 364,52 C365,51 366,51 367,51 C369,51 373,51 375,53 C376,53 377,52 378,52 C377,54 381,51 381,54 C382,52 384,53 384,52 L385,52 L385,51 C386,52 387,51 387,53 C387,52 388,52 388,52 C389,52 389,54 390,54 L390,52 L391,54 L392,53 C393,55 394,52 394,55 C394,54 394,54 394,54 L396,54 C396,52 397,55 398,53 C399,53 400,53 400,55 C401,54 403,56 404,54 C404,54 404,56 405,56 C405,54 406,57 407,55 C407,53 409,56 410,54 L411,56 L412,55 C415,55 416,55 419,55 C419,57 422,55 422,55 C425,58 427,56 430,57 C431,56 431,58 433,56 C433,57 433,57 433,58 L434,57 L435,58 C436,57 437,58 438,57 C439,57 441,56 442,58 C442,58 443,58 443,57 C444,58 447,57 447,59 C449,59 449,58 449,57 C450,58 450,57 453,58 L453,58 L453,59 L455,57 C455,58 455,58 455,59 C456,58 455,57 455,57 L456,57 L456,58 C458,59 459,59 459,59 C461,60 461,60 461,61 C462,62 463,61 464,60 C465,61 466,61 466,60 L466,61 C466,61 467,61 467,60 C467,61 467,61 467,61 C468,61 468,61 468,61 C468,64 469,60 470,62 C471,61 472,62 473,61 C473,61 475,61 475,62 L475,61 C476,61 476,62 477,62 C478,60 477,59 478,57 L481,58 L481,59 L480,59 C480,61 481,59 481,61 L481,61 C481,62 483,62 483,63 C484,64 486,63 487,64 C490,62 490,66 492,65 C492,62 495,66 496,65 C497,65 500,64 500,66 L500,65 C502,65 503,64 504,66 C507,68 509,66 513,68 C516,68 518,70 520,71 C520,71 519,70 520,70 C520,71 522,70 523,70 C524,67 524,72 525,71 C526,72 526,73 526,74 C527,74 527,73 527,73 C527,73 527,73 527,72 C527,73 529,72 529,74 C530,76 532,73 532,75 L533,75 C533,75 533,75 534,75 L535,74 C534,75 535,76 537,76 C537,77 538,75 538,77 C538,76 539,76 540,76 L540,76 C540,77 542,77 543,77 C543,79 545,78 546,78 L546,79 C546,80 546,81 547,81 C548,80 549,82 549,83 C552,81 552,86 555,87 C555,88 555,89 554,89 C555,90 555,92 557,93 L557,93 L558,93 L558,92 C560,93 562,93 565,94 C568,92 571,94 575,93 L575,94 C575,94 575,94 574,94 C570,94 568,96 565,94 C563,96 561,94 559,94 C556,92 556,100 552,99 C549,100 546,101 545,103 C544,105 542,103 541,103 L541,103 C535,105 539,111 536,112 C533,114 534,116 534,118 C532,116 531,119 530,120 C527,121 525,122 523,124 C522,125 520,124 519,125 C516,122 515,128 512,126 C511,128 509,126 509,129 C509,130 508,129 507,129 C505,130 503,131 502,133 C502,135 504,135 504,136 C506,136 508,137 509,136 C512,137 516,136 519,138 C520,137 522,139 523,137 C526,137 528,136 532,137 C534,137 535,138 537,138 C541,139 545,139 548,138 C551,139 553,138 555,140 C560,139 564,141 568,143 C570,142 571,143 572,143 C574,146 578,144 580,144 C581,144 582,145 583,145 C587,148 592,146 597,148 C600,147 603,149 606,148 C607,149 608,149 609,148 C611,150 613,148 614,150 C616,149 619,150 621,149 C625,149 628,149 632,149 C634,153 635,148 638,149 C640,150 641,149 642,150 C644,149 646,151 647,150 C650,151 653,148 654,151 L665,152 C666,152 667,152 667,153 C669,154 671,153 673,154 C675,153 678,154 680,154 C683,156 686,152 689,154 L689,155 C691,156 693,156 694,155 C697,157 701,154 705,156 C707,156 709,158 711,157 C712,157 713,159 714,157 L716,157 C718,159 720,154 722,157 C723,155 726,156 728,157 C730,153 732,158 734,155 C739,151 743,155 748,154 C749,157 752,155 754,156 C754,153 756,151 758,150 C759,146 763,145 762,140 C761,139 761,138 761,136 C759,133 761,128 760,123 C758,121 759,118 759,115 C759,112 757,112 756,112 C755,112 754,114 754,115 C752,112 756,112 756,112 C755,111 755,111 754,111 C754,109 752,111 751,110 C751,108 752,109 753,108 C753,107 753,107 753,106 C753,103 751,106 750,106 L750,103 C751,103 752,103 753,103 C754,102 756,100 755,98 C754,98 754,100 754,100 L753,100 L751,99 C751,100 750,101 749,101 L749,101 C746,98 751,99 751,96 C751,94 749,97 749,94 C747,94 749,93 748,92 C749,90 749,90 750,90 L749,89 C751,88 749,87 751,86 C749,85 750,83 749,83 C749,83 749,83 750,83 L750,83 L750,84 L751,85 C752,84 751,82 752,81 L751,80 C752,79 753,80 753,80 C754,80 755,78 755,78 C756,78 756,79 757,78 C759,77 761,79 763,80 C763,84 764,87 764,90 C764,90 763,92 763,93 C764,94 766,97 765,99 C766,107 767,115 769,123 C768,128 771,134 769,139 L771,141 C769,144 772,146 772,150 C773,152 773,156 775,159 C775,162 775,166 776,169 C776,174 782,177 782,183 C785,187 786,192 788,197 C790,205 790,213 792,222 C795,229 794,237 793,245 C794,251 794,256 795,261 C795,261 796,260 797,261 C798,263 799,263 801,262 C803,261 802,258 804,257 C808,251 807,245 807,238 C809,236 807,232 808,231 C809,223 807,214 808,205 C807,200 808,195 807,189 C809,186 805,180 807,177 C807,176 805,175 807,174 C806,168 805,162 807,157 C805,152 808,146 805,141 C806,139 804,135 806,133 C806,124 805,116 805,108 C804,100 803,92 803,83 C803,80 802,76 802,72 L801,71 C803,64 799,57 800,51 C800,50 800,49 800,47 C798,36 799,22 793,11 C793,10 793,9 792,8 C790,10 788,5 786,7 L785,7 C784,7 783,6 783,7 C782,7 782,7 782,6 C782,6 780,7 780,6 L780,6 L779,5 C779,6 778,6 777,6 L776,4 C774,3 774,8 772,6 C773,6 772,6 772,7 C769,2 764,7 762,1 C759,1 755,1 752,2 C750,0 748,2 747,1 C746,3 744,1 743,2 C740,4 737,1 735,4 C734,2 733,6 732,4 C730,3 729,5 727,3 C726,5 724,4 723,5 L722,6 C722,3 720,8 720,5 C717,4 717,3 715,5 C714,3 713,4 711,3 C710,4 707,4 705,4 L704,3 C704,3 703,5 702,4 C702,5 701,6 700,6 C699,5 699,4 699,4 C697,5 696,2 694,4 C694,3 693,2 693,2 C692,2 692,2 691,3 C692,3 692,3 693,3 C691,4 690,5 688,4 L688,3 C687,4 685,5 684,4 C684,4 683,4 683,5 C683,3 682,3 681,4 C680,5 679,3 679,4 C678,4 678,3 677,3 C674,5 670,1 666,3 L666,3 C666,6 662,4 660,4 C660,2 658,4 657,5 C654,6 652,2 649,4 C649,3 647,4 646,4 L646,5 C645,5 645,4 644,4 C644,4 644,4 643,4 C643,3 642,5 642,5 C636,4 630,6 623,6 C622,7 618,5 616,7 C614,5 612,10 610,7 C609,8 607,6 605,7 C604,8 603,5 601,6 C600,7 599,7 598,6 C598,7 597,6 597,6 C595,6 595,8 593,7 L592,6 L591,7 C589,8 587,6 585,7 C584,6 583,10 582,8 L582,8 L581,7 C581,7 580,7 580,8 L580,7 L580,6 C578,6 577,7 576,6 C574,6 572,8 569,7 C568,7 567,7 567,6 C563,6 560,7 557,6 C555,6 553,7 551,6 C551,7 549,8 548,7 L548,7 C547,7 546,8 546,8 C543,9 540,5 538,9 C536,9 535,9 534,8 C533,9 531,7 530,9 C528,7 526,10 524,6 C523,6 524,8 523,7 L522,8 C520,6 516,7 513,9 L512,8 C512,10 510,8 510,8 C509,6 507,10 506,8 C504,9 502,9 501,9 C500,8 498,11 497,8 C495,9 493,9 492,9 L490,9 L490,10 C490,8 487,9 487,9 C484,10 481,7 481,10 C478,9 478,10 476,9 C474,10 472,9 470,9 C465,11 459,11 455,11 C450,10 446,11 442,11 C441,11 439,12 438,11 C435,13 433,10 431,12 C430,10 428,12 425,12 C427,11 424,12 422,12 C421,11 419,13 416,12 C416,12 416,10 415,11 C413,11 413,11 415,10 C413,12 410,9 409,12 C408,11 407,14 406,12 C405,12 405,11 404,12 C402,13 400,12 398,12 L396,13 L396,12 C394,12 394,14 393,13 L392,12 C392,13 391,14 390,14 C388,10 385,15 382,12 L381,12 L381,11 C381,10 382,11 383,11 C381,11 380,7 379,10 L377,10 L377,11 C378,12 379,10 380,12 C377,13 375,12 373,12 C372,13 372,13 371,14 C370,13 371,12 371,12 C371,12 369,14 368,13 L368,12 C368,13 367,13 366,13 C366,12 366,12 365,11 C365,13 363,13 362,13 C361,12 361,10 359,9 C357,10 359,12 357,12 C356,12 354,13 353,11 C353,12 353,13 352,13 C350,12 350,13 350,10 C349,12 348,10 348,12 C346,11 344,10 342,11 C342,10 341,11 341,11 C340,12 338,12 337,11 C337,11 336,11 336,10 L336,10 C336,11 332,10 331,11 C328,9 327,12 325,10 C322,10 319,10 318,11 C316,12 315,11 314,10 C311,11 306,10 304,10 C302,12 301,9 300,11 C298,12 298,10 296,10 C295,10 294,11 293,10 C290,11 286,9 283,11 C283,8 281,11 279,11 C274,9 268,12 263,10 L256,11 C255,9 253,12 252,10 C249,10 247,11 244,10 C231,11 220,12 210,11 C208,13 207,11 205,11 C197,12 190,12 182,12 C173,14 166,13 158,15 C155,14 151,16 148,15 C148,15 147,16 147,15 C136,15 123,17 111,16 L107,16 C105,15 104,17 103,15 C99,16 95,15 92,16 L91,15 C88,16 85,15 81,16 C80,15 79,15 78,15 C77,19 74,16 72,17 C68,17 65,16 61,16 C59,15 57,16 55,16 C53,15 51,15 48,16 C48,14 46,14 46,15 C45,15 45,15 45,15 C42,14 45,12 43,10 L42,10 C41,11 42,12 41,13 C41,11 40,12 39,12 C38,11 37,8 35,8 C33,9 31,6 29,6 C27,7 25,5 23,6 C21,5 19,4 17,5 L17,7 L16,7 L16,8 M748,88 L749,88 L748,89 L748,88 M747,81 L747,80 C748,79 749,81 748,81 L747,81 M747,88 L747,88 L747,87 L748,87 L747,88 L747,87 C747,88 747,88 747,88 C747,89 748,89 747,90 C746,90 746,89 747,88 C747,88 746,89 747,88 L747,88 M745,82 C746,83 747,84 747,85 L747,85 C745,85 746,83 745,82 C745,82 746,83 745,82 L745,82 M728,138 C729,137 730,137 731,137 C733,134 735,137 737,135 C739,136 738,138 738,140 L738,140 C739,141 739,142 738,142 C737,142 736,143 736,142 C733,143 730,140 728,138 C728,138 730,140 728,138 L728,138 M725,125 L725,125 C726,125 726,126 726,126 L726,126 C729,124 732,124 735,123 C736,124 735,126 735,127 C736,127 736,129 735,130 C733,128 731,128 729,130 C729,128 730,128 731,127 C730,127 730,126 729,126 C728,126 727,126 726,126 L726,126 C726,126 725,126 725,125 C725,125 725,126 725,125 L725,125 M734,115 C733,116 729,114 730,116 C729,116 727,116 727,116 L729,116 C730,115 731,115 732,114 C733,114 734,114 734,115 C734,115 734,114 734,115 L734,115 M723,115 C724,115 724,115 724,115 C725,116 726,116 726,116 C725,116 724,116 723,115 C723,115 724,116 723,115 L723,115 M722,115 C722,114 723,115 723,115 L722,115 M718,87 C719,89 721,88 723,88 L721,89 C720,89 717,89 718,87 C718,87 717,89 718,87 L718,87 M716,87 L717,87 L716,88 L716,87 M706,88 L707,88 L706,88 M703,87 C703,88 704,88 705,88 C704,88 704,88 703,88 L703,87 M700,88 L702,87 C701,88 700,89 700,88 C700,88 700,89 700,88 L700,88 M696,88 L696,88 M652,89 L653,89 L653,90 L652,90 C652,90 651,89 652,89 C652,89 651,89 652,89 L652,89 M647,89 L649,89 L647,89 M627,90 C629,89 630,90 632,89 L634,90 C635,88 637,89 639,90 C640,88 641,90 642,90 C642,90 641,90 641,90 C636,90 631,90 627,90 C627,90 631,90 627,90 L627,90 M619,90 C621,90 623,89 624,89 L625,90 L623,90 C622,88 620,92 619,90 C619,90 620,92 619,90 L619,90 M616,69 L617,69 C617,70 616,69 616,69 L616,69 M613,90 L613,90 C614,89 615,90 616,90 C615,90 613,90 613,90 C613,90 613,90 613,90 L613,90 M602,90 C604,88 605,92 607,90 L607,90 C605,90 603,93 602,90 C602,90 603,93 602,90 L602,90 M604,71 L604,71 C604,70 604,70 604,70 L604,71 M593,92 C594,90 597,90 599,90 L599,92 C597,92 595,90 593,92 C593,92 595,90 593,92 L593,92 M594,73 L594,72 C595,70 595,73 596,73 C595,74 595,72 594,73 C594,73 595,72 594,73 L594,73 M587,92 L589,92 C590,90 590,93 591,92 C591,92 592,90 592,92 C591,93 589,92 587,92 C587,92 589,92 587,92 L587,92 M587,74 C588,73 589,72 590,72 C591,73 592,71 593,72 L588,75 C587,75 588,74 587,74 C587,74 588,74 587,74 L587,74 M576,93 C579,93 580,92 582,92 C583,92 586,92 586,93 C583,94 580,93 576,94 L576,93 M558,89 L559,90 C559,90 559,90 558,90 L558,89 M552,81 L554,80 C554,82 556,81 556,82 C554,81 553,84 552,81 C552,81 553,84 552,81 L552,81 M550,78 C552,79 550,80 550,81 L550,80 C551,80 549,78 550,78 C550,78 549,78 550,78 L550,78 M534,37 L535,36 C536,36 537,36 537,37 L539,35 C541,35 542,34 543,36 C546,34 547,36 550,35 C551,36 552,35 553,36 L554,35 C556,34 558,34 560,35 L566,35 C570,35 574,36 578,35 C588,36 597,34 607,37 C607,36 608,36 607,36 C620,35 631,37 643,38 C672,41 704,35 732,37 C734,38 736,38 738,37 C741,39 745,35 749,38 C750,37 752,38 753,37 C756,36 758,39 760,40 C759,43 761,45 760,49 L758,47 C758,50 757,50 756,51 L757,53 L756,53 C755,50 754,53 753,53 C752,53 751,51 751,51 C751,47 748,47 746,47 C745,47 745,47 744,47 C742,47 740,45 739,47 C736,45 735,43 731,45 C729,45 726,42 724,44 L724,44 L719,43 C717,45 714,42 711,44 C710,45 710,44 709,43 C708,45 706,43 705,44 L704,44 C704,44 704,44 703,44 L702,43 C702,44 700,43 700,44 L699,44 C698,45 697,44 695,45 C695,45 694,43 693,44 L693,42 L692,43 L692,42 C691,43 691,44 690,44 C688,44 685,43 684,45 L684,45 L683,45 L683,45 C683,44 683,45 683,45 C681,47 678,43 677,45 L676,45 C676,45 676,47 675,45 C675,45 675,45 675,47 C674,47 673,45 672,45 C672,45 672,45 671,45 L671,45 C671,45 670,44 670,44 C669,44 669,44 669,45 C668,45 666,42 665,45 L664,44 C663,43 662,45 662,45 C662,44 660,45 659,43 C657,45 655,41 654,44 C654,42 652,45 651,44 C650,44 650,44 650,45 C649,44 648,44 648,45 C648,44 648,44 647,44 L646,45 C645,43 644,45 643,43 L642,44 L643,43 C641,41 640,42 638,43 C637,42 634,44 633,42 C632,44 629,42 627,42 C626,44 626,40 625,41 C623,43 621,41 620,41 C619,41 618,41 618,40 C617,40 617,40 617,41 C616,41 614,41 614,41 C614,41 614,40 613,40 C613,40 612,40 613,41 L612,41 C611,40 608,40 608,38 C608,38 608,40 607,40 C607,37 605,39 605,37 C604,37 604,39 604,40 C603,39 602,40 601,41 C600,39 599,42 598,40 C597,40 597,41 598,41 L596,41 C595,41 594,40 593,38 L592,39 L592,38 C591,37 591,39 591,39 C590,39 590,39 590,39 L591,39 C591,38 591,38 591,37 C591,37 591,37 590,37 C589,37 588,39 589,39 C589,39 588,39 588,40 L588,40 C588,40 587,39 587,40 L585,40 L585,39 C583,41 582,38 581,39 C581,40 582,39 582,39 C582,40 582,40 582,40 L580,40 C579,41 581,39 579,39 L579,40 C579,40 578,39 578,40 L578,40 C576,38 576,41 575,41 C575,40 574,41 573,40 L573,41 C570,41 568,42 567,40 C567,41 567,41 566,41 C564,43 563,40 561,40 L560,39 L557,39 L555,40 L555,39 C554,39 554,41 553,40 L553,40 C553,39 553,39 554,39 L552,37 C550,36 551,39 551,39 C549,39 546,38 546,40 C545,40 546,39 545,38 C545,39 545,39 544,40 L544,38 L542,41 C541,41 541,40 540,40 C538,41 538,38 537,37 C536,37 536,38 535,38 C535,37 534,37 534,37 L534,37 M528,47 L529,45 L529,47 C530,45 531,45 531,45 C531,45 530,47 530,47 L528,47 M524,39 C524,38 525,36 525,35 L525,36 C526,36 526,37 526,36 C527,36 526,36 526,36 C526,36 525,35 526,35 C526,36 527,35 527,35 C528,36 526,36 527,37 C527,37 528,37 528,36 C528,35 530,35 530,36 L529,36 L530,37 L531,36 C532,38 529,37 530,39 C528,37 527,39 526,37 L525,38 L524,39 M504,43 L504,42 L504,43 M503,43 L503,42 L503,44 L503,43 M499,34 C498,34 498,34 498,35 L497,33 C498,33 499,33 500,33 L500,34 C501,32 502,35 503,34 C505,34 507,33 507,35 C508,35 508,34 509,34 L509,34 C513,32 516,36 519,34 C520,36 522,34 522,36 L523,36 C523,37 523,38 522,38 C521,37 522,40 521,39 C521,38 520,38 520,37 L519,38 C518,39 520,39 519,39 L518,40 C517,39 515,39 515,38 L514,38 C513,38 512,36 511,36 L511,38 C511,36 510,36 509,35 C509,35 508,35 509,36 C508,35 506,37 506,35 C504,36 506,37 505,38 C504,38 504,37 503,36 C502,36 503,37 502,36 L502,36 C501,36 501,35 500,35 C500,35 499,36 498,36 C499,35 499,35 499,34 C499,34 499,35 499,34 L499,34 M490,56 L490,56 C492,56 492,55 493,55 C492,55 493,56 492,57 C492,56 490,57 490,57 L490,56 M484,56 C484,56 486,56 486,57 C484,57 484,58 484,57 L484,56 M481,41 C481,40 481,40 481,40 C481,40 481,41 481,41 L481,41 M478,32 C481,30 483,34 484,32 C486,33 487,32 489,33 C489,33 487,34 489,34 L490,33 C490,32 490,33 492,33 C493,32 493,34 493,33 C497,33 496,35 497,35 C497,36 497,36 497,36 L497,36 C496,36 493,36 493,37 C490,36 489,37 487,35 L487,36 C487,35 487,35 487,35 C487,34 486,34 484,34 L484,35 L484,35 C483,36 483,34 481,35 L481,36 C481,35 480,36 480,35 C480,35 480,35 478,35 C478,34 480,31 478,32 C478,32 480,31 478,32 L478,32 M469,33 C470,34 472,30 472,33 C472,35 474,33 473,34 C472,33 471,36 470,34 L469,35 C469,34 469,33 469,33 L469,33 M468,57 L469,57 L468,57 M461,32 C462,31 462,32 462,32 L461,32 M456,33 L456,33 L456,35 C456,34 456,34 456,34 L456,33 M453,34 C453,32 453,34 455,34 L453,35 C453,35 453,35 453,34 C453,34 453,35 453,34 L453,34 M436,33 L437,33 L436,34 L436,33 M425,33 L425,33 L425,34 L425,33 M396,35 L397,34 C398,35 397,35 396,35 C396,35 397,35 396,35 L396,35 M393,34 C394,34 395,34 396,34 L395,35 C395,35 394,35 393,34 C393,34 394,35 393,34 L393,34 M391,47 C392,47 393,47 394,47 C393,49 393,47 392,47 C392,49 392,50 391,50 C391,49 391,47 391,47 L391,47 M391,33 L392,33 C392,33 392,34 391,34 C391,34 391,34 391,33 C391,33 391,34 391,33 L391,33 M390,51 L390,50 L390,51 M388,36 L389,36 C389,36 389,36 389,37 L388,36 M388,34 L389,33 L389,34 L388,34 M387,35 L388,35 L388,36 C387,36 387,36 387,35 C387,35 387,36 387,35 L387,35 M383,35 C383,34 384,35 385,34 L385,34 C385,35 386,35 385,36 L383,35 M380,52 L381,51 L381,53 L380,52 M377,34 L377,34 L377,35 L377,34 M370,36 L371,35 L372,36 C371,37 370,36 370,36 L370,36 M366,36 L367,36 L367,37 C366,36 366,36 366,36 L366,36 M364,37 C364,36 365,35 365,35 L365,36 C365,36 365,37 364,37 C364,37 365,37 364,37 L364,37 M360,45 L360,45 L360,45 M358,36 C358,35 359,36 359,36 C359,37 358,36 358,36 L358,36 M356,47 L356,49 L356,47 M355,36 L355,36 M342,38 L342,39 C342,38 342,38 342,38 L342,38 M340,39 L341,38 L341,39 L340,39 M334,37 L334,37 L333,37 L334,37 L335,37 C335,37 335,37 334,37 C334,37 335,37 334,37 L334,37 M336,39 L337,38 L338,39 L336,39 M333,45 C334,45 334,47 334,47 C331,47 334,47 333,45 C333,45 334,47 333,45 L333,45 M332,43 C332,43 333,42 333,43 L334,42 C334,42 334,43 333,43 C334,45 336,44 335,45 C334,45 335,45 335,47 C333,45 333,44 332,43 C332,43 333,44 332,43 L332,43 M330,38 L329,38 C330,37 331,36 330,36 C332,36 330,38 330,38 L330,38 M329,44 C329,43 330,44 330,44 L329,44 M323,39 L322,38 C321,38 321,39 321,39 L321,38 C322,37 321,39 323,39 L323,39 M320,44 L320,44 C321,45 320,45 321,45 C322,45 322,44 323,43 C324,43 324,45 324,45 L323,44 C322,45 322,45 323,45 L322,47 L321,45 C321,45 321,45 321,45 L320,44 M318,37 C319,36 319,38 320,38 C320,39 319,40 319,40 L318,37 M317,37 L318,37 L318,38 L317,37 M312,44 C313,43 313,43 314,44 C313,44 313,45 312,44 C312,44 313,45 312,44 L312,44 M310,37 C310,38 309,38 309,38 C308,37 310,37 310,37 L310,37 M302,37 C302,37 302,37 303,37 L302,38 L302,37 M296,43 L297,43 C297,43 297,43 296,43 L296,43 M296,39 L297,39 L297,40 C297,40 296,40 296,39 C296,39 296,40 296,39 L296,39 M294,39 L295,38 L295,40 C295,39 293,39 294,39 C294,39 293,39 294,39 L294,39 M291,43 L291,43 L291,44 L291,43 M289,39 L289,38 L290,40 L289,39 M287,38 L286,38 C286,38 286,38 286,37 L287,37 L287,38 M287,43 C287,42 287,41 287,42 C288,42 287,42 287,43 C287,43 287,42 287,43 L287,43 M286,40 L287,39 L288,40 L287,40 L287,41 L286,40 M265,40 L266,41 L265,40 M46,136 C45,135 47,136 47,135 L47,136 C47,136 47,136 46,136 C46,136 47,136 46,136 L46,136 M47,143 L46,142 C47,141 47,143 47,143 L47,143 M47,150 L47,150 C46,150 47,149 46,149 C47,147 48,149 47,150 C47,150 48,149 47,150 L47,150 M48,147 C50,147 48,149 49,149 L49,149 C49,148 48,148 48,147 C48,147 48,148 48,147 L48,147 M47,160 C47,159 48,158 48,158 L48,159 C48,159 48,160 47,160 C47,160 48,160 47,160 L47,160 M47,163 L47,162 L48,162 L47,163 M47,180 C47,180 48,180 48,180 C47,182 47,183 47,182 L47,180 M47,172 L47,172 L47,173 L47,172 M46,155 L46,153 C48,153 46,155 48,155 L48,156 C47,155 46,155 46,155 L46,155 M46,146 L46,146 C47,147 46,147 46,147 L46,146 M45,144 C45,143 45,143 46,143 C47,143 46,144 46,145 C45,145 45,144 45,144 L45,144 M21,22 L20,22 L20,21 L21,22" style="fill:url(#gradient-1)" fill="none"></path>
	    </g>
	</svg>