<?xml version="1.1" encoding="UTF-8" standalone="no"?>
<svg width="399px" height="250px" xmlns="http://www.w3.org/2000/svg" version="1.1">
    <title>butterfly_2</title>
    <description>Created with Sketch (http://www.bohemiancoding.com/sketch)</description>
    <defs></defs>
    <g fill="none">
        <path id="Shape2" d="M197,107 C189,101 199,100 199,100 C185,65 162,49 160,48 C155,46 152,46 153,44 C154,43 160,47 161,48 C186,66 200,100 200,100 C200,100 202,101 202,100 C212,71 232,55 239,49 C246,43 249,42 240,49 C211,71 203,100 203,100 C215,102 204,108 204,107 C207,104 207,113 207,113 C207,113 224,78 291,34 C295,31 438,-46 388,48 C386,53 368,73 368,73 C368,73 370,82 364,89 C363,90 360,102 354,108 C353,110 354,107 354,108 C355,138 330,138 332,138 C341,139 343,151 343,151 C348,158 346,159 348,162 C359,179 348,178 349,180 C353,187 348,190 350,192 C353,198 347,201 347,203 C348,211 342,208 342,212 C343,223 339,218 336,222 C329,234 326,230 325,231 C322,238 318,237 317,238 C313,242 310,242 308,244 C301,251 297,246 296,246 C280,253 273,248 270,248 C263,248 264,247 262,245 C230,218 212,179 208,174 C207,172 204,161 205,163 C207,169 206,218 200,218 C195,218 194,172 198,163 C199,161 197,171 194,174 C189,181 172,218 140,245 C138,247 139,248 131,248 C129,248 121,253 105,246 C104,246 100,251 93,244 C91,242 88,242 84,238 C83,237 79,238 76,231 C75,230 72,234 65,222 C62,218 58,223 59,212 C59,208 53,211 53,203 C54,201 47,198 51,192 C52,190 47,187 51,180 C53,178 42,179 52,162 C55,159 52,158 58,151 C58,151 60,139 69,138 C71,138 46,138 46,108 C46,107 48,110 46,108 C40,102 38,90 37,89 C31,82 32,73 32,73 C32,73 15,53 12,48 C-38,-46 107,31 111,34 C178,78 195,113 195,113 C195,113 195,111 196,109 C196,108 197,108 197,107 C197,107 197,108 197,107 L197,107" fill="rgb(246,127,0)"></path>
        <path id="Shape1" d="M196,107 C188,101 198,100 198,100 C184,64 161,49 159,48 C154,45 151,46 152,44 C153,43 160,47 160,48 C186,66 199,100 199,100 C199,100 201,101 201,100 C211,70 231,55 238,49 C245,42 248,42 239,49 C210,71 202,100 203,100 C214,102 203,108 204,107 C207,104 207,113 207,113 C207,113 224,78 290,34 C294,31 438,-46 388,48 C385,53 368,73 368,73 C368,73 369,82 363,89 C362,90 360,102 354,108 C352,110 354,107 354,108 C354,138 330,137 331,138 C341,139 342,151 342,151 C348,158 346,159 348,162 C358,178 347,177 349,180 C353,187 348,190 349,192 C353,198 347,201 347,203 C347,211 341,208 342,212 C342,223 338,218 336,222 C328,234 325,230 325,231 C322,238 318,236 316,238 C313,242 309,242 308,244 C301,251 297,246 296,246 C280,253 272,247 270,248 C262,248 263,247 261,245 C230,218 211,179 208,174 C206,172 203,160 204,163 C206,169 205,218 200,218 C194,218 194,172 197,163 C198,160 196,171 194,174 C188,181 171,218 139,245 C137,247 138,248 131,248 C128,247 121,253 104,246 C103,246 99,251 92,244 C91,242 87,242 84,238 C82,236 78,238 75,231 C74,230 72,234 64,222 C61,218 57,223 58,212 C58,208 52,211 53,203 C53,201 47,198 50,192 C52,190 47,187 51,180 C52,177 41,178 52,162 C54,159 52,158 57,151 C57,151 59,139 68,138 C70,137 45,138 46,108 C46,107 47,110 46,108 C40,102 37,90 36,89 C30,82 32,73 32,73 C32,73 14,53 11,48 C-38,-46 106,31 110,34 C177,78 194,113 194,113 C194,113 194,111 195,109 C195,108 196,107 196,107 C196,107 196,107 196,107 L196,107 M235,121 C238,121 244,124 248,123 C273,116 321,122 324,123 C336,127 344,99 319,99 C287,99 294,97 273,94 C271,93 245,103 221,117 C218,119 220,121 235,121 C235,121 220,121 235,121 L235,121 M216,116 C218,116 231,107 270,92 C272,91 272,86 293,76 C294,76 293,72 307,60 C314,54 290,55 284,56 C279,57 265,68 265,68 C265,68 280,56 275,58 C264,61 234,94 224,108 C214,122 240,84 247,78 C253,72 197,114 216,116 C216,116 197,114 216,116 L216,116 M328,96 C343,99 341,78 334,77 C322,75 300,76 294,78 C277,84 273,90 274,91 C303,101 323,95 328,96 C328,96 323,95 328,96 L328,96 M328,74 C334,75 344,77 344,69 C344,65 358,72 361,73 C364,73 351,68 346,65 C343,62 342,59 342,59 C310,48 296,75 296,75 C296,75 324,74 328,74 C328,74 324,74 328,74 L328,74 M393,30 C388,22 379,25 376,21 C362,5 328,26 356,24 C388,21 394,31 393,30 C393,30 394,31 393,30 L393,30 M369,34 C383,34 389,40 388,39 C381,32 375,34 373,32 C364,20 338,32 340,35 C342,38 366,34 369,34 C369,34 366,34 369,34 L369,34 M323,44 C302,49 311,56 313,56 C333,52 327,43 323,44 C323,44 327,43 323,44 L323,44 M333,20 C324,21 323,38 328,35 C335,30 343,19 333,20 C333,20 343,19 333,20 L333,20 M308,43 C322,38 312,35 307,36 C303,36 299,43 301,46 C304,52 305,44 308,43 C308,43 305,44 308,43 L308,43 M352,89 C357,86 351,80 347,83 C343,85 348,91 352,89 C352,89 348,91 352,89 L352,89 M343,46 C354,58 359,52 362,51 C370,47 379,56 377,55 C370,47 365,49 364,47 C357,36 345,43 343,43 C336,44 327,49 330,48 C334,47 341,45 343,46 C343,46 341,45 343,46 L343,46 M376,12 C383,7 374,5 372,6 C366,7 369,17 376,12 C376,12 369,17 376,12 L376,12 M217,149 C223,155 284,253 275,220 C273,216 278,234 284,224 C285,221 294,221 267,176 C266,174 245,166 225,143 C222,140 213,143 217,149 C217,149 213,143 217,149 L217,149 M273,183 C277,190 288,214 289,217 C292,228 299,216 300,216 C313,221 304,209 303,206 C293,178 272,181 272,181 C272,181 268,176 273,183 C273,183 268,176 273,183 L273,183 M246,224 C259,242 264,235 266,233 C274,226 225,164 222,160 C218,155 218,183 246,224 C246,224 218,183 246,224 L246,224 M293,187 C299,192 306,213 310,212 C320,211 314,202 317,204 C319,205 324,202 323,200 C310,176 291,184 291,184 C291,184 286,182 293,187 C293,187 286,182 293,187 L293,187 M228,136 C209,136 275,190 294,180 C298,177 289,176 290,165 C290,163 277,159 277,146 C277,141 269,140 244,140 C239,140 249,136 228,136 C228,136 249,136 228,136 L228,136 M300,181 C318,183 323,197 325,196 C354,176 302,167 293,169 C289,169 296,181 300,181 C300,181 296,181 300,181 L300,181 M231,132 C235,134 247,144 285,136 C287,135 256,135 252,134 C248,133 229,130 231,132 C231,132 229,130 231,132 L231,132 M298,166 C335,175 325,169 327,168 C335,164 326,163 327,161 C331,156 320,153 297,150 C291,150 280,147 280,148 C276,155 293,165 298,166 C298,166 293,165 298,166 L298,166 M304,150 C336,155 316,145 316,145 C328,136 290,136 290,136 C290,136 273,140 274,140 C278,149 300,149 304,150 C304,150 300,149 304,150 L304,150 M242,221 C242,221 213,175 219,156 C220,152 206,133 213,165 C213,165 211,158 209,155 C207,151 204,152 206,162 C211,187 242,221 242,221 L242,221 M282,51 C289,49 286,47 281,46 C277,45 274,53 282,51 C282,51 274,53 282,51 L282,51 M180,117 C156,103 130,93 128,94 C106,97 113,99 81,99 C55,99 63,127 76,123 C79,122 127,116 153,123 C157,124 163,121 166,121 C181,121 183,119 180,117 C180,117 183,119 180,117 L180,117 M154,78 C161,84 188,122 177,108 C167,94 137,61 125,58 C120,56 135,68 135,68 C135,68 122,57 116,56 C111,55 86,54 93,60 C107,72 106,76 107,76 C128,86 128,91 131,92 C170,107 183,116 185,116 C204,114 147,72 154,78 C154,78 147,72 154,78 L154,78 M126,91 C128,90 123,84 106,78 C100,76 78,75 66,77 C58,78 57,99 72,96 C77,95 97,101 126,91 C126,91 97,101 126,91 L126,91 M104,75 C104,75 90,48 58,59 C57,59 57,62 53,65 C49,68 36,73 38,73 C41,72 55,65 55,69 C56,77 66,75 72,74 C76,74 104,75 104,75 L104,75 M44,24 C72,26 38,5 23,21 C20,25 11,22 6,30 C5,31 11,21 44,24 C44,24 11,21 44,24 L44,24 M60,35 C62,32 35,20 26,32 C24,34 18,32 11,39 C10,40 16,34 30,34 C34,34 58,38 60,35 C60,35 58,38 60,35 L60,35 M77,44 C98,49 89,56 87,56 C67,52 73,43 77,44 C77,44 73,43 77,44 L77,44 M72,35 C77,38 76,21 66,20 C57,19 65,30 72,35 C72,35 65,30 72,35 L72,35 M99,46 C101,43 97,36 93,36 C88,35 78,38 92,43 C95,44 96,52 99,46 C99,46 96,52 99,46 L99,46 M52,83 C48,80 43,86 47,89 C52,91 56,85 52,83 C52,83 56,85 52,83 L52,83 M69,48 C73,49 64,44 57,43 C54,43 43,36 35,47 C34,49 29,47 22,55 C20,56 29,47 38,51 C40,52 45,58 57,46 C58,45 66,47 69,48 C69,48 66,47 69,48 L69,48 M27,6 C25,5 16,7 23,12 C30,17 34,7 27,6 C27,6 34,7 27,6 L27,6 M176,143 C156,166 135,174 133,176 C106,221 115,221 117,224 C122,234 127,216 126,220 C116,253 178,155 184,149 C189,143 180,140 176,143 C176,143 180,140 176,143 L176,143 M128,181 C128,181 107,178 97,206 C96,209 87,221 100,216 C101,216 108,228 111,217 C112,214 123,190 128,183 C132,176 128,181 128,181 L128,181 M179,160 C176,164 127,226 134,233 C137,235 142,242 155,224 C183,183 183,155 179,160 C179,160 183,155 179,160 L179,160 M110,184 C110,184 90,176 77,200 C76,202 81,205 83,204 C86,202 80,211 90,212 C94,213 101,192 107,187 C114,182 110,184 110,184 L110,184 M157,140 C132,140 124,141 124,146 C124,159 110,163 110,165 C112,176 102,177 106,180 C126,190 193,136 173,136 C152,136 162,140 157,140 C157,140 162,140 157,140 L157,140 M107,169 C98,167 46,176 75,196 C77,197 81,183 100,181 C104,181 111,169 107,169 C107,169 111,169 107,169 L107,169 M149,134 C144,135 114,135 115,136 C154,144 166,134 170,132 C172,130 153,133 149,134 C149,134 153,133 149,134 L149,134 M121,148 C120,147 109,150 103,150 C80,153 68,156 73,161 C74,163 64,164 73,168 C74,169 64,175 102,166 C107,165 124,155 121,148 C121,148 124,155 121,148 L121,148 M127,140 C127,140 111,136 111,136 C111,136 72,136 84,145 C84,145 63,155 96,150 C100,149 122,149 127,140 C127,140 122,149 127,140 L127,140 M196,162 C198,152 194,151 192,155 C190,158 188,165 189,165 C195,133 181,152 182,156 C188,175 159,221 159,221 C159,221 191,187 196,162 C196,162 191,187 196,162 L196,162 M119,46 C115,47 111,49 119,51 C126,53 124,45 119,46 C119,46 124,45 119,46 L119,46" fill="rgb(0,0,0)"></path>
        <path id="Shape" d="M356,53 C352,54 348,54 347,49 C346,43 348,41 356,43 C363,45 368,52 356,53 C356,53 368,52 356,53 L356,53 M320,57 C320,57 301,61 318,48 C326,42 327,47 327,50 C328,55 320,57 320,57 L320,57 M377,16 C368,15 369,10 378,8 C379,7 382,17 377,16 C377,16 382,17 377,16 L377,16 M382,16 C384,16 388,17 389,20 C389,24 385,26 383,24 C380,22 379,17 382,16 C382,16 379,17 382,16 L382,16 M376,27 C378,26 386,28 385,31 C385,34 379,34 376,33 C374,31 373,28 376,27 C376,27 373,28 376,27 L376,27 M377,45 C380,42 383,45 384,46 C385,48 380,50 379,50 C377,51 374,47 377,45 C377,45 374,47 377,45 L377,45 M388,8 C388,8 392,8 391,9 C390,11 387,11 387,11 L387,11 L388,8 M394,17 C394,17 398,17 397,18 C396,20 393,20 393,20 L393,20 L394,17 M362,65 C362,65 367,67 366,68 C365,70 363,72 360,69 C356,65 362,65 362,65 L362,65 M348,84 C351,82 355,84 356,86 C357,87 352,89 350,90 C349,90 345,87 348,84 C348,84 345,87 348,84 L348,84 M350,74 C353,72 356,75 357,77 C358,78 354,79 352,80 C351,80 347,77 350,74 C350,74 347,77 350,74 L350,74 M333,41 C330,41 324,39 333,33 C341,28 341,29 341,32 C342,37 337,41 333,41 C333,41 337,41 333,41 L333,41 M303,50 C303,50 299,47 306,41 C314,34 313,37 313,40 C314,44 303,50 303,50 L303,50 M334,23 C334,23 340,22 339,24 C338,25 335,31 332,27 C328,24 334,23 334,23 L334,23 M367,54 C369,54 370,55 370,56 C370,58 369,59 367,59 C366,59 365,58 365,56 C365,55 366,54 367,54 C367,54 366,54 367,54 L367,54 M362,78 C364,78 365,79 365,81 C365,82 364,83 362,83 C361,83 360,82 360,81 C360,79 361,78 362,78 C362,78 361,78 362,78 L362,78 M358,88 C360,88 361,89 361,91 C361,92 360,93 358,93 C357,93 356,92 356,91 C356,89 357,88 358,88 C358,88 357,88 358,88 L358,88 M342,95 C344,95 345,96 345,97 C345,99 344,100 342,100 C341,100 340,99 340,97 C340,96 341,95 342,95 C342,95 341,95 342,95 L342,95 M351,96 C352,96 355,98 355,100 C355,101 352,101 351,101 C349,101 348,100 348,99 C348,97 349,96 351,96 C351,96 349,96 351,96 L351,96 M375,57 C376,57 377,58 377,60 C377,61 376,62 375,62 C373,62 372,61 372,60 C372,58 373,57 375,57 C375,57 373,57 375,57 L375,57 M388,34 C390,34 391,35 391,36 C391,38 390,39 388,39 C387,39 386,38 386,36 C386,35 387,34 388,34 C388,34 387,34 388,34 L388,34 M293,42 C296,43 307,35 303,34 C300,33 291,41 293,42 C293,42 291,41 293,42 L293,42 M312,29 C315,29 322,26 319,25 C315,24 310,28 312,29 C312,29 310,28 312,29 L312,29 M264,59 C270,56 285,49 278,50 C270,51 260,62 264,59 C264,59 260,62 264,59 L264,59 M357,10 C359,10 367,7 363,6 C360,5 354,9 357,10 C357,10 354,9 357,10 L357,10 M285,46 C287,47 292,44 289,43 C285,42 282,46 285,46 C285,46 282,46 285,46 L285,46 M348,109 C349,109 350,110 350,112 C350,113 350,113 348,113 C347,113 346,112 346,111 C346,109 346,109 348,109 C348,109 346,109 348,109 L348,109 M340,108 C342,108 344,109 344,110 C344,112 341,111 340,111 C338,111 337,110 337,109 C337,107 339,108 340,108 C340,108 339,108 340,108 L340,108 M342,123 C344,123 346,125 346,126 C346,128 344,128 342,128 C341,128 340,127 340,125 C340,124 341,123 342,123 C342,123 341,123 342,123 L342,123 M330,143 C334,142 334,144 335,148 C336,151 343,163 332,149 C329,146 326,144 330,143 C330,143 326,144 330,143 L330,143 M342,155 C344,155 345,156 345,158 C345,159 344,160 342,160 C341,160 340,159 340,158 C340,156 341,155 342,155 C342,155 341,155 342,155 L342,155 M345,164 C346,164 347,165 347,167 C347,168 346,169 345,169 C343,169 342,168 342,167 C342,165 343,164 345,164 C345,164 343,164 345,164 L345,164 M345,173 C346,173 348,176 348,178 C348,179 347,180 346,180 C344,180 342,179 342,177 C342,176 344,173 345,173 C345,173 344,173 345,173 L345,173 M346,189 C348,189 347,189 347,191 C347,192 347,191 346,191 C344,191 345,192 345,191 C345,189 345,189 346,189 C346,189 345,189 346,189 L346,189 M333,156 C334,156 334,156 334,158 C334,159 334,158 332,158 C331,158 331,159 331,158 C331,156 331,156 333,156 C333,156 331,156 333,156 L333,156 M336,169 C337,169 337,169 337,170 C337,172 337,175 336,175 C334,175 334,172 334,170 C334,169 334,169 336,169 C336,169 334,169 336,169 L336,169 M339,183 C341,183 340,183 340,184 C340,186 340,185 339,185 C337,185 338,186 338,184 C338,183 338,183 339,183 C339,183 338,183 339,183 L339,183 M333,196 C334,196 334,196 334,198 C334,199 334,198 333,198 C331,198 332,199 332,198 C332,196 332,196 333,196 C333,196 332,196 333,196 L333,196 M342,200 C343,200 345,202 345,203 C345,204 342,207 340,207 C339,207 339,208 339,206 C339,205 341,200 342,200 C342,200 341,200 342,200 L342,200 M336,214 C338,214 340,214 340,215 C340,216 337,219 335,219 C334,219 334,220 334,218 C334,217 335,214 336,214 C336,214 335,214 336,214 L336,214 M328,207 C329,207 329,207 329,208 C329,210 329,209 327,209 C326,209 326,210 326,208 C326,207 326,207 328,207 C328,207 326,207 328,207 L328,207 M325,226 C327,226 328,228 328,229 C328,230 326,230 324,230 C323,230 323,231 323,229 C323,228 324,226 325,226 C325,226 324,226 325,226 L325,226 M317,231 C318,231 318,233 318,234 C318,236 313,239 311,239 C310,239 310,240 310,238 C310,237 316,231 317,231 C317,231 316,231 317,231 L317,231 M318,215 C319,215 319,215 319,217 C319,218 319,217 317,217 C316,217 316,218 316,217 C316,215 316,215 318,215 C318,215 316,215 318,215 L318,215 M306,224 C307,224 312,226 312,227 C312,228 306,231 305,231 C303,231 302,228 302,227 C302,226 304,224 306,224 C306,224 304,224 306,224 L306,224 M293,228 C294,228 294,228 294,230 C294,231 294,230 292,230 C291,230 291,231 291,230 C291,228 291,228 293,228 C293,228 291,228 293,228 L293,228 M301,240 C302,240 302,240 302,242 C302,243 302,242 300,242 C299,242 299,243 299,242 C299,240 299,240 301,240 C301,240 299,240 301,240 L301,240 M298,241 C299,241 299,241 299,243 C299,244 299,243 297,243 C296,243 296,244 296,243 C296,241 296,241 298,241 C298,241 296,241 298,241 L298,241 M286,242 C287,242 288,243 288,244 C288,245 288,244 287,244 C286,244 284,245 284,245 C284,244 285,242 286,242 C286,242 285,242 286,242 L286,242 M289,244 C290,244 290,244 290,245 C290,246 290,246 289,246 C288,246 288,246 288,245 C288,244 288,244 289,244 C289,244 288,244 289,244 L289,244 M284,231 C285,231 286,235 286,236 C286,236 283,236 282,236 C281,236 280,233 280,233 C280,232 283,231 284,231 C284,231 283,231 284,231 L284,231 M273,242 C274,242 274,242 274,244 C274,245 273,244 272,244 C271,244 271,245 271,244 C271,242 271,242 273,242 C273,242 271,242 273,242 L273,242 M270,235 C271,235 269,239 269,240 C269,241 264,242 263,242 C262,242 264,240 264,239 C264,237 268,235 270,235 C270,235 268,235 270,235 L270,235 M45,52 C49,53 53,53 54,48 C55,42 53,40 45,42 C38,44 33,51 45,52 C45,52 33,51 45,52 L45,52 M81,56 C81,56 100,60 83,47 C75,41 74,46 74,49 C73,54 81,56 81,56 L81,56 M24,15 C33,14 32,9 23,7 C22,7 19,16 24,15 C24,15 19,16 24,15 L24,15 M19,15 C17,15 13,16 12,19 C12,23 16,25 18,23 C21,21 22,16 19,15 C19,15 22,16 19,15 L19,15 M25,26 C23,25 15,27 16,30 C16,33 22,33 25,32 C27,30 28,27 25,26 C25,26 28,27 25,26 L25,26 M24,44 C21,41 18,44 17,45 C16,47 21,49 22,49 C24,50 27,46 24,44 C24,44 27,46 24,44 L24,44 M13,7 C13,7 9,7 10,8 C11,10 14,10 14,10 L14,10 L13,7 M7,16 C7,16 3,16 4,17 C5,19 8,19 8,19 L8,19 L7,16 M39,64 C39,64 34,66 35,67 C36,69 38,71 41,68 C45,64 39,64 39,64 L39,64 M53,83 C50,81 46,83 45,85 C44,86 49,88 51,89 C52,89 56,86 53,83 C53,83 56,86 53,83 L53,83 M51,73 C48,71 45,74 44,76 C43,77 47,78 49,79 C50,79 54,76 51,73 C51,73 54,76 51,73 L51,73 M68,40 C71,40 77,38 68,32 C60,27 60,28 60,31 C59,36 64,40 68,40 C68,40 64,40 68,40 L68,40 M98,49 C98,49 102,46 95,40 C87,33 88,36 88,39 C87,43 98,49 98,49 L98,49 M67,22 C67,22 61,21 62,23 C63,24 66,30 69,26 C73,23 67,22 67,22 L67,22 M34,53 C32,53 31,54 31,55 C31,57 32,58 34,58 C35,58 36,57 36,55 C36,54 35,53 34,53 C34,53 35,53 34,53 L34,53 M39,77 C37,77 36,79 36,80 C36,81 37,82 39,82 C40,82 41,81 41,80 C41,79 40,77 39,77 C39,77 40,77 39,77 L39,77 M43,87 C41,87 40,89 40,90 C40,91 41,92 43,92 C44,92 45,91 45,90 C45,89 44,87 43,87 C43,87 44,87 43,87 L43,87 M59,94 C57,94 56,95 56,96 C56,98 57,99 59,99 C60,99 61,98 61,96 C61,95 60,94 59,94 C59,94 60,94 59,94 L59,94 M50,95 C49,95 46,98 46,99 C46,100 49,100 50,100 C52,100 53,99 53,98 C53,97 52,95 50,95 C50,95 52,95 50,95 L50,95 M26,56 C25,56 24,58 24,59 C24,60 25,61 26,61 C28,61 29,60 29,59 C29,58 28,56 26,56 C26,56 28,56 26,56 L26,56 M13,33 C11,33 10,34 10,35 C10,37 11,38 13,38 C14,38 15,37 15,35 C15,34 14,33 13,33 C13,33 14,33 13,33 L13,33 M108,41 C105,42 94,34 98,33 C101,32 110,40 108,41 C108,41 110,40 108,41 L108,41 M89,28 C86,28 79,25 82,24 C86,23 91,27 89,28 C89,28 91,27 89,28 L89,28 M137,58 C131,55 116,48 123,49 C131,50 141,61 137,58 C137,58 141,61 137,58 L137,58 M44,9 C42,9 34,6 38,5 C41,4 47,8 44,9 C44,9 47,8 44,9 L44,9 M116,45 C114,46 109,43 112,42 C116,41 119,45 116,45 C116,45 119,45 116,45 L116,45 M53,108 C52,108 51,110 51,111 C51,112 51,112 53,112 C54,112 55,111 55,110 C55,109 55,108 53,108 C53,108 55,108 53,108 L53,108 M61,107 C59,107 57,108 57,109 C57,111 60,110 61,110 C63,110 64,109 64,108 C64,107 62,107 61,107 C61,107 62,107 61,107 L61,107 M59,122 C57,122 55,124 55,125 C55,127 57,127 59,127 C60,127 61,126 61,124 C61,123 60,122 59,122 C59,122 60,122 59,122 L59,122 M71,142 C67,141 67,143 66,147 C65,150 58,162 69,148 C72,145 75,143 71,142 C71,142 75,143 71,142 L71,142 M59,154 C57,154 56,156 56,157 C56,158 57,159 59,159 C60,159 61,158 61,157 C61,156 60,154 59,154 C59,154 60,154 59,154 L59,154 M56,163 C55,163 54,165 54,166 C54,167 55,168 56,168 C58,168 59,167 59,166 C59,165 58,163 56,163 C56,163 58,163 56,163 L56,163 M56,172 C55,172 53,176 53,177 C53,178 54,179 55,179 C57,179 59,178 59,176 C59,175 57,172 56,172 C56,172 57,172 56,172 L56,172 M55,188 C53,188 54,189 54,190 C54,191 54,190 55,190 C57,190 56,191 56,190 C56,189 56,188 55,188 C55,188 56,188 55,188 L55,188 M68,155 C67,155 67,156 67,157 C67,158 67,157 69,157 C70,157 70,158 70,157 C70,156 70,155 68,155 C68,155 70,155 68,155 L68,155 M65,168 C64,168 64,168 64,169 C64,171 64,174 65,174 C67,174 67,171 67,169 C67,168 67,168 65,168 C65,168 67,168 65,168 L65,168 M62,182 C60,182 61,182 61,183 C61,185 61,184 62,184 C64,184 63,185 63,183 C63,182 63,182 62,182 C62,182 63,182 62,182 L62,182 M68,195 C67,195 67,196 67,197 C67,198 67,197 68,197 C70,197 69,198 69,197 C69,196 69,195 68,195 C68,195 69,195 68,195 L68,195 M59,199 C58,199 56,201 56,202 C56,203 59,206 61,206 C62,206 62,207 62,205 C62,204 60,199 59,199 C59,199 60,199 59,199 L59,199 M65,213 C63,213 61,213 61,214 C61,215 64,218 66,218 C67,218 67,219 67,217 C67,216 66,213 65,213 C65,213 66,213 65,213 L65,213 M73,206 C72,206 72,206 72,207 C72,209 72,208 74,208 C75,208 75,209 75,207 C75,206 75,206 73,206 C73,206 75,206 73,206 L73,206 M76,225 C74,225 73,227 73,228 C73,229 75,229 77,229 C78,229 78,230 78,228 C78,227 77,225 76,225 C76,225 77,225 76,225 L76,225 M84,230 C83,230 83,232 83,233 C83,235 88,238 90,238 C91,238 91,239 91,237 C91,236 85,230 84,230 C84,230 85,230 84,230 L84,230 M83,214 C82,214 82,215 82,216 C82,217 82,216 84,216 C85,216 85,217 85,216 C85,215 85,214 83,214 C83,214 85,214 83,214 L83,214 M95,223 C94,223 89,225 89,226 C89,227 95,230 96,230 C98,230 99,227 99,226 C99,225 97,223 95,223 C95,223 97,223 95,223 L95,223 M108,227 C107,227 107,228 107,229 C107,230 107,229 109,229 C110,229 110,230 110,229 C110,228 110,227 108,227 C108,227 110,227 108,227 L108,227 M100,239 C99,239 99,240 99,241 C99,242 99,241 101,241 C102,241 102,242 102,241 C102,240 102,239 100,239 C100,239 102,239 100,239 L100,239 M103,240 C102,240 102,241 102,242 C102,243 102,242 104,242 C105,242 105,243 105,242 C105,241 105,240 103,240 C103,240 105,240 103,240 L103,240 M115,241 C114,241 113,242 113,243 C113,244 113,243 114,243 C115,243 117,245 117,244 C117,243 116,241 115,241 C115,241 116,241 115,241 L115,241 M112,243 C111,243 111,243 111,244 C111,245 111,245 112,245 C113,245 113,245 113,244 C113,243 113,243 112,243 C112,243 113,243 112,243 L112,243 M117,230 C116,230 115,234 115,235 C115,236 118,235 119,235 C120,235 121,233 121,232 C121,231 118,230 117,230 C117,230 118,230 117,230 L117,230 M128,241 C127,241 127,242 127,243 C127,244 128,243 129,243 C130,243 130,244 130,243 C130,242 130,241 128,241 C128,241 130,241 128,241 L128,241 M131,234 C130,234 132,238 132,239 C132,240 137,241 138,241 C139,241 137,239 137,238 C137,236 133,234 131,234 C131,234 133,234 131,234 L131,234 M204,102 C202,102 202,102 202,104 C202,105 203,104 204,104 C205,104 205,105 205,104 C205,102 205,102 204,102 C204,102 205,102 204,102 L204,102 M198,102 C197,102 197,102 197,104 C197,105 197,104 199,104 C200,104 199,105 199,104 C199,102 199,102 198,102 C198,102 199,102 198,102 L198,102 M204,111 C202,111 202,111 202,113 C202,114 203,113 204,113 C205,113 205,114 205,113 C205,111 205,111 204,111 C204,111 205,111 204,111 L204,111 M197,111 C196,111 196,111 196,113 C196,114 197,113 198,113 C199,113 199,114 199,113 C199,111 199,111 197,111 C197,111 199,111 197,111 L197,111 M206,122 C204,122 204,123 204,124 C204,126 205,129 206,129 C208,129 207,125 207,123 C207,122 207,122 206,122 C206,122 207,122 206,122 L206,122 M197,122 C195,122 195,123 195,124 C195,126 194,129 196,129 C197,129 197,125 197,124 C197,122 198,122 197,122 C197,122 198,122 197,122 L197,122" fill="rgb(255,246,227)"></path>
    </g>
</svg>