<?xml version="1.1" encoding="UTF-8" standalone="no"?>
<svg width="389px" height="389px" xmlns="http://www.w3.org/2000/svg" version="1.1">
    <title>clock</title>
    <description>Created with Sketch (http://www.bohemiancoding.com/sketch)</description>
    <defs></defs>
    <g fill="none">
        <path id="Shape" d="M162,387 C121,380 78,357 49,325 C45,320 41,315 40,314 C39,312 36,308 33,304 C18,284 5,249 2,224 C0,213 0,176 2,165 C5,139 19,105 34,83 C52,59 67,45 90,30 C110,17 140,5 164,2 C173,0 214,0 224,2 C242,4 266,12 283,21 C302,30 326,48 339,63 C362,89 376,116 384,149 C388,162 389,172 388,196 C388,225 387,233 378,260 C375,271 364,294 359,300 C358,301 354,306 351,311 C338,329 327,340 306,355 C284,370 251,384 224,387 C213,389 172,389 162,387 C162,387 172,389 162,387 L162,387 M206,382 C206,380 206,377 204,367 C203,361 201,353 201,351 C200,340 198,337 197,344 C197,346 195,354 193,361 C192,368 190,376 190,378 C189,383 191,385 199,385 C204,385 205,384 206,382 C206,382 205,384 206,382 L206,382 M174,382 C176,381 176,321 174,320 C173,319 171,318 168,318 C166,317 160,315 154,314 C147,312 144,311 144,312 C143,313 141,317 140,322 C138,326 135,337 132,345 C126,361 124,368 125,370 C126,372 131,374 142,377 C152,380 169,383 172,383 C172,383 174,383 174,382 C174,382 174,383 174,382 L174,382 M228,381 C240,379 257,374 266,371 C273,367 274,367 274,364 C274,362 273,358 272,355 C268,345 264,332 263,331 C263,328 255,307 254,307 C253,307 250,307 248,309 C239,313 215,320 206,320 C203,320 203,320 203,322 C203,323 205,334 208,347 C210,360 213,373 213,376 C214,381 216,384 220,383 C221,383 225,382 228,381 C228,381 225,382 228,381 L228,381 M186,378 C187,376 188,371 188,368 C188,365 190,353 193,342 C195,331 196,322 196,321 C194,320 185,320 184,321 C182,322 182,383 184,382 C184,382 186,380 186,378 C186,378 186,380 186,378 L186,378 M119,359 C121,356 122,351 123,348 C127,340 130,327 130,327 C129,327 127,329 125,331 C123,334 120,337 118,340 C106,352 102,357 103,360 C103,361 106,362 109,364 C115,367 117,366 119,359 C119,359 117,366 119,359 L119,359 M288,360 C294,356 294,355 291,351 C288,346 270,326 268,324 C265,322 264,323 266,326 C268,331 274,348 275,352 C276,357 279,363 281,363 C283,363 285,361 288,360 C288,360 285,361 288,360 L288,360 M101,352 C107,346 138,309 138,308 C138,307 129,302 127,302 C126,302 123,306 119,313 C116,319 111,327 108,332 C102,342 96,354 96,355 C95,356 97,355 101,352 C101,352 97,355 101,352 L101,352 M92,345 C94,342 97,337 98,336 C106,323 120,297 119,296 C118,294 115,296 113,301 C111,304 108,309 106,313 C103,316 101,321 99,324 C98,326 95,332 92,336 C87,344 85,351 87,351 C88,351 90,348 92,345 C92,345 90,348 92,345 L92,345 M313,343 C322,336 342,316 344,312 C346,308 345,306 339,301 C337,300 331,294 325,289 C306,273 299,268 298,268 C297,268 294,271 291,275 C285,283 275,292 266,298 C263,300 261,302 261,303 C261,304 263,307 267,311 C270,315 277,323 282,329 C296,345 301,350 303,350 C304,350 309,347 313,343 C313,343 309,347 313,343 L313,343 M82,339 C84,337 87,332 89,328 C91,324 96,316 100,310 C108,295 110,292 110,290 C110,289 98,275 97,275 C96,275 93,278 89,281 C85,285 75,294 66,302 C55,311 51,316 51,317 C50,320 75,344 77,344 C79,344 81,342 82,339 C82,339 81,342 82,339 L82,339 M210,314 C224,312 233,310 249,302 C271,292 292,270 302,249 C310,232 312,224 314,208 C316,196 316,193 314,181 C312,165 310,157 302,141 C292,119 271,98 249,87 C233,79 224,77 209,75 C198,74 194,73 184,74 C177,75 168,77 164,78 C156,80 134,89 129,93 C117,101 100,118 93,129 C89,135 80,155 78,164 C74,176 73,192 74,207 C75,213 77,222 78,226 C80,234 90,255 93,260 C101,272 118,288 129,296 C134,300 155,309 162,311 C168,313 185,315 193,315 C196,315 203,315 210,314 C210,314 203,315 210,314 L210,314 M51,305 C54,302 59,298 62,295 C65,292 69,288 72,286 C74,284 77,282 77,281 C77,280 43,291 39,294 C37,295 37,297 37,298 C37,301 42,309 44,309 C45,309 48,307 51,305 C51,305 48,307 51,305 L51,305 M353,299 C358,292 358,288 353,287 C351,287 343,284 335,281 C327,278 320,276 319,276 C317,276 318,277 329,286 C334,291 338,295 339,295 C340,297 348,303 349,303 C350,303 351,301 353,299 C353,299 351,301 353,299 L353,299 M41,288 C44,288 48,286 50,285 C58,282 70,278 77,276 C80,275 85,273 88,272 L93,269 L90,265 C86,259 86,259 77,263 C72,265 66,268 63,271 C60,273 56,275 54,276 C44,281 27,292 34,290 C35,290 38,289 41,288 C41,288 38,289 41,288 L41,288 M39,276 C45,273 51,270 53,269 C54,267 61,263 68,260 C75,255 80,252 80,251 C81,248 75,250 67,255 C62,258 54,263 48,266 C29,276 27,278 27,280 C26,283 29,282 39,276 C39,276 29,282 39,276 L39,276 M362,280 C362,279 360,278 343,268 C338,265 330,261 326,258 C316,252 311,249 308,251 C306,252 301,261 302,262 C303,262 307,264 312,265 C317,267 330,271 340,275 C350,278 360,281 360,281 C361,281 362,281 362,280 C362,280 362,281 362,280 L362,280 M371,266 C374,258 380,238 382,225 L384,215 L382,213 C379,212 377,212 351,212 C335,212 321,212 321,212 C320,213 318,217 317,221 C316,225 315,231 314,234 C312,242 313,243 324,249 C328,251 334,255 337,256 C346,262 365,272 366,272 C367,272 369,269 371,266 C371,266 369,269 371,266 L371,266 M35,265 C41,262 48,258 51,256 C54,254 60,251 65,248 C74,243 76,241 75,239 C74,238 72,239 69,241 C59,246 51,251 44,255 C39,258 34,261 31,263 C24,266 22,268 22,270 C22,272 23,272 35,265 C35,265 23,272 35,265 L35,265 M25,258 C28,256 35,252 40,249 C45,246 51,243 53,242 C55,240 60,237 64,235 C72,231 73,229 71,221 C70,212 71,212 38,213 C12,213 8,213 7,215 C5,216 5,217 8,229 C11,245 15,260 17,261 C19,262 19,262 25,258 C25,258 19,262 25,258 L25,258 M68,205 C69,204 66,200 64,200 C63,200 57,198 51,196 L39,191 L24,197 C7,202 5,203 7,205 C8,206 14,207 38,207 C58,207 68,206 68,205 C68,205 68,206 68,205 L68,205 M381,203 C384,202 384,202 382,201 C380,200 322,199 321,201 C321,201 321,202 321,203 C323,204 327,205 351,205 C368,205 379,204 381,203 C381,203 379,204 381,203 L381,203 M67,196 C68,195 68,193 69,190 C69,184 68,183 60,185 C57,186 53,188 51,188 C49,189 47,190 50,191 C50,191 54,192 58,193 C66,197 66,197 67,196 C67,196 66,197 67,196 L67,196 M17,190 C21,189 24,188 24,187 C25,186 10,181 8,182 C4,182 3,193 8,193 C9,193 13,191 17,190 C17,190 13,191 17,190 L17,190 M382,192 C384,191 384,190 383,189 C381,188 325,187 323,188 C322,189 321,190 322,191 C322,192 326,192 352,192 C368,192 382,192 382,192 C382,192 382,192 382,192 L382,192 M51,180 C58,178 65,175 67,175 C70,174 70,173 75,157 C76,151 78,145 77,143 C77,141 62,122 59,120 C58,119 39,114 31,113 C28,113 25,113 24,113 C20,115 12,140 7,162 C6,171 6,171 7,173 C8,175 12,177 16,178 C19,179 24,181 27,182 C30,183 33,184 35,184 C36,184 43,183 51,180 C51,180 43,183 51,180 L51,180 M382,180 C384,177 384,174 382,163 C377,139 368,112 363,112 C362,112 357,114 352,117 C347,120 339,124 335,127 C318,136 311,141 311,142 C311,143 312,147 313,152 C315,157 317,165 318,170 C319,175 320,180 321,180 C322,181 330,182 351,182 C378,182 380,181 382,180 C382,180 380,181 382,180 L382,180 M85,132 C86,130 87,127 87,126 C86,125 68,121 68,122 C67,122 69,125 72,127 C74,130 77,133 78,135 C79,136 81,138 81,138 C82,138 84,135 85,132 C85,132 84,135 85,132 L85,132 M317,129 C325,124 343,114 344,113 C347,112 359,104 359,103 C359,101 356,101 349,105 C345,107 339,111 335,113 C331,115 327,118 325,119 C323,120 319,123 315,125 C306,129 303,132 305,133 C307,134 308,134 317,129 C317,129 308,134 317,129 L317,129 M309,120 C318,115 320,113 338,104 C349,97 354,94 354,92 C354,89 342,74 332,64 C315,46 298,33 294,35 C293,35 292,37 291,39 C290,40 287,44 286,47 C284,50 280,56 277,62 C274,67 270,74 268,77 C264,84 263,87 264,89 C265,90 267,91 269,93 C278,99 286,107 293,116 C297,121 300,125 301,125 C301,125 305,122 309,120 C309,120 305,122 309,120 L309,120 M96,115 C97,114 102,109 106,104 L115,95 L114,88 C113,77 111,67 110,65 C109,62 88,43 85,42 C84,42 83,42 82,42 C76,44 52,67 43,79 C40,84 39,86 39,88 C40,89 44,95 49,101 C58,111 58,111 63,113 C66,113 74,115 79,116 C90,119 93,118 96,115 C96,115 93,118 96,115 L96,115 M46,104 C39,95 36,93 35,94 C31,96 28,103 31,104 C33,105 44,108 47,108 L50,109 L46,104 M127,88 C129,87 131,86 131,85 C131,83 117,70 116,71 C115,71 118,83 119,89 C120,91 122,91 127,88 C127,88 122,91 127,88 L127,88 M256,82 C257,82 259,79 260,77 C262,74 266,67 270,60 C288,29 287,30 285,28 C285,27 278,24 270,21 C258,15 240,10 226,7 C220,6 220,6 220,39 C220,66 220,68 222,70 C223,71 228,73 233,75 C239,76 245,79 248,81 C254,84 253,84 256,82 C256,82 253,84 256,82 L256,82 M141,78 C141,76 119,36 112,27 C111,25 110,25 109,26 C108,27 109,30 111,42 L114,57 L120,63 C138,79 142,82 141,78 C141,78 142,82 141,78 L141,78 M161,73 C167,71 168,70 171,67 C172,65 174,61 175,59 C175,57 177,52 178,47 L181,40 L179,33 C177,30 176,25 175,22 C175,19 173,15 172,12 C169,7 169,7 164,7 C158,8 133,14 126,17 C118,21 118,22 122,29 C124,32 128,38 131,44 C139,59 147,72 148,74 C150,76 154,76 161,73 C161,73 154,76 161,73 L161,73 M187,68 C189,66 185,48 182,50 C181,52 177,64 177,67 C177,69 177,70 181,70 C184,70 187,69 187,68 C187,68 187,69 187,68 L187,68 M213,40 C213,25 213,11 213,10 C212,7 210,7 209,10 C208,13 208,67 209,68 C210,68 211,68 211,68 C213,68 213,64 213,40 C213,40 213,64 213,40 L213,40 M201,39 C201,24 201,10 201,9 C200,7 200,7 199,8 C196,10 188,30 188,36 C188,38 190,44 191,50 C197,66 198,68 199,67 C201,67 201,64 201,39 C201,39 201,64 201,39 L201,39 M105,39 C104,33 103,29 101,30 C99,30 94,34 94,35 C94,36 96,40 100,43 C107,51 107,50 105,39 C105,39 107,50 105,39 L105,39 M187,24 C187,23 189,19 190,15 C192,6 191,5 186,5 C180,5 179,7 182,16 C183,21 184,24 184,25 C185,26 186,26 187,24 C187,24 186,26 187,24 L187,24" fill="rgb(0,0,0)"></path>
    </g>
</svg>