<?xml version="1.1" encoding="UTF-8" standalone="no"?>
<svg width="346px" height="356px" xmlns="http://www.w3.org/2000/svg" version="1.1">
    <title>panda</title>
    <description>Created with Sketch (http://www.bohemiancoding.com/sketch)</description>
    <defs></defs>
    <g fill="none">
        <path id="Shape" d="M94,354 C93,354 91,353 90,353 C90,352 89,352 89,352 C88,353 87,352 87,351 C86,351 85,350 84,350 C83,350 81,350 81,349 C80,348 79,348 78,348 C77,348 75,347 75,347 C68,342 67,341 67,338 C67,336 68,333 68,332 C69,329 69,328 68,327 C67,327 66,325 66,321 C66,318 66,316 65,315 C62,312 63,298 66,292 C67,289 68,286 68,286 C68,285 69,284 70,283 C72,281 72,280 72,277 C72,275 73,273 74,272 C74,272 75,269 76,267 C76,265 77,264 78,264 C78,264 80,263 82,262 C83,261 85,261 86,261 C88,261 94,265 96,267 C96,268 98,268 100,269 C102,270 105,271 107,272 C109,274 112,275 112,275 C113,275 115,275 117,276 C119,277 121,278 122,278 C122,278 123,278 123,279 C123,280 124,281 125,281 C129,283 134,288 136,294 C138,298 139,300 138,304 C138,306 137,309 137,310 C136,312 136,312 137,313 C139,314 144,314 150,311 C155,310 160,309 160,311 C160,311 159,312 159,312 C159,313 149,315 139,316 C132,317 131,317 130,319 C129,320 127,322 126,323 C121,328 120,333 123,335 C125,336 128,342 127,344 C127,347 123,350 118,351 C116,352 114,353 113,354 C110,355 98,355 94,354 C94,354 98,355 94,354 L94,354 M219,345 C217,344 214,343 213,342 C212,341 211,341 211,341 C211,342 210,341 210,340 C209,339 208,338 207,338 C206,338 205,338 205,338 C204,337 198,336 195,336 C194,336 189,329 188,327 C188,326 187,325 186,324 C185,322 185,322 187,319 C188,317 188,315 188,315 C187,314 187,313 187,313 C188,311 185,309 182,309 C180,309 179,308 179,308 C179,306 182,305 185,305 C187,305 200,299 201,297 C202,297 202,296 203,296 C205,296 210,293 214,289 C217,286 219,284 220,284 C220,285 221,284 222,283 C222,282 223,280 223,280 C225,278 225,275 225,274 C225,273 225,272 226,272 C226,272 227,271 228,268 C230,264 237,257 237,259 C237,259 239,260 240,260 C243,260 247,263 247,265 C247,265 248,267 248,268 C248,270 249,272 249,273 C251,276 253,291 253,301 C253,307 253,312 254,313 C255,317 256,319 257,319 C258,319 258,319 258,320 C258,320 258,320 257,320 C255,319 255,321 257,322 C259,324 261,330 261,334 C261,338 259,343 258,343 C254,344 242,346 234,346 C226,346 224,346 219,345 C219,345 224,346 219,345 L219,345 M81,247 C80,246 80,245 79,243 C79,239 82,226 84,226 C85,226 86,223 86,217 C86,215 87,212 88,210 C89,207 90,203 90,197 C90,193 89,189 89,189 C89,189 88,188 88,186 C87,184 87,183 86,182 C85,182 85,181 85,180 C85,179 85,178 84,179 C83,180 83,180 82,177 C82,175 81,173 80,173 C79,172 78,172 79,171 C79,170 76,169 74,169 C73,169 72,168 72,168 C72,167 71,167 71,167 C70,167 69,167 68,166 C67,165 64,163 61,162 C58,162 56,160 55,160 C54,159 51,157 48,155 C42,152 32,143 32,142 C32,141 27,135 26,134 C26,133 25,132 24,131 C24,129 23,127 22,127 C21,126 20,123 19,122 C19,120 17,117 16,116 C12,112 11,111 11,110 C11,109 13,110 18,114 C25,121 27,122 30,122 C33,121 34,120 37,113 C40,105 40,102 37,98 C34,95 33,93 37,93 C38,92 39,92 40,92 C41,91 44,93 46,95 C48,96 52,97 53,97 C53,96 53,95 52,95 C51,93 55,87 57,87 C58,87 57,88 56,89 C54,90 54,96 57,99 C59,100 61,101 63,101 C64,100 65,101 66,102 C67,104 72,105 72,103 C72,102 73,102 74,103 C76,103 77,103 77,102 C77,102 77,101 78,101 C80,101 80,100 81,99 C81,97 79,97 78,99 C78,100 77,101 76,101 C75,101 75,101 75,100 C76,100 75,99 75,98 C74,98 74,97 74,97 C74,96 74,95 75,96 C75,96 76,96 77,96 C78,95 83,96 83,97 C82,97 84,98 85,98 C86,99 87,99 87,100 C87,101 93,108 97,110 C99,112 100,113 100,114 C100,119 113,128 116,125 C116,124 118,124 120,124 C122,125 124,124 125,124 C125,123 127,123 130,123 C132,123 135,122 135,122 C135,122 138,121 140,121 C143,120 144,120 143,119 C143,117 146,115 148,115 C149,115 150,114 151,113 C153,111 153,111 154,111 C154,112 154,112 154,112 C154,111 163,102 164,102 C166,101 171,96 171,94 C171,94 172,91 173,89 C174,87 176,83 176,80 C178,76 178,75 176,74 C175,73 175,73 176,71 C176,70 177,68 178,65 C178,63 179,62 179,62 C181,62 183,63 183,64 C183,65 183,66 184,67 C185,68 187,70 188,71 C189,73 190,74 192,75 C193,75 194,75 194,76 C193,77 198,82 200,81 C201,81 201,81 201,82 C200,83 200,83 202,83 C203,83 203,83 203,84 C203,85 205,85 206,83 C207,81 206,75 204,72 C203,71 203,70 203,69 C204,69 204,70 205,70 C205,71 207,72 208,73 C209,73 211,76 213,80 C213,80 214,81 214,81 C215,81 216,82 217,83 C218,84 219,85 220,85 C220,85 221,85 222,86 C223,87 230,88 231,87 C231,87 234,87 237,87 C240,87 243,86 244,86 C246,85 248,84 249,84 C249,84 251,84 251,83 C252,83 253,82 255,82 C256,82 259,81 260,80 C262,79 264,78 266,78 C267,78 269,78 271,77 C273,76 273,76 273,74 C272,73 272,71 272,70 C271,69 272,68 276,66 C278,64 280,63 280,62 C280,61 283,58 284,59 C286,59 290,57 295,54 C298,53 301,52 302,52 C304,52 307,51 310,49 C313,48 316,47 317,46 C321,45 329,42 329,41 C329,39 332,35 335,35 C337,34 338,35 340,36 L342,38 L340,39 C338,40 338,40 337,39 C336,39 335,38 335,38 C335,39 334,40 333,41 C332,43 327,46 320,49 C317,50 312,53 309,54 C305,56 302,57 300,57 C299,57 296,58 294,59 C293,61 291,62 291,62 C291,62 288,63 285,64 C280,66 280,67 279,69 C279,71 279,74 280,76 C281,79 281,80 284,80 C290,81 293,83 293,85 C293,85 292,87 291,88 C288,91 288,91 288,99 C288,109 289,112 292,110 C293,110 294,110 295,111 C296,112 296,112 299,110 C301,110 303,109 304,109 C304,109 305,108 305,108 C305,107 311,104 312,105 C312,105 312,106 311,108 C310,109 308,111 307,114 C306,116 303,120 300,122 C296,126 293,128 284,132 C271,139 259,144 258,144 C256,144 246,152 241,157 C226,173 226,173 226,184 C226,188 226,193 226,193 C227,196 224,195 223,192 C220,187 216,183 215,183 C214,183 213,181 212,180 C211,178 209,176 208,175 C206,174 205,173 205,172 C205,172 204,172 204,172 C203,172 201,171 200,170 C199,169 198,169 195,169 C191,170 188,171 188,173 C188,173 187,173 186,173 C186,173 184,176 182,179 C179,185 178,185 176,185 C174,185 172,184 170,183 C169,182 165,181 163,180 C159,179 157,179 156,180 C154,180 151,182 147,183 C144,184 141,186 141,186 C141,187 140,187 140,186 C138,186 137,186 136,187 C135,188 134,188 133,188 C132,188 131,188 130,189 C129,189 127,190 125,190 C120,190 110,192 108,192 C107,193 104,194 101,195 C94,198 94,198 94,207 C93,216 91,220 88,224 C87,225 86,227 86,228 C86,229 85,233 84,236 C83,239 82,243 82,244 C81,246 81,247 81,247 C81,247 81,247 81,247 L81,247 M242,237 C242,235 242,235 242,235 C242,236 242,237 242,238 C242,238 242,238 242,237 C242,237 242,238 242,237 L242,237 M239,231 C239,230 239,229 240,229 C242,230 242,234 241,234 C240,234 239,233 239,231 C239,231 239,233 239,231 L239,231 M238,226 C236,224 236,221 237,220 C238,220 241,227 240,228 C240,228 239,228 238,226 C238,226 239,228 238,226 L238,226 M234,217 C234,216 234,216 235,216 C235,216 236,216 236,217 C236,218 235,218 235,218 C234,218 234,218 234,217 C234,217 234,218 234,217 L234,217 M232,214 C231,213 230,210 232,210 C232,210 232,211 233,211 C233,212 233,213 234,214 C234,215 233,215 232,214 C232,214 233,215 232,214 L232,214 M109,118 C107,118 102,112 103,112 C103,112 103,111 102,110 C101,109 101,109 103,109 C104,109 105,108 105,108 C106,108 109,107 112,107 L119,106 L120,109 C121,112 121,112 118,114 C113,118 112,119 109,118 C109,118 112,119 109,118 L109,118 M14,105 C13,104 12,86 13,84 C14,84 14,82 12,79 L10,75 L11,71 C13,65 13,65 6,58 C1,52 -1,48 3,52 C5,54 8,57 10,59 C14,64 14,64 14,67 C14,69 13,71 13,71 C11,73 17,83 23,89 C28,94 29,96 28,97 C27,97 27,99 27,100 C27,103 27,103 24,104 C23,104 21,104 21,105 C20,106 14,106 14,105 C14,105 14,106 14,105 L14,105 M302,102 C302,101 301,100 299,100 C298,99 296,98 296,97 C295,95 296,89 298,87 C299,85 300,77 299,74 C298,73 297,72 296,72 C293,72 292,71 295,69 C296,68 297,67 298,66 C299,65 301,64 302,64 C303,64 305,63 306,63 C307,62 308,62 309,62 C309,62 312,61 314,60 C326,54 329,52 329,51 C329,50 330,50 334,50 C338,51 339,51 341,49 C343,46 343,46 344,49 C345,51 345,51 342,54 C340,56 336,59 334,60 C331,61 329,62 329,62 C329,63 329,63 328,63 C328,63 326,64 325,65 C323,67 323,68 323,69 C323,71 324,72 324,74 C325,76 322,79 314,83 C309,86 309,87 309,88 C309,89 310,92 310,95 C311,99 311,99 309,102 C306,104 303,105 302,102 C302,102 303,105 302,102 L302,102 M67,102 C67,102 71,100 73,100 C73,100 73,100 72,101 C70,103 67,104 67,102 C67,102 67,104 67,102 L67,102 M134,95 C132,93 126,87 126,86 C126,86 126,84 125,83 C124,82 123,80 123,79 C124,70 125,68 129,68 C131,69 133,68 133,67 C132,66 133,66 136,69 C138,70 139,71 140,71 C141,71 145,76 145,78 C145,78 146,79 147,80 C149,84 147,91 144,94 C141,95 136,96 134,95 C134,95 136,96 134,95 L134,95 M95,90 C94,89 93,86 93,85 C93,83 92,81 91,80 C89,78 89,78 92,77 C93,77 93,76 93,75 C93,75 93,74 94,74 C95,73 96,73 96,72 C96,69 102,67 103,70 C105,73 105,78 104,81 C104,82 104,84 104,84 C103,84 103,85 102,86 C101,88 100,90 100,91 C99,94 98,94 95,90 C95,90 98,94 95,90 L95,90 M78,82 C77,77 78,75 80,79 C81,81 82,83 81,84 C80,88 79,87 78,82 C78,82 79,87 78,82 L78,82 M22,83 C22,83 22,82 22,82 C23,81 24,82 24,83 C24,84 23,84 22,83 C22,83 23,84 22,83 L22,83 M56,82 C56,82 56,81 56,81 C57,80 58,81 58,82 C58,83 57,83 56,82 C56,82 57,83 56,82 L56,82 M16,77 C15,74 15,74 16,73 C17,72 18,71 20,72 C22,72 22,74 20,74 C19,75 18,76 18,78 L18,80 L16,77 L16,77 M54,78 C51,76 51,75 53,75 C54,75 54,75 54,76 C54,76 55,77 55,78 C57,80 57,80 54,78 C54,78 57,80 54,78 L54,78 M32,71 C28,69 26,67 25,67 C25,67 24,66 24,65 C23,63 16,56 14,55 C10,52 4,48 5,47 C5,46 5,46 4,46 C2,46 2,44 4,44 C6,43 7,44 7,44 C7,45 8,46 9,46 C9,46 11,47 12,48 C13,49 14,50 15,50 C15,50 16,50 16,51 C16,51 18,54 21,56 C31,65 40,74 40,75 C40,77 36,75 32,71 C32,71 36,75 32,71 L32,71 M80,66 C82,58 83,56 85,54 C86,52 87,50 87,50 C87,49 88,49 88,49 C90,49 89,53 87,55 C86,56 85,58 85,59 C85,60 84,61 84,61 C84,61 83,63 84,64 C84,67 81,75 80,75 C79,75 79,73 80,66 C80,66 79,73 80,66 L80,66 M49,72 C51,71 52,71 51,72 C50,73 49,73 48,73 C48,73 48,73 49,72 C49,72 48,73 49,72 L49,72 M38,64 C35,62 32,60 32,60 C31,60 31,59 31,59 C30,57 31,58 36,62 C43,67 45,69 44,69 C43,69 40,67 38,64 C38,64 40,67 38,64 L38,64 M198,58 C197,57 197,56 196,55 C196,54 195,52 195,51 C194,50 194,48 193,47 L193,44 L194,47 C199,56 200,61 198,58 C198,58 200,61 198,58 L198,58 M23,52 C23,51 22,51 21,51 C21,51 19,49 17,47 C15,46 12,44 11,43 C10,43 8,41 8,40 C7,38 7,37 5,37 C2,36 2,35 5,34 C8,34 11,36 11,39 C11,40 13,42 16,44 C21,49 26,53 25,53 C25,53 24,53 23,52 C23,52 24,53 23,52 L23,52 M94,32 C94,32 94,31 94,30 C94,30 94,28 93,27 C93,26 92,21 92,16 C92,9 92,8 93,6 C94,5 96,4 97,4 C97,4 98,4 98,3 C97,2 99,3 100,4 C101,5 102,6 103,6 C104,6 107,9 107,12 C108,13 107,14 106,15 C105,16 104,18 104,18 C104,19 103,20 102,21 C101,22 101,24 101,25 C101,29 94,36 94,32 C94,32 94,36 94,32 L94,32 M158,31 C152,27 150,22 153,19 C156,16 156,14 153,12 C152,11 150,10 149,9 C149,8 147,8 146,8 C145,8 145,7 145,7 C145,6 146,6 149,7 C151,7 152,8 152,9 C152,10 152,10 153,10 C154,10 154,10 154,11 C154,11 155,12 156,11 C157,11 158,11 158,11 C159,11 159,10 159,10 C159,8 160,8 163,8 C164,9 164,8 163,8 C162,7 162,7 163,6 C164,5 165,4 166,4 C167,4 168,4 168,4 C169,2 175,0 176,1 C179,3 181,8 181,16 C181,23 181,24 183,26 C185,30 185,31 181,28 C179,26 178,25 177,26 C176,26 174,27 172,28 C170,29 168,30 167,31 C164,33 161,33 158,31 C158,31 161,33 158,31 L158,31" fill="rgb(0,0,0)"></path>
    </g>
</svg>